{"glyphs":{"0":{"ha":944,"x_min":21,"x_max":924,"o":"m 472 -14 q 126 106 232 -14 q 21 447 21 225 q 126 790 21 671 q 472 908 232 908 q 818 790 713 908 q 924 447 924 671 q 818 106 924 225 q 472 -14 713 -14 m 472 272 q 556 315 532 272 q 581 447 581 358 q 556 579 581 536 q 472 622 532 622 q 388 579 413 622 q 364 447 364 536 q 388 315 364 358 q 472 272 413 272 z "},"1":{"ha":557,"x_min":21,"x_max":508,"o":"m 172 0 l 172 582 l 21 560 l 21 839 l 508 908 l 508 0 l 172 0 z "},"2":{"ha":743,"x_min":21,"x_max":722,"o":"m 21 0 l 21 149 q 111 269 61 214 q 225 379 161 324 q 338 482 303 446 q 372 557 372 518 q 276 622 372 622 q 156 608 214 622 q 47 572 99 594 l 47 851 q 192 893 108 878 q 365 908 275 908 q 629 828 543 908 q 715 617 715 747 q 703 518 715 560 q 662 440 690 476 q 585 360 633 403 q 524 306 557 335 q 475 256 490 278 l 722 256 l 722 0 l 21 0 z "},"3":{"ha":764,"x_min":21,"x_max":743,"o":"m 340 -14 q 241 -7 301 -14 q 121 13 181 0 q 21 40 61 25 l 21 294 q 157 251 83 264 q 285 239 231 239 q 371 250 342 239 q 400 296 400 261 q 381 330 400 317 q 319 343 363 343 l 156 343 l 176 556 l 311 556 q 368 568 351 556 q 385 607 385 581 q 358 642 385 629 q 274 656 332 656 q 144 640 210 656 q 33 600 78 624 l 33 853 q 174 892 92 876 q 340 908 256 908 q 548 873 461 908 q 681 777 635 838 q 728 640 728 717 q 708 532 728 581 q 657 449 689 483 q 719 382 696 425 q 743 271 743 339 q 690 108 743 171 q 545 16 636 46 q 340 -14 454 -14 z "},"4":{"ha":776,"x_min":-7,"x_max":783,"o":"m 372 0 l 372 150 l -7 150 l -7 363 l 421 894 l 708 894 l 708 419 l 783 419 l 783 150 l 708 150 l 708 0 l 372 0 m 317 406 l 435 406 l 435 535 l 317 406 z "},"5":{"ha":743,"x_min":21,"x_max":722,"o":"m 329 -14 q 235 -8 290 -14 q 124 9 181 -3 q 25 39 68 21 l 25 294 q 106 267 58 279 q 201 248 154 254 q 274 242 247 242 q 355 258 331 242 q 379 306 379 275 q 360 349 379 336 q 297 363 342 363 l 21 363 l 21 494 l 44 894 l 671 894 l 650 639 l 333 639 l 329 582 l 397 582 q 641 508 560 582 q 722 293 722 433 q 680 135 722 204 q 551 26 638 65 q 329 -14 464 -14 z "},"6":{"ha":839,"x_min":21,"x_max":818,"o":"m 422 -14 q 120 82 219 -14 q 21 360 21 178 l 21 513 q 74 715 21 625 q 227 856 126 804 q 471 908 328 908 q 610 899 550 908 q 728 867 671 890 l 728 624 q 624 657 676 647 q 508 667 571 667 q 378 640 424 667 q 333 585 333 613 l 333 576 q 406 601 360 592 q 494 611 453 611 q 742 535 665 611 q 818 311 818 458 q 780 144 818 218 q 655 28 742 71 q 422 -14 568 -14 m 425 217 q 519 299 519 217 q 499 360 519 339 q 428 382 479 382 q 381 375 406 382 q 333 357 357 368 l 333 313 q 356 238 333 260 q 425 217 379 217 z "},"7":{"ha":700,"x_min":7,"x_max":693,"o":"m 42 0 l 313 639 l 7 639 l 7 894 l 693 894 l 693 710 l 392 0 l 42 0 z "},"8":{"ha":872,"x_min":21,"x_max":851,"o":"m 435 -14 q 119 58 217 -14 q 21 272 21 131 q 47 382 21 329 q 111 464 72 435 q 60 537 79 494 q 42 624 42 579 q 81 775 42 711 q 207 874 121 839 q 435 908 293 908 q 667 874 581 908 q 792 775 754 839 q 831 624 831 711 q 813 535 831 581 q 763 460 794 490 q 827 380 803 428 q 851 272 851 332 q 753 58 851 131 q 435 -14 654 -14 m 467 546 q 513 617 513 567 q 494 661 513 644 q 435 678 476 678 q 360 617 360 678 q 403 558 360 567 l 467 546 m 435 217 q 510 235 488 217 q 533 279 533 253 q 519 319 533 303 q 471 343 506 336 l 390 360 q 353 336 367 353 q 339 290 339 319 q 361 236 339 256 q 435 217 383 217 z "},"9":{"ha":839,"x_min":21,"x_max":818,"o":"m 368 -14 q 230 -6 289 -14 q 114 24 171 1 l 114 267 q 217 236 167 244 q 331 228 268 228 q 464 256 422 228 q 506 310 506 283 l 506 318 q 433 294 479 304 q 344 283 386 283 q 97 360 174 283 q 21 583 21 436 q 59 750 21 676 q 185 866 97 824 q 417 908 272 908 q 725 813 632 908 q 818 535 818 717 l 818 382 q 765 181 818 271 q 612 38 713 90 q 368 -14 511 -14 m 411 513 q 458 519 435 513 q 506 538 482 526 l 506 582 q 484 656 506 635 q 414 678 463 678 q 319 596 319 678 q 340 534 319 556 q 411 513 360 513 z "},"A":{"ha":1079,"x_min":21,"x_max":1058,"o":"m 21 0 l 365 894 l 714 894 l 1058 0 l 708 0 l 644 167 l 435 167 l 371 0 l 21 0 m 471 396 l 607 396 l 539 567 l 471 396 z "},"Á":{"ha":1079,"x_min":21,"x_max":1058,"o":"m 411 956 l 544 1269 l 803 1269 l 657 956 l 411 956 m 21 0 l 365 894 l 714 894 l 1058 0 l 708 0 l 644 167 l 435 167 l 371 0 l 21 0 m 471 396 l 607 396 l 539 567 l 471 396 z "},"Ă":{"ha":1079,"x_min":21,"x_max":1058,"o":"m 539 956 q 317 1034 400 956 q 233 1261 233 1113 l 449 1261 q 468 1176 449 1214 q 539 1139 488 1139 q 611 1176 592 1139 q 631 1261 631 1214 l 846 1261 q 763 1034 846 1113 q 539 956 679 956 m 21 0 l 365 894 l 714 894 l 1058 0 l 708 0 l 644 167 l 435 167 l 371 0 l 21 0 m 471 396 l 607 396 l 539 567 l 471 396 z "},"Ắ":{"ha":1079,"x_min":21,"x_max":1058,"o":"m 444 1243 l 549 1482 l 765 1482 l 650 1243 l 444 1243 m 539 956 q 339 1019 414 956 q 264 1217 264 1082 l 450 1217 q 471 1147 450 1175 q 539 1118 492 1118 q 608 1147 588 1118 q 629 1217 629 1175 l 815 1217 q 740 1019 815 1082 q 539 956 665 956 m 21 0 l 365 894 l 714 894 l 1058 0 l 708 0 l 644 167 l 435 167 l 371 0 l 21 0 m 471 396 l 607 396 l 539 567 l 471 396 z "},"Ặ":{"ha":1079,"x_min":21,"x_max":1058,"o":"m 539 956 q 317 1034 400 956 q 233 1261 233 1113 l 449 1261 q 468 1176 449 1214 q 539 1139 488 1139 q 611 1176 592 1139 q 631 1261 631 1214 l 846 1261 q 763 1034 846 1113 q 539 956 679 956 m 21 0 l 365 894 l 714 894 l 1058 0 l 708 0 l 644 167 l 435 167 l 371 0 l 21 0 m 471 396 l 607 396 l 539 567 l 471 396 m 431 -296 l 431 -100 l 647 -100 l 647 -296 l 431 -296 z "},"Ằ":{"ha":1079,"x_min":21,"x_max":1058,"o":"m 429 1243 l 314 1482 l 531 1482 l 635 1243 l 429 1243 m 540 956 q 339 1019 414 956 q 264 1217 264 1082 l 450 1217 q 471 1147 450 1175 q 540 1118 492 1118 q 609 1147 589 1118 q 629 1217 629 1175 l 815 1217 q 740 1019 815 1082 q 540 956 665 956 m 21 0 l 365 894 l 714 894 l 1058 0 l 708 0 l 644 167 l 435 167 l 371 0 l 21 0 m 471 396 l 607 396 l 539 567 l 471 396 z "},"Ẳ":{"ha":1079,"x_min":21,"x_max":1058,"o":"m 429 1244 l 429 1332 q 507 1347 482 1335 q 532 1378 532 1360 q 517 1406 532 1399 q 471 1413 501 1413 q 435 1408 453 1413 q 404 1397 418 1403 l 404 1511 q 477 1524 432 1518 q 565 1529 522 1529 q 698 1492 651 1529 q 744 1401 744 1454 q 722 1326 744 1354 q 647 1282 700 1299 l 647 1244 l 429 1244 m 540 956 q 339 1019 414 956 q 264 1217 264 1082 l 450 1217 q 471 1147 450 1175 q 540 1118 492 1118 q 609 1147 589 1118 q 629 1217 629 1175 l 815 1217 q 740 1019 815 1082 q 540 956 665 956 m 21 0 l 365 894 l 714 894 l 1058 0 l 708 0 l 644 167 l 435 167 l 371 0 l 21 0 m 471 396 l 607 396 l 539 567 l 471 396 z "},"Ẵ":{"ha":1079,"x_min":21,"x_max":1058,"o":"m 682 1251 q 589 1266 635 1251 q 500 1295 543 1281 q 415 1310 457 1310 q 335 1294 369 1310 q 276 1256 300 1279 l 276 1429 q 333 1461 296 1447 q 411 1475 369 1475 q 503 1460 460 1475 q 590 1431 547 1446 q 678 1417 633 1417 q 758 1433 724 1417 q 808 1471 793 1449 l 808 1297 q 760 1265 796 1279 q 682 1251 724 1251 m 540 956 q 339 1019 414 956 q 264 1217 264 1082 l 450 1217 q 471 1147 450 1175 q 540 1118 492 1118 q 609 1147 589 1118 q 629 1217 629 1175 l 815 1217 q 740 1019 815 1082 q 540 956 665 956 m 21 0 l 365 894 l 714 894 l 1058 0 l 708 0 l 644 167 l 435 167 l 371 0 l 21 0 m 471 396 l 607 396 l 539 567 l 471 396 z "},"Ǎ":{"ha":1079,"x_min":21,"x_max":1058,"o":"m 442 956 l 199 1256 l 439 1256 l 540 1107 l 647 1256 l 881 1256 l 638 956 l 442 956 m 21 0 l 365 894 l 714 894 l 1058 0 l 708 0 l 644 167 l 435 167 l 371 0 l 21 0 m 471 396 l 607 396 l 539 567 l 471 396 z "},"Â":{"ha":1079,"x_min":21,"x_max":1058,"o":"m 199 956 l 442 1256 l 638 1256 l 881 956 l 647 956 l 540 1104 l 439 956 l 199 956 m 21 0 l 365 894 l 714 894 l 1058 0 l 708 0 l 644 167 l 435 167 l 371 0 l 21 0 m 471 396 l 607 396 l 539 567 l 471 396 z "},"Ấ":{"ha":1079,"x_min":21,"x_max":1078,"o":"m 729 1139 l 833 1378 l 1078 1378 l 963 1139 l 729 1139 m 189 956 l 408 1189 l 651 1189 l 871 956 l 608 956 l 531 1061 l 457 956 l 189 956 m 21 0 l 365 894 l 714 894 l 1058 0 l 708 0 l 644 167 l 435 167 l 371 0 l 21 0 m 471 396 l 607 396 l 539 567 l 471 396 z "},"Ậ":{"ha":1079,"x_min":21,"x_max":1058,"o":"m 200 956 l 443 1256 l 639 1256 l 882 956 l 649 956 l 542 1104 l 440 956 l 200 956 m 21 0 l 365 894 l 714 894 l 1058 0 l 708 0 l 644 167 l 435 167 l 371 0 l 21 0 m 471 396 l 607 396 l 539 567 l 471 396 m 431 -296 l 431 -100 l 647 -100 l 647 -296 l 431 -296 z "},"Ầ":{"ha":1079,"x_min":-7,"x_max":1058,"o":"m 108 1139 l -7 1378 l 238 1378 l 342 1139 l 108 1139 m 200 956 l 419 1189 l 663 1189 l 882 956 l 614 956 l 540 1061 l 463 956 l 200 956 m 21 0 l 365 894 l 714 894 l 1058 0 l 708 0 l 644 167 l 435 167 l 371 0 l 21 0 m 471 396 l 607 396 l 539 567 l 471 396 z "},"Ẩ":{"ha":1079,"x_min":21,"x_max":1065,"o":"m 750 1107 l 750 1218 q 821 1229 803 1221 q 839 1250 839 1238 q 792 1271 839 1271 q 756 1267 774 1271 q 725 1257 739 1263 l 725 1385 q 794 1397 753 1392 q 886 1401 835 1401 q 1019 1364 972 1401 q 1065 1274 1065 1326 q 1042 1193 1065 1226 q 968 1150 1018 1160 l 968 1107 l 750 1107 m 194 956 l 414 1189 l 657 1189 l 876 956 l 614 956 l 536 1061 l 463 956 l 194 956 m 21 0 l 365 894 l 714 894 l 1058 0 l 708 0 l 644 167 l 435 167 l 371 0 l 21 0 m 471 396 l 607 396 l 539 567 l 471 396 z "},"Ẫ":{"ha":1079,"x_min":21,"x_max":1058,"o":"m 689 1210 q 596 1224 642 1210 q 507 1253 550 1239 q 422 1268 464 1268 q 342 1253 376 1268 q 283 1214 307 1238 l 283 1401 q 340 1433 303 1419 q 418 1447 376 1447 q 510 1433 467 1447 q 597 1403 554 1418 q 685 1389 640 1389 q 765 1405 731 1389 q 815 1443 800 1421 l 815 1256 q 767 1224 803 1238 q 689 1210 731 1210 m 199 956 l 418 1189 l 661 1189 l 881 956 l 618 956 l 540 1061 l 467 956 l 199 956 m 21 0 l 365 894 l 714 894 l 1058 0 l 708 0 l 644 167 l 435 167 l 371 0 l 21 0 m 471 396 l 607 396 l 539 567 l 471 396 z "},"Ä":{"ha":1079,"x_min":21,"x_max":1058,"o":"m 268 996 l 268 1192 l 485 1192 l 485 996 l 268 996 m 594 996 l 594 1192 l 811 1192 l 811 996 l 594 996 m 21 0 l 365 894 l 714 894 l 1058 0 l 708 0 l 644 167 l 435 167 l 371 0 l 21 0 m 471 396 l 607 396 l 539 567 l 471 396 z "},"Ạ":{"ha":1079,"x_min":21,"x_max":1058,"o":"m 21 0 l 365 894 l 714 894 l 1058 0 l 708 0 l 644 167 l 435 167 l 371 0 l 21 0 m 471 396 l 607 396 l 539 567 l 471 396 m 432 -296 l 432 -100 l 649 -100 l 649 -296 l 432 -296 z "},"À":{"ha":1079,"x_min":21,"x_max":1058,"o":"m 413 956 l 267 1269 l 525 1269 l 658 956 l 413 956 m 21 0 l 365 894 l 714 894 l 1058 0 l 708 0 l 644 167 l 435 167 l 371 0 l 21 0 m 471 396 l 607 396 l 539 567 l 471 396 z "},"Ả":{"ha":1079,"x_min":21,"x_max":1058,"o":"m 422 956 l 422 1068 q 515 1087 490 1072 q 540 1122 540 1101 q 471 1161 540 1161 q 393 1147 428 1161 l 393 1278 q 470 1293 426 1288 q 574 1299 514 1299 q 729 1256 675 1299 q 783 1150 783 1213 q 757 1056 783 1088 q 669 1006 731 1025 l 669 956 l 422 956 m 21 0 l 365 894 l 714 894 l 1058 0 l 708 0 l 644 167 l 435 167 l 371 0 l 21 0 m 471 396 l 607 396 l 539 567 l 471 396 z "},"Ā":{"ha":1079,"x_min":21,"x_max":1058,"o":"m 297 969 l 297 1164 l 782 1164 l 782 969 l 297 969 m 21 0 l 365 894 l 714 894 l 1058 0 l 708 0 l 644 167 l 435 167 l 371 0 l 21 0 m 471 396 l 607 396 l 539 567 l 471 396 z "},"Ą":{"ha":1079,"x_min":21,"x_max":1058,"o":"m 21 0 l 365 894 l 714 894 l 1058 0 l 979 0 q 931 -49 950 -22 q 911 -106 911 -75 q 928 -140 911 -132 q 976 -149 946 -149 q 1015 -144 994 -149 q 1047 -133 1035 -140 l 1047 -281 q 978 -297 1024 -289 q 881 -306 933 -306 q 731 -271 786 -306 q 675 -161 675 -236 q 706 -65 675 -107 q 779 0 736 -24 l 708 0 l 644 167 l 435 167 l 371 0 l 21 0 m 471 396 l 607 396 l 539 567 l 471 396 z "},"Å":{"ha":1079,"x_min":21,"x_max":1058,"o":"m 21 0 l 365 893 q 326 1015 326 943 q 381 1158 326 1100 q 539 1215 435 1215 q 699 1158 644 1215 q 753 1015 753 1100 q 714 893 753 943 l 1058 0 l 708 0 l 644 167 l 435 167 l 371 0 l 21 0 m 539 944 q 596 966 578 944 q 614 1015 614 988 q 596 1065 614 1043 q 539 1086 578 1086 q 482 1065 500 1086 q 464 1015 464 1043 q 482 966 464 988 q 539 944 500 944 m 471 396 l 607 396 l 539 567 l 471 396 z "},"Ǻ":{"ha":1079,"x_min":21,"x_max":1058,"o":"m 408 1260 l 542 1510 l 800 1510 l 654 1260 l 408 1260 m 21 0 l 365 893 q 326 1015 326 943 q 381 1158 326 1100 q 539 1215 435 1215 q 699 1158 644 1215 q 753 1015 753 1100 q 714 893 753 943 l 1058 0 l 708 0 l 644 167 l 435 167 l 371 0 l 21 0 m 539 944 q 596 966 578 944 q 614 1015 614 988 q 596 1065 614 1043 q 539 1086 578 1086 q 482 1065 500 1086 q 464 1015 464 1043 q 482 966 464 988 q 539 944 500 944 m 471 396 l 607 396 l 539 567 l 471 396 z "},"Ã":{"ha":1079,"x_min":21,"x_max":1058,"o":"m 686 963 q 588 978 636 963 q 495 1008 540 993 q 407 1024 450 1024 q 323 1008 360 1024 q 261 967 286 992 l 261 1163 q 321 1197 282 1182 q 403 1211 360 1211 q 499 1196 454 1211 q 590 1165 544 1181 q 682 1150 635 1150 q 766 1167 731 1150 q 818 1207 801 1185 l 818 1011 q 767 978 804 993 q 686 963 731 963 m 21 0 l 365 894 l 714 894 l 1058 0 l 708 0 l 644 167 l 435 167 l 371 0 l 21 0 m 471 396 l 607 396 l 539 567 l 471 396 z "},"Æ":{"ha":1214,"x_min":21,"x_max":1193,"o":"m 21 0 l 365 894 l 1193 894 l 1193 653 l 883 653 l 883 572 l 1140 572 l 1140 322 l 883 322 l 883 242 l 1193 242 l 1193 0 l 561 0 l 561 167 l 435 167 l 371 0 l 21 0 m 471 396 l 561 396 l 561 653 l 553 653 l 471 396 z "},"Ǽ":{"ha":1214,"x_min":21,"x_max":1193,"o":"m 567 956 l 700 1269 l 958 1269 l 813 956 l 567 956 m 21 0 l 365 894 l 1193 894 l 1193 653 l 883 653 l 883 572 l 1140 572 l 1140 322 l 883 322 l 883 242 l 1193 242 l 1193 0 l 561 0 l 561 167 l 435 167 l 371 0 l 21 0 m 471 396 l 561 396 l 561 653 l 553 653 l 471 396 z "},"B":{"ha":913,"x_min":49,"x_max":899,"o":"m 49 0 l 49 894 l 579 894 q 792 829 717 894 q 868 642 868 764 q 845 528 868 575 q 785 453 822 481 q 868 388 838 428 q 899 271 899 349 q 816 72 899 144 q 585 0 733 0 l 49 0 m 364 551 l 489 551 q 556 611 556 551 q 489 667 556 667 l 364 667 l 364 551 m 364 228 l 489 228 q 556 288 556 228 q 489 343 556 343 l 364 343 l 364 228 z "},"C":{"ha":858,"x_min":21,"x_max":838,"o":"m 556 -14 q 156 103 292 -14 q 21 447 21 219 q 155 792 21 675 q 553 908 289 908 q 705 896 639 908 q 835 860 771 883 l 835 567 q 575 625 708 625 q 421 587 478 625 q 364 447 364 549 q 422 308 364 346 q 578 269 481 269 q 838 328 711 269 l 838 35 q 708 -1 774 13 q 556 -14 642 -14 z "},"Ć":{"ha":858,"x_min":21,"x_max":838,"o":"m 401 956 l 535 1269 l 793 1269 l 647 956 l 401 956 m 556 -14 q 156 103 292 -14 q 21 447 21 219 q 155 792 21 675 q 553 908 289 908 q 705 896 639 908 q 835 860 771 883 l 835 567 q 575 625 708 625 q 421 587 478 625 q 364 447 364 549 q 422 308 364 346 q 578 269 481 269 q 838 328 711 269 l 838 35 q 708 -1 774 13 q 556 -14 642 -14 z "},"Č":{"ha":858,"x_min":21,"x_max":875,"o":"m 436 956 l 193 1256 l 433 1256 l 535 1107 l 642 1256 l 875 1256 l 632 956 l 436 956 m 556 -14 q 156 103 292 -14 q 21 447 21 219 q 155 792 21 675 q 553 908 289 908 q 705 896 639 908 q 835 860 771 883 l 835 567 q 575 625 708 625 q 421 587 478 625 q 364 447 364 549 q 422 308 364 346 q 578 269 481 269 q 838 328 711 269 l 838 35 q 708 -1 774 13 q 556 -14 642 -14 z "},"Ç":{"ha":858,"x_min":21,"x_max":838,"o":"m 517 -333 q 475 -332 500 -333 q 428 -328 450 -331 q 394 -322 406 -325 l 394 -215 q 475 -226 435 -226 q 568 -178 568 -226 q 554 -147 568 -156 q 517 -139 540 -139 l 414 -139 l 450 -8 q 130 128 239 14 q 21 447 21 243 q 155 792 21 675 q 553 908 289 908 q 705 896 639 908 q 835 860 771 883 l 835 567 q 575 625 708 625 q 421 587 478 625 q 364 447 364 549 q 422 308 364 346 q 578 269 481 269 q 838 328 711 269 l 838 35 q 733 4 786 17 q 617 -12 681 -8 l 603 -51 q 713 -90 672 -51 q 753 -185 753 -128 q 694 -293 753 -253 q 517 -333 635 -333 z "},"Ĉ":{"ha":858,"x_min":21,"x_max":838,"o":"m 140 956 l 383 1256 l 579 1256 l 822 956 l 589 956 l 482 1104 l 381 956 l 140 956 m 556 -14 q 156 103 292 -14 q 21 447 21 219 q 155 792 21 675 q 553 908 289 908 q 705 896 639 908 q 835 860 771 883 l 835 567 q 575 625 708 625 q 421 587 478 625 q 364 447 364 549 q 422 308 364 346 q 578 269 481 269 q 838 328 711 269 l 838 35 q 708 -1 774 13 q 556 -14 642 -14 z "},"Ċ":{"ha":858,"x_min":21,"x_max":838,"o":"m 400 997 l 400 1193 l 617 1193 l 617 997 l 400 997 m 556 -14 q 156 103 292 -14 q 21 447 21 219 q 155 792 21 675 q 553 908 289 908 q 705 896 639 908 q 835 860 771 883 l 835 567 q 575 625 708 625 q 421 587 478 625 q 364 447 364 549 q 422 308 364 346 q 578 269 481 269 q 838 328 711 269 l 838 35 q 708 -1 774 13 q 556 -14 642 -14 z "},"D":{"ha":951,"x_min":49,"x_max":938,"o":"m 49 0 l 49 894 l 474 894 q 719 849 615 894 q 881 705 824 804 q 938 442 938 606 q 881 189 938 286 q 722 46 825 92 q 474 0 618 0 l 49 0 m 385 256 l 435 256 q 521 269 485 256 q 576 324 557 283 q 596 442 596 364 q 578 558 596 519 q 524 608 560 596 q 435 619 489 619 l 385 619 l 385 256 z "},"Ð":{"ha":1019,"x_min":-7,"x_max":999,"o":"m 110 0 l 110 331 l -7 331 l -7 544 l 110 544 l 110 894 l 535 894 q 781 849 676 894 q 942 705 885 804 q 999 442 999 606 q 942 189 999 286 q 783 46 886 92 q 535 0 679 0 l 110 0 m 446 256 l 496 256 q 582 269 546 256 q 638 324 618 283 q 657 442 657 364 q 639 558 657 519 q 585 608 621 596 q 496 619 550 619 l 446 619 l 446 544 l 531 544 l 531 331 l 446 331 l 446 256 z "},"Ď":{"ha":958,"x_min":49,"x_max":938,"o":"m 328 956 l 85 1256 l 325 1256 l 426 1107 l 533 1256 l 767 1256 l 524 956 l 328 956 m 49 0 l 49 894 l 474 894 q 719 849 615 894 q 881 705 824 804 q 938 442 938 606 q 881 189 938 286 q 722 46 825 92 q 474 0 618 0 l 49 0 m 385 256 l 435 256 q 521 269 485 256 q 576 324 557 283 q 596 442 596 364 q 578 558 596 519 q 524 608 560 596 q 435 619 489 619 l 385 619 l 385 256 z "},"Đ":{"ha":1006,"x_min":-21,"x_max":985,"o":"m 96 0 l 96 331 l -21 331 l -21 544 l 96 544 l 96 894 l 521 894 q 767 849 663 894 q 928 705 871 804 q 985 442 985 606 q 928 189 985 286 q 769 46 872 92 q 521 0 665 0 l 96 0 m 432 256 l 482 256 q 568 269 532 256 q 624 324 604 283 q 643 442 643 364 q 625 558 643 519 q 572 608 607 596 q 482 619 536 619 l 432 619 l 432 544 l 517 544 l 517 331 l 432 331 l 432 256 z "},"Ḍ":{"ha":958,"x_min":49,"x_max":938,"o":"m 49 0 l 49 894 l 474 894 q 719 849 615 894 q 881 705 824 804 q 938 442 938 606 q 881 189 938 286 q 722 46 825 92 q 474 0 618 0 l 49 0 m 385 256 l 435 256 q 521 269 485 256 q 576 324 557 283 q 596 442 596 364 q 578 558 596 519 q 524 608 560 596 q 435 619 489 619 l 385 619 l 385 256 m 319 -296 l 319 -100 l 536 -100 l 536 -296 l 319 -296 z "},"Ḏ":{"ha":958,"x_min":49,"x_max":938,"o":"m 49 0 l 49 894 l 474 894 q 719 849 615 894 q 881 705 824 804 q 938 442 938 606 q 881 189 938 286 q 722 46 825 92 q 474 0 618 0 l 49 0 m 385 256 l 435 256 q 521 269 485 256 q 576 324 557 283 q 596 442 596 364 q 578 558 596 519 q 524 608 560 596 q 435 619 489 619 l 385 619 l 385 256 m 128 -267 l 128 -72 l 613 -72 l 613 -267 l 128 -267 z "},"E":{"ha":771,"x_min":49,"x_max":764,"o":"m 49 0 l 49 894 l 764 894 l 764 653 l 385 653 l 385 572 l 711 572 l 711 322 l 385 322 l 385 242 l 764 242 l 764 0 l 49 0 z "},"É":{"ha":771,"x_min":49,"x_max":764,"o":"m 247 956 l 381 1269 l 639 1269 l 493 956 l 247 956 m 49 0 l 49 894 l 764 894 l 764 653 l 385 653 l 385 572 l 711 572 l 711 322 l 385 322 l 385 242 l 764 242 l 764 0 l 49 0 z "},"Ĕ":{"ha":771,"x_min":49,"x_max":764,"o":"m 408 956 q 186 1034 269 956 q 103 1261 103 1113 l 318 1261 q 338 1176 318 1214 q 408 1139 357 1139 q 481 1176 461 1139 q 500 1261 500 1214 l 715 1261 q 632 1034 715 1113 q 408 956 549 956 m 49 0 l 49 894 l 764 894 l 764 653 l 385 653 l 385 572 l 711 572 l 711 322 l 385 322 l 385 242 l 764 242 l 764 0 l 49 0 z "},"Ě":{"ha":771,"x_min":49,"x_max":764,"o":"m 314 956 l 71 1256 l 311 1256 l 413 1107 l 519 1256 l 753 1256 l 510 956 l 314 956 m 49 0 l 49 894 l 764 894 l 764 653 l 385 653 l 385 572 l 711 572 l 711 322 l 385 322 l 385 242 l 764 242 l 764 0 l 49 0 z "},"Ê":{"ha":771,"x_min":49,"x_max":764,"o":"m 67 956 l 310 1256 l 506 1256 l 749 956 l 515 956 l 408 1104 l 307 956 l 67 956 m 49 0 l 49 894 l 764 894 l 764 653 l 385 653 l 385 572 l 711 572 l 711 322 l 385 322 l 385 242 l 764 242 l 764 0 l 49 0 z "},"Ế":{"ha":771,"x_min":49,"x_max":963,"o":"m 614 1139 l 718 1378 l 963 1378 l 847 1139 l 614 1139 m 74 956 l 293 1189 l 536 1189 l 756 956 l 493 956 l 415 1061 l 342 956 l 74 956 m 49 0 l 49 894 l 764 894 l 764 653 l 385 653 l 385 572 l 711 572 l 711 322 l 385 322 l 385 242 l 764 242 l 764 0 l 49 0 z "},"Ệ":{"ha":771,"x_min":49,"x_max":764,"o":"m 63 956 l 306 1256 l 501 1256 l 744 956 l 511 956 l 404 1104 l 303 956 l 63 956 m 49 0 l 49 894 l 764 894 l 764 653 l 385 653 l 385 572 l 711 572 l 711 322 l 385 322 l 385 242 l 764 242 l 764 0 l 49 0 m 296 -296 l 296 -100 l 513 -100 l 513 -296 l 296 -296 z "},"Ề":{"ha":771,"x_min":-137,"x_max":764,"o":"m -22 1139 l -137 1378 l 107 1378 l 211 1139 l -22 1139 m 69 956 l 289 1189 l 532 1189 l 751 956 l 483 956 l 410 1061 l 332 956 l 69 956 m 49 0 l 49 894 l 764 894 l 764 653 l 385 653 l 385 572 l 711 572 l 711 322 l 385 322 l 385 242 l 764 242 l 764 0 l 49 0 z "},"Ể":{"ha":771,"x_min":49,"x_max":933,"o":"m 618 1107 l 618 1218 q 689 1229 671 1221 q 707 1250 707 1238 q 660 1271 707 1271 q 624 1267 642 1271 q 593 1257 607 1263 l 593 1385 q 662 1397 621 1392 q 754 1401 703 1401 q 887 1364 840 1401 q 933 1274 933 1326 q 910 1193 933 1226 q 836 1150 886 1160 l 836 1107 l 618 1107 m 63 956 l 282 1189 l 525 1189 l 744 956 l 482 956 l 404 1061 l 331 956 l 63 956 m 49 0 l 49 894 l 764 894 l 764 653 l 385 653 l 385 572 l 711 572 l 711 322 l 385 322 l 385 242 l 764 242 l 764 0 l 49 0 z "},"Ễ":{"ha":771,"x_min":49,"x_max":764,"o":"m 553 1210 q 460 1224 506 1210 q 371 1253 414 1239 q 286 1268 328 1268 q 206 1253 240 1268 q 147 1214 171 1238 l 147 1401 q 203 1433 167 1419 q 282 1447 240 1447 q 374 1433 331 1447 q 461 1403 418 1418 q 549 1389 504 1389 q 629 1405 594 1389 q 679 1443 664 1421 l 679 1256 q 631 1224 667 1238 q 553 1210 594 1210 m 63 956 l 282 1189 l 525 1189 l 744 956 l 482 956 l 404 1061 l 331 956 l 63 956 m 49 0 l 49 894 l 764 894 l 764 653 l 385 653 l 385 572 l 711 572 l 711 322 l 385 322 l 385 242 l 764 242 l 764 0 l 49 0 z "},"Ë":{"ha":771,"x_min":49,"x_max":764,"o":"m 140 997 l 140 1193 l 357 1193 l 357 997 l 140 997 m 467 997 l 467 1193 l 683 1193 l 683 997 l 467 997 m 49 0 l 49 894 l 764 894 l 764 653 l 385 653 l 385 572 l 711 572 l 711 322 l 385 322 l 385 242 l 764 242 l 764 0 l 49 0 z "},"Ė":{"ha":771,"x_min":49,"x_max":764,"o":"m 290 997 l 290 1193 l 507 1193 l 507 997 l 290 997 m 49 0 l 49 894 l 764 894 l 764 653 l 385 653 l 385 572 l 711 572 l 711 322 l 385 322 l 385 242 l 764 242 l 764 0 l 49 0 z "},"Ẹ":{"ha":771,"x_min":49,"x_max":764,"o":"m 49 0 l 49 894 l 764 894 l 764 653 l 385 653 l 385 572 l 711 572 l 711 322 l 385 322 l 385 242 l 764 242 l 764 0 l 49 0 m 283 -296 l 283 -100 l 500 -100 l 500 -296 l 283 -296 z "},"È":{"ha":771,"x_min":49,"x_max":764,"o":"m 308 956 l 163 1269 l 421 1269 l 554 956 l 308 956 m 49 0 l 49 894 l 764 894 l 764 653 l 385 653 l 385 572 l 711 572 l 711 322 l 385 322 l 385 242 l 764 242 l 764 0 l 49 0 z "},"Ẻ":{"ha":771,"x_min":49,"x_max":764,"o":"m 282 956 l 282 1068 q 375 1087 350 1072 q 400 1122 400 1101 q 331 1161 400 1161 q 253 1147 288 1161 l 253 1278 q 330 1293 286 1288 q 433 1299 374 1299 q 589 1256 535 1299 q 643 1150 643 1213 q 617 1056 643 1088 q 529 1006 590 1025 l 529 956 l 282 956 m 49 0 l 49 894 l 764 894 l 764 653 l 385 653 l 385 572 l 711 572 l 711 322 l 385 322 l 385 242 l 764 242 l 764 0 l 49 0 z "},"Ē":{"ha":771,"x_min":49,"x_max":764,"o":"m 143 1011 l 143 1206 l 628 1206 l 628 1011 l 143 1011 m 49 0 l 49 894 l 764 894 l 764 653 l 385 653 l 385 572 l 711 572 l 711 322 l 385 322 l 385 242 l 764 242 l 764 0 l 49 0 z "},"Ę":{"ha":771,"x_min":49,"x_max":764,"o":"m 49 0 l 49 894 l 764 894 l 764 653 l 385 653 l 385 572 l 711 572 l 711 322 l 385 322 l 385 242 l 764 242 l 764 0 l 674 0 q 625 -49 644 -22 q 606 -106 606 -75 q 623 -140 606 -132 q 671 -149 640 -149 q 709 -144 689 -149 q 742 -133 729 -140 l 742 -281 q 673 -297 718 -289 q 575 -306 628 -306 q 425 -271 481 -306 q 369 -161 369 -236 q 400 -65 369 -107 q 474 0 431 -24 l 49 0 z "},"Ẽ":{"ha":771,"x_min":49,"x_max":764,"o":"m 551 963 q 453 978 501 963 q 360 1008 406 993 q 272 1024 315 1024 q 188 1008 225 1024 q 126 967 151 992 l 126 1163 q 186 1197 147 1182 q 268 1211 225 1211 q 365 1196 319 1211 q 455 1165 410 1181 q 547 1150 500 1150 q 631 1167 596 1150 q 683 1207 667 1185 l 683 1011 q 633 978 669 993 q 551 963 596 963 m 49 0 l 49 894 l 764 894 l 764 653 l 385 653 l 385 572 l 711 572 l 711 322 l 385 322 l 385 242 l 764 242 l 764 0 l 49 0 z "},"F":{"ha":764,"x_min":49,"x_max":764,"o":"m 49 0 l 49 894 l 764 894 l 764 653 l 385 653 l 385 572 l 711 572 l 711 322 l 385 322 l 385 0 l 49 0 z "},"G":{"ha":935,"x_min":21,"x_max":900,"o":"m 542 -14 q 155 103 289 -14 q 21 447 21 219 q 161 792 21 675 q 565 908 301 908 q 720 899 651 908 q 853 868 789 890 l 853 582 q 723 616 789 607 q 588 625 657 625 q 427 587 490 625 q 364 447 364 549 q 409 308 364 346 q 539 269 454 269 q 622 279 583 269 l 622 333 l 474 333 l 474 536 l 900 536 l 900 74 q 754 13 843 39 q 542 -14 665 -14 z "},"Ğ":{"ha":921,"x_min":21,"x_max":900,"o":"m 538 956 q 315 1034 399 956 q 232 1261 232 1113 l 447 1261 q 467 1176 447 1214 q 538 1139 486 1139 q 610 1176 590 1139 q 629 1261 629 1214 l 844 1261 q 761 1034 844 1113 q 538 956 678 956 m 542 -14 q 155 103 289 -14 q 21 447 21 219 q 161 792 21 675 q 565 908 301 908 q 720 899 651 908 q 853 868 789 890 l 853 582 q 723 616 789 607 q 588 625 657 625 q 427 587 490 625 q 364 447 364 549 q 409 308 364 346 q 539 269 454 269 q 622 279 583 269 l 622 333 l 474 333 l 474 536 l 900 536 l 900 74 q 754 13 843 39 q 542 -14 665 -14 z "},"Ǧ":{"ha":921,"x_min":21,"x_max":900,"o":"m 431 954 l 188 1254 l 428 1254 l 529 1106 l 636 1254 l 869 1254 l 626 954 l 431 954 m 542 -14 q 155 103 289 -14 q 21 447 21 219 q 161 792 21 675 q 565 908 301 908 q 720 899 651 908 q 853 868 789 890 l 853 582 q 723 616 789 607 q 588 625 657 625 q 427 587 490 625 q 364 447 364 549 q 409 308 364 346 q 539 269 454 269 q 622 279 583 269 l 622 333 l 474 333 l 474 536 l 900 536 l 900 74 q 754 13 843 39 q 542 -14 665 -14 z "},"Ĝ":{"ha":921,"x_min":21,"x_max":900,"o":"m 171 956 l 414 1256 l 610 1256 l 853 956 l 619 956 l 513 1104 l 411 956 l 171 956 m 542 -14 q 155 103 289 -14 q 21 447 21 219 q 161 792 21 675 q 565 908 301 908 q 720 899 651 908 q 853 868 789 890 l 853 582 q 723 616 789 607 q 588 625 657 625 q 427 587 490 625 q 364 447 364 549 q 409 308 364 346 q 539 269 454 269 q 622 279 583 269 l 622 333 l 474 333 l 474 536 l 900 536 l 900 74 q 754 13 843 39 q 542 -14 665 -14 z "},"Ģ":{"ha":921,"x_min":21,"x_max":900,"o":"m 542 -14 q 155 103 289 -14 q 21 447 21 219 q 161 792 21 675 q 565 908 301 908 q 720 899 651 908 q 853 868 789 890 l 853 582 q 723 616 789 607 q 588 625 657 625 q 427 587 490 625 q 364 447 364 549 q 409 308 364 346 q 539 269 454 269 q 622 279 583 269 l 622 333 l 474 333 l 474 536 l 900 536 l 900 74 q 754 13 843 39 q 542 -14 665 -14 m 383 -397 l 435 -51 l 683 -51 l 593 -397 l 383 -397 z "},"Ġ":{"ha":921,"x_min":21,"x_max":900,"o":"m 446 997 l 446 1193 l 663 1193 l 663 997 l 446 997 m 542 -14 q 155 103 289 -14 q 21 447 21 219 q 161 792 21 675 q 565 908 301 908 q 720 899 651 908 q 853 868 789 890 l 853 582 q 723 616 789 607 q 588 625 657 625 q 427 587 490 625 q 364 447 364 549 q 409 308 364 346 q 539 269 454 269 q 622 279 583 269 l 622 333 l 474 333 l 474 536 l 900 536 l 900 74 q 754 13 843 39 q 542 -14 665 -14 z "},"Ḡ":{"ha":921,"x_min":21,"x_max":900,"o":"m 303 997 l 303 1192 l 788 1192 l 788 997 l 303 997 m 542 -14 q 155 103 289 -14 q 21 447 21 219 q 161 792 21 675 q 565 908 301 908 q 720 899 651 908 q 853 868 789 890 l 853 582 q 723 616 789 607 q 588 625 657 625 q 427 587 490 625 q 364 447 364 549 q 409 308 364 346 q 539 269 454 269 q 622 279 583 269 l 622 333 l 474 333 l 474 536 l 900 536 l 900 74 q 754 13 843 39 q 542 -14 665 -14 z "},"H":{"ha":993,"x_min":49,"x_max":944,"o":"m 49 0 l 49 894 l 385 894 l 385 603 l 608 603 l 608 894 l 944 894 l 944 0 l 608 0 l 608 292 l 385 292 l 385 0 l 49 0 z "},"Ħ":{"ha":1024,"x_min":21,"x_max":1003,"o":"m 64 0 l 64 667 l 21 667 l 21 826 l 64 826 l 64 894 l 400 894 l 400 826 l 624 826 l 624 894 l 960 894 l 960 826 l 1003 826 l 1003 667 l 960 667 l 960 0 l 624 0 l 624 292 l 400 292 l 400 0 l 64 0 m 400 603 l 624 603 l 624 667 l 400 667 l 400 603 z "},"Ḫ":{"ha":993,"x_min":49,"x_max":944,"o":"m 49 0 l 49 894 l 385 894 l 385 603 l 608 603 l 608 894 l 944 894 l 944 0 l 608 0 l 608 292 l 385 292 l 385 0 l 49 0 m 497 -361 q 275 -283 358 -361 q 192 -56 192 -204 l 407 -56 q 426 -140 407 -103 q 497 -178 446 -178 q 569 -140 550 -178 q 589 -56 589 -103 l 804 -56 q 721 -283 804 -204 q 497 -361 638 -361 z "},"Ĥ":{"ha":993,"x_min":49,"x_max":944,"o":"m 154 956 l 397 1256 l 593 1256 l 836 956 l 603 956 l 496 1104 l 394 956 l 154 956 m 49 0 l 49 894 l 385 894 l 385 603 l 608 603 l 608 894 l 944 894 l 944 0 l 608 0 l 608 292 l 385 292 l 385 0 l 49 0 z "},"Ḥ":{"ha":993,"x_min":49,"x_max":944,"o":"m 49 0 l 49 894 l 385 894 l 385 603 l 608 603 l 608 894 l 944 894 l 944 0 l 608 0 l 608 292 l 385 292 l 385 0 l 49 0 m 386 -296 l 386 -100 l 603 -100 l 603 -296 l 386 -296 z "},"I":{"ha":433,"x_min":49,"x_max":385,"o":"m 49 0 l 49 894 l 385 894 l 385 0 l 49 0 z "},"Ĳ":{"ha":1069,"x_min":49,"x_max":1028,"o":"m 646 -14 q 531 -7 586 -14 q 421 18 475 0 l 421 297 q 496 277 456 283 q 576 271 536 271 q 665 296 639 271 q 692 382 692 321 l 692 894 l 1028 894 l 1028 300 q 929 65 1028 143 q 646 -14 831 -14 m 49 0 l 49 894 l 385 894 l 385 0 l 49 0 z "},"Í":{"ha":433,"x_min":49,"x_max":479,"o":"m 88 956 l 221 1269 l 479 1269 l 333 956 l 88 956 m 49 0 l 49 894 l 385 894 l 385 0 l 49 0 z "},"Ĭ":{"ha":433,"x_min":-89,"x_max":524,"o":"m 217 992 q -6 1070 78 992 q -89 1297 -89 1149 l 126 1297 q 146 1213 126 1250 q 217 1175 165 1175 q 289 1213 269 1175 q 308 1297 308 1250 l 524 1297 q 440 1070 524 1149 q 217 992 357 992 m 49 0 l 49 894 l 385 894 l 385 0 l 49 0 z "},"Ǐ":{"ha":433,"x_min":-124,"x_max":558,"o":"m 119 956 l -124 1256 l 117 1256 l 218 1107 l 325 1256 l 558 1256 l 315 956 l 119 956 m 49 0 l 49 894 l 385 894 l 385 0 l 49 0 z "},"Î":{"ha":433,"x_min":-124,"x_max":558,"o":"m -124 956 l 119 1256 l 315 1256 l 558 956 l 325 956 l 218 1104 l 117 956 l -124 956 m 49 0 l 49 894 l 385 894 l 385 0 l 49 0 z "},"Ï":{"ha":433,"x_min":-54,"x_max":489,"o":"m -54 1011 l -54 1207 l 163 1207 l 163 1011 l -54 1011 m 272 1011 l 272 1207 l 489 1207 l 489 1011 l 272 1011 m 49 0 l 49 894 l 385 894 l 385 0 l 49 0 z "},"İ":{"ha":433,"x_min":49,"x_max":385,"o":"m 108 1011 l 108 1207 l 325 1207 l 325 1011 l 108 1011 m 49 0 l 49 894 l 385 894 l 385 0 l 49 0 z "},"Ị":{"ha":433,"x_min":49,"x_max":385,"o":"m 49 0 l 49 894 l 385 894 l 385 0 l 49 0 m 108 -296 l 108 -100 l 325 -100 l 325 -296 l 108 -296 z "},"Ì":{"ha":433,"x_min":-54,"x_max":385,"o":"m 92 956 l -54 1269 l 204 1269 l 338 956 l 92 956 m 49 0 l 49 894 l 385 894 l 385 0 l 49 0 z "},"Ỉ":{"ha":433,"x_min":49,"x_max":451,"o":"m 90 956 l 90 1068 q 183 1087 158 1072 q 208 1122 208 1101 q 139 1161 208 1161 q 61 1147 96 1161 l 61 1278 q 138 1293 94 1288 q 242 1299 182 1299 q 397 1256 343 1299 q 451 1150 451 1213 q 425 1056 451 1088 q 338 1006 399 1025 l 338 956 l 90 956 m 49 0 l 49 894 l 385 894 l 385 0 l 49 0 z "},"Ī":{"ha":433,"x_min":-25,"x_max":460,"o":"m -25 1011 l -25 1206 l 460 1206 l 460 1011 l -25 1011 m 49 0 l 49 894 l 385 894 l 385 0 l 49 0 z "},"Į":{"ha":433,"x_min":13,"x_max":385,"o":"m 49 0 l 49 894 l 385 894 l 385 0 l 317 0 q 268 -49 288 -22 q 249 -106 249 -75 q 266 -140 249 -132 q 314 -149 283 -149 q 352 -144 332 -149 q 385 -133 372 -140 l 385 -281 q 316 -297 361 -289 q 218 -306 271 -306 q 68 -271 124 -306 q 13 -161 13 -236 q 43 -65 13 -107 q 117 0 74 -24 l 49 0 z "},"Ĩ":{"ha":433,"x_min":-61,"x_max":496,"o":"m 364 1004 q 266 1019 314 1004 q 173 1050 218 1035 q 85 1065 128 1065 q 1 1049 38 1065 q -61 1008 -36 1033 l -61 1204 q -1 1238 -40 1224 q 81 1253 38 1253 q 177 1238 132 1253 q 267 1207 222 1222 q 360 1192 313 1192 q 444 1209 408 1192 q 496 1249 479 1226 l 496 1053 q 445 1019 482 1035 q 364 1004 408 1004 m 49 0 l 49 894 l 385 894 l 385 0 l 49 0 z "},"J":{"ha":649,"x_min":0,"x_max":607,"o":"m 225 -14 q 110 -7 165 -14 q 0 18 54 0 l 0 297 q 75 277 35 283 q 156 271 115 271 q 244 296 218 271 q 271 382 271 321 l 271 894 l 607 894 l 607 300 q 508 65 607 143 q 225 -14 410 -14 z "},"Ĵ":{"ha":642,"x_min":-7,"x_max":781,"o":"m 99 956 l 342 1256 l 538 1256 l 781 956 l 547 956 l 440 1104 l 339 956 l 99 956 m 218 -14 q 103 -7 158 -14 q -7 18 47 0 l -7 297 q 68 277 28 283 q 149 271 108 271 q 238 296 211 271 q 264 382 264 321 l 264 894 l 600 894 l 600 300 q 501 65 600 143 q 218 -14 403 -14 z "},"K":{"ha":988,"x_min":49,"x_max":988,"o":"m 49 0 l 49 894 l 385 894 l 385 644 l 581 894 l 960 894 l 654 524 l 988 0 l 632 0 l 449 311 l 385 233 l 385 0 l 49 0 z "},"Ķ":{"ha":1008,"x_min":49,"x_max":988,"o":"m 49 0 l 49 894 l 385 894 l 385 644 l 581 894 l 960 894 l 654 524 l 988 0 l 632 0 l 449 311 l 385 233 l 385 0 l 49 0 m 347 -397 l 399 -51 l 647 -51 l 557 -397 l 347 -397 z "},"L":{"ha":750,"x_min":49,"x_max":750,"o":"m 49 0 l 49 894 l 385 894 l 385 256 l 750 256 l 750 0 l 49 0 z "},"Ĺ":{"ha":743,"x_min":49,"x_max":750,"o":"m 97 956 l 231 1269 l 489 1269 l 343 956 l 97 956 m 49 0 l 49 894 l 385 894 l 385 256 l 750 256 l 750 0 l 49 0 z "},"Ľ":{"ha":769,"x_min":49,"x_max":783,"o":"m 49 0 l 49 894 l 385 894 l 385 256 l 750 256 l 750 0 l 49 0 m 483 549 l 535 894 l 783 894 l 693 549 l 483 549 z "},"Ļ":{"ha":743,"x_min":49,"x_max":750,"o":"m 49 0 l 49 894 l 385 894 l 385 256 l 750 256 l 750 0 l 49 0 m 281 -397 l 332 -51 l 581 -51 l 490 -397 l 281 -397 z "},"Ŀ":{"ha":743,"x_min":49,"x_max":750,"o":"m 49 0 l 49 894 l 385 894 l 385 256 l 750 256 l 750 0 l 49 0 m 479 431 l 479 626 l 696 626 l 696 431 l 479 431 z "},"Ḷ":{"ha":743,"x_min":49,"x_max":750,"o":"m 49 0 l 49 894 l 385 894 l 385 256 l 750 256 l 750 0 l 49 0 m 276 -296 l 276 -100 l 493 -100 l 493 -296 l 276 -296 z "},"Ḹ":{"ha":749,"x_min":-26,"x_max":756,"o":"m -26 997 l -26 1192 l 458 1192 l 458 997 l -26 997 m 54 0 l 54 894 l 390 894 l 390 256 l 756 256 l 756 0 l 54 0 m 279 -296 l 279 -100 l 496 -100 l 496 -296 l 279 -296 z "},"Ḻ":{"ha":743,"x_min":49,"x_max":750,"o":"m 49 0 l 49 894 l 385 894 l 385 256 l 750 256 l 750 0 l 49 0 m 142 -297 l 142 -103 l 626 -103 l 626 -297 l 142 -297 z "},"Ł":{"ha":800,"x_min":21,"x_max":807,"o":"m 106 0 l 106 297 l 21 260 l 21 494 l 106 532 l 106 894 l 442 894 l 442 679 l 538 721 l 538 486 l 442 444 l 442 256 l 807 256 l 807 0 l 106 0 z "},"M":{"ha":1099,"x_min":49,"x_max":1050,"o":"m 49 0 l 49 894 l 368 894 l 550 525 l 731 894 l 1050 894 l 1050 0 l 714 0 l 714 314 l 635 153 l 464 153 l 385 314 l 385 0 l 49 0 z "},"Ṃ":{"ha":1099,"x_min":49,"x_max":1050,"o":"m 49 0 l 49 894 l 368 894 l 550 525 l 731 894 l 1050 894 l 1050 0 l 714 0 l 714 314 l 635 153 l 464 153 l 385 314 l 385 0 l 49 0 m 442 -296 l 442 -100 l 658 -100 l 658 -296 l 442 -296 z "},"N":{"ha":965,"x_min":49,"x_max":917,"o":"m 49 0 l 49 894 l 331 894 l 581 544 l 581 894 l 917 894 l 917 0 l 633 0 l 385 350 l 385 0 l 49 0 z "},"Ń":{"ha":965,"x_min":49,"x_max":917,"o":"m 314 956 l 447 1269 l 706 1269 l 560 956 l 314 956 m 49 0 l 49 894 l 331 894 l 581 544 l 581 894 l 917 894 l 917 0 l 633 0 l 385 350 l 385 0 l 49 0 z "},"Ň":{"ha":965,"x_min":49,"x_max":917,"o":"m 376 956 l 133 1256 l 374 1256 l 475 1107 l 582 1256 l 815 1256 l 572 956 l 376 956 m 49 0 l 49 894 l 331 894 l 581 544 l 581 894 l 917 894 l 917 0 l 633 0 l 385 350 l 385 0 l 49 0 z "},"Ņ":{"ha":965,"x_min":49,"x_max":917,"o":"m 49 0 l 49 894 l 331 894 l 581 544 l 581 894 l 917 894 l 917 0 l 633 0 l 385 350 l 385 0 l 49 0 m 333 -397 l 385 -51 l 633 -51 l 543 -397 l 333 -397 z "},"Ṅ":{"ha":965,"x_min":49,"x_max":917,"o":"m 371 997 l 371 1193 l 588 1193 l 588 997 l 371 997 m 49 0 l 49 894 l 331 894 l 581 544 l 581 894 l 917 894 l 917 0 l 633 0 l 385 350 l 385 0 l 49 0 z "},"Ṇ":{"ha":965,"x_min":49,"x_max":917,"o":"m 49 0 l 49 894 l 331 894 l 581 544 l 581 894 l 917 894 l 917 0 l 633 0 l 385 350 l 385 0 l 49 0 m 383 -296 l 383 -100 l 600 -100 l 600 -296 l 383 -296 z "},"Ŋ":{"ha":965,"x_min":49,"x_max":917,"o":"m 636 -325 q 524 -315 572 -325 q 432 -287 476 -306 l 432 -79 q 515 -93 472 -93 q 581 -37 581 -93 l 581 74 l 385 350 l 385 0 l 49 0 l 49 894 l 331 894 l 581 544 l 581 894 l 917 894 l 917 -60 q 888 -196 917 -136 q 798 -290 860 -256 q 636 -325 736 -325 z "},"Ṉ":{"ha":965,"x_min":49,"x_max":917,"o":"m 49 0 l 49 894 l 331 894 l 581 544 l 581 894 l 917 894 l 917 0 l 633 0 l 385 350 l 385 0 l 49 0 m 239 -289 l 239 -94 l 724 -94 l 724 -289 l 239 -289 z "},"Ñ":{"ha":965,"x_min":49,"x_max":917,"o":"m 638 963 q 540 978 588 963 q 447 1008 492 993 q 358 1024 401 1024 q 274 1008 311 1024 q 213 967 238 992 l 213 1163 q 272 1197 233 1182 q 354 1211 311 1211 q 451 1196 406 1211 q 541 1165 496 1181 q 633 1150 586 1150 q 717 1167 682 1150 q 769 1207 753 1185 l 769 1011 q 719 978 756 993 q 638 963 682 963 m 49 0 l 49 894 l 331 894 l 581 544 l 581 894 l 917 894 l 917 0 l 633 0 l 385 350 l 385 0 l 49 0 z "},"O":{"ha":1000,"x_min":21,"x_max":979,"o":"m 500 -14 q 242 31 349 -14 q 78 178 135 76 q 21 447 21 279 q 78 717 21 617 q 242 863 135 818 q 500 908 349 908 q 758 863 651 908 q 922 717 865 818 q 979 447 979 617 q 922 178 979 279 q 758 31 865 76 q 500 -14 651 -14 m 500 271 q 605 310 574 271 q 636 447 636 350 q 605 584 636 544 q 500 624 574 624 q 395 584 426 624 q 364 447 364 544 q 395 310 364 350 q 500 271 426 271 z "},"Ó":{"ha":1000,"x_min":21,"x_max":979,"o":"m 350 956 l 483 1269 l 742 1269 l 596 956 l 350 956 m 500 -14 q 242 31 349 -14 q 78 178 135 76 q 21 447 21 279 q 78 717 21 617 q 242 863 135 818 q 500 908 349 908 q 758 863 651 908 q 922 717 865 818 q 979 447 979 617 q 922 178 979 279 q 758 31 865 76 q 500 -14 651 -14 m 500 271 q 605 310 574 271 q 636 447 636 350 q 605 584 636 544 q 500 624 574 624 q 395 584 426 624 q 364 447 364 544 q 395 310 364 350 q 500 271 426 271 z "},"Ŏ":{"ha":1000,"x_min":21,"x_max":979,"o":"m 500 956 q 278 1034 361 956 q 194 1261 194 1113 l 410 1261 q 429 1176 410 1214 q 500 1139 449 1139 q 572 1176 553 1139 q 592 1261 592 1214 l 807 1261 q 724 1034 807 1113 q 500 956 640 956 m 500 -14 q 242 31 349 -14 q 78 178 135 76 q 21 447 21 279 q 78 717 21 617 q 242 863 135 818 q 500 908 349 908 q 758 863 651 908 q 922 717 865 818 q 979 447 979 617 q 922 178 979 279 q 758 31 865 76 q 500 -14 651 -14 m 500 271 q 605 310 574 271 q 636 447 636 350 q 605 584 636 544 q 500 624 574 624 q 395 584 426 624 q 364 447 364 544 q 395 310 364 350 q 500 271 426 271 z "},"Ǒ":{"ha":1000,"x_min":21,"x_max":979,"o":"m 403 956 l 160 1256 l 400 1256 l 501 1107 l 608 1256 l 842 1256 l 599 956 l 403 956 m 500 -14 q 242 31 349 -14 q 78 178 135 76 q 21 447 21 279 q 78 717 21 617 q 242 863 135 818 q 500 908 349 908 q 758 863 651 908 q 922 717 865 818 q 979 447 979 617 q 922 178 979 279 q 758 31 865 76 q 500 -14 651 -14 m 500 271 q 605 310 574 271 q 636 447 636 350 q 605 584 636 544 q 500 624 574 624 q 395 584 426 624 q 364 447 364 544 q 395 310 364 350 q 500 271 426 271 z "},"Ô":{"ha":1000,"x_min":21,"x_max":979,"o":"m 160 956 l 403 1256 l 599 1256 l 842 956 l 608 956 l 501 1104 l 400 956 l 160 956 m 500 -14 q 242 31 349 -14 q 78 178 135 76 q 21 447 21 279 q 78 717 21 617 q 242 863 135 818 q 500 908 349 908 q 758 863 651 908 q 922 717 865 818 q 979 447 979 617 q 922 178 979 279 q 758 31 865 76 q 500 -14 651 -14 m 500 271 q 605 310 574 271 q 636 447 636 350 q 605 584 636 544 q 500 624 574 624 q 395 584 426 624 q 364 447 364 544 q 395 310 364 350 q 500 271 426 271 z "},"Ố":{"ha":1000,"x_min":21,"x_max":1046,"o":"m 697 1139 l 801 1378 l 1046 1378 l 931 1139 l 697 1139 m 157 956 l 376 1189 l 619 1189 l 839 956 l 576 956 l 499 1061 l 425 956 l 157 956 m 500 -14 q 242 31 349 -14 q 78 178 135 76 q 21 447 21 279 q 78 717 21 617 q 242 863 135 818 q 500 908 349 908 q 758 863 651 908 q 922 717 865 818 q 979 447 979 617 q 922 178 979 279 q 758 31 865 76 q 500 -14 651 -14 m 500 271 q 605 310 574 271 q 636 447 636 350 q 605 584 636 544 q 500 624 574 624 q 395 584 426 624 q 364 447 364 544 q 395 310 364 350 q 500 271 426 271 z "},"Ộ":{"ha":1000,"x_min":21,"x_max":979,"o":"m 160 956 l 403 1256 l 599 1256 l 842 956 l 608 956 l 501 1104 l 400 956 l 160 956 m 500 -14 q 242 31 349 -14 q 78 178 135 76 q 21 447 21 279 q 78 717 21 617 q 242 863 135 818 q 500 908 349 908 q 758 863 651 908 q 922 717 865 818 q 979 447 979 617 q 922 178 979 279 q 758 31 865 76 q 500 -14 651 -14 m 500 271 q 605 310 574 271 q 636 447 636 350 q 605 584 636 544 q 500 624 574 624 q 395 584 426 624 q 364 447 364 544 q 395 310 364 350 q 500 271 426 271 m 393 -296 l 393 -100 l 610 -100 l 610 -296 l 393 -296 z "},"Ồ":{"ha":1000,"x_min":-49,"x_max":979,"o":"m 67 1139 l -49 1378 l 196 1378 l 300 1139 l 67 1139 m 158 956 l 378 1189 l 621 1189 l 840 956 l 572 956 l 499 1061 l 421 956 l 158 956 m 500 -14 q 242 31 349 -14 q 78 178 135 76 q 21 447 21 279 q 78 717 21 617 q 242 863 135 818 q 500 908 349 908 q 758 863 651 908 q 922 717 865 818 q 979 447 979 617 q 922 178 979 279 q 758 31 865 76 q 500 -14 651 -14 m 500 271 q 605 310 574 271 q 636 447 636 350 q 605 584 636 544 q 500 624 574 624 q 395 584 426 624 q 364 447 364 544 q 395 310 364 350 q 500 271 426 271 z "},"Ổ":{"ha":1000,"x_min":21,"x_max":1019,"o":"m 704 1107 l 704 1218 q 775 1229 757 1221 q 793 1250 793 1238 q 746 1271 793 1271 q 710 1267 728 1271 q 679 1257 693 1263 l 679 1385 q 748 1397 707 1392 q 840 1401 789 1401 q 973 1364 926 1401 q 1019 1274 1019 1326 q 996 1193 1019 1226 q 922 1150 972 1160 l 922 1107 l 704 1107 m 149 956 l 368 1189 l 611 1189 l 831 956 l 568 956 l 490 1061 l 417 956 l 149 956 m 500 -14 q 242 31 349 -14 q 78 178 135 76 q 21 447 21 279 q 78 717 21 617 q 242 863 135 818 q 500 908 349 908 q 758 863 651 908 q 922 717 865 818 q 979 447 979 617 q 922 178 979 279 q 758 31 865 76 q 500 -14 651 -14 m 500 271 q 605 310 574 271 q 636 447 636 350 q 605 584 636 544 q 500 624 574 624 q 395 584 426 624 q 364 447 364 544 q 395 310 364 350 q 500 271 426 271 z "},"Ỗ":{"ha":1000,"x_min":21,"x_max":979,"o":"m 629 1210 q 536 1224 582 1210 q 447 1253 490 1239 q 363 1268 404 1268 q 282 1253 317 1268 q 224 1214 247 1238 l 224 1401 q 280 1433 243 1419 q 358 1447 317 1447 q 451 1433 407 1447 q 538 1403 494 1418 q 625 1389 581 1389 q 706 1405 671 1389 q 756 1443 740 1421 l 756 1256 q 707 1224 743 1238 q 629 1210 671 1210 m 149 956 l 368 1189 l 611 1189 l 831 956 l 568 956 l 490 1061 l 417 956 l 149 956 m 500 -14 q 242 31 349 -14 q 78 178 135 76 q 21 447 21 279 q 78 717 21 617 q 242 863 135 818 q 500 908 349 908 q 758 863 651 908 q 922 717 865 818 q 979 447 979 617 q 922 178 979 279 q 758 31 865 76 q 500 -14 651 -14 m 500 271 q 605 310 574 271 q 636 447 636 350 q 605 584 636 544 q 500 624 574 624 q 395 584 426 624 q 364 447 364 544 q 395 310 364 350 q 500 271 426 271 z "},"Ö":{"ha":1000,"x_min":21,"x_max":979,"o":"m 229 997 l 229 1193 l 446 1193 l 446 997 l 229 997 m 556 997 l 556 1193 l 772 1193 l 772 997 l 556 997 m 500 -14 q 242 31 349 -14 q 78 178 135 76 q 21 447 21 279 q 78 717 21 617 q 242 863 135 818 q 500 908 349 908 q 758 863 651 908 q 922 717 865 818 q 979 447 979 617 q 922 178 979 279 q 758 31 865 76 q 500 -14 651 -14 m 500 271 q 605 310 574 271 q 636 447 636 350 q 605 584 636 544 q 500 624 574 624 q 395 584 426 624 q 364 447 364 544 q 395 310 364 350 q 500 271 426 271 z "},"Ọ":{"ha":1000,"x_min":21,"x_max":979,"o":"m 500 -14 q 242 31 349 -14 q 78 178 135 76 q 21 447 21 279 q 78 717 21 617 q 242 863 135 818 q 500 908 349 908 q 758 863 651 908 q 922 717 865 818 q 979 447 979 617 q 922 178 979 279 q 758 31 865 76 q 500 -14 651 -14 m 500 271 q 605 310 574 271 q 636 447 636 350 q 605 584 636 544 q 500 624 574 624 q 395 584 426 624 q 364 447 364 544 q 395 310 364 350 q 500 271 426 271 m 392 -296 l 392 -100 l 608 -100 l 608 -296 l 392 -296 z "},"Ò":{"ha":1000,"x_min":21,"x_max":979,"o":"m 385 956 l 239 1269 l 497 1269 l 631 956 l 385 956 m 500 -14 q 242 31 349 -14 q 78 178 135 76 q 21 447 21 279 q 78 717 21 617 q 242 863 135 818 q 500 908 349 908 q 758 863 651 908 q 922 717 865 818 q 979 447 979 617 q 922 178 979 279 q 758 31 865 76 q 500 -14 651 -14 m 500 271 q 605 310 574 271 q 636 447 636 350 q 605 584 636 544 q 500 624 574 624 q 395 584 426 624 q 364 447 364 544 q 395 310 364 350 q 500 271 426 271 z "},"Ỏ":{"ha":1000,"x_min":21,"x_max":979,"o":"m 371 956 l 371 1068 q 464 1087 439 1072 q 489 1122 489 1101 q 419 1161 489 1161 q 342 1147 376 1161 l 342 1278 q 419 1293 375 1288 q 522 1299 463 1299 q 678 1256 624 1299 q 732 1150 732 1213 q 706 1056 732 1088 q 618 1006 679 1025 l 618 956 l 371 956 m 500 -14 q 242 31 349 -14 q 78 178 135 76 q 21 447 21 279 q 78 717 21 617 q 242 863 135 818 q 500 908 349 908 q 758 863 651 908 q 922 717 865 818 q 979 447 979 617 q 922 178 979 279 q 758 31 865 76 q 500 -14 651 -14 m 500 271 q 605 310 574 271 q 636 447 636 350 q 605 584 636 544 q 500 624 574 624 q 395 584 426 624 q 364 447 364 544 q 395 310 364 350 q 500 271 426 271 z "},"Ơ":{"ha":1140,"x_min":21,"x_max":1147,"o":"m 500 -14 q 242 31 349 -14 q 78 178 135 76 q 21 447 21 279 q 78 717 21 617 q 242 863 135 818 q 500 908 349 908 q 674 891 596 908 q 813 835 753 874 q 893 866 874 840 q 913 956 913 892 l 1147 956 q 1103 738 1147 813 q 954 636 1060 663 q 979 447 979 557 q 922 178 979 279 q 758 31 865 76 q 500 -14 651 -14 m 500 271 q 605 310 574 271 q 636 447 636 350 q 605 584 636 544 q 500 624 574 624 q 395 584 426 624 q 364 447 364 544 q 395 310 364 350 q 500 271 426 271 z "},"Ớ":{"ha":1140,"x_min":21,"x_max":1147,"o":"m 386 956 l 519 1269 l 778 1269 l 632 956 l 386 956 m 500 -14 q 242 31 349 -14 q 78 178 135 76 q 21 447 21 279 q 78 717 21 617 q 242 863 135 818 q 500 908 349 908 q 674 891 596 908 q 813 835 753 874 q 893 866 874 840 q 913 956 913 892 l 1147 956 q 1103 738 1147 813 q 954 636 1060 663 q 979 447 979 557 q 922 178 979 279 q 758 31 865 76 q 500 -14 651 -14 m 500 271 q 605 310 574 271 q 636 447 636 350 q 605 584 636 544 q 500 624 574 624 q 395 584 426 624 q 364 447 364 544 q 395 310 364 350 q 500 271 426 271 z "},"Ợ":{"ha":1140,"x_min":21,"x_max":1147,"o":"m 500 -14 q 242 31 349 -14 q 78 178 135 76 q 21 447 21 279 q 78 717 21 617 q 242 863 135 818 q 500 908 349 908 q 674 891 596 908 q 813 835 753 874 q 893 866 874 840 q 913 956 913 892 l 1147 956 q 1103 738 1147 813 q 954 636 1060 663 q 979 447 979 557 q 922 178 979 279 q 758 31 865 76 q 500 -14 651 -14 m 500 271 q 605 310 574 271 q 636 447 636 350 q 605 584 636 544 q 500 624 574 624 q 395 584 426 624 q 364 447 364 544 q 395 310 364 350 q 500 271 426 271 m 394 -296 l 394 -100 l 611 -100 l 611 -296 l 394 -296 z "},"Ờ":{"ha":1140,"x_min":21,"x_max":1147,"o":"m 404 956 l 258 1269 l 517 1269 l 650 956 l 404 956 m 500 -14 q 242 31 349 -14 q 78 178 135 76 q 21 447 21 279 q 78 717 21 617 q 242 863 135 818 q 500 908 349 908 q 674 891 596 908 q 813 835 753 874 q 893 866 874 840 q 913 956 913 892 l 1147 956 q 1103 738 1147 813 q 954 636 1060 663 q 979 447 979 557 q 922 178 979 279 q 758 31 865 76 q 500 -14 651 -14 m 500 271 q 605 310 574 271 q 636 447 636 350 q 605 584 636 544 q 500 624 574 624 q 395 584 426 624 q 364 447 364 544 q 395 310 364 350 q 500 271 426 271 z "},"Ở":{"ha":1140,"x_min":21,"x_max":1147,"o":"m 372 956 l 372 1068 q 465 1087 440 1072 q 490 1122 490 1101 q 421 1161 490 1161 q 343 1147 378 1161 l 343 1278 q 420 1293 376 1288 q 524 1299 464 1299 q 679 1256 625 1299 q 733 1150 733 1213 q 707 1056 733 1088 q 619 1006 681 1025 l 619 956 l 372 956 m 500 -14 q 242 31 349 -14 q 78 178 135 76 q 21 447 21 279 q 78 717 21 617 q 242 863 135 818 q 500 908 349 908 q 674 891 596 908 q 813 835 753 874 q 893 866 874 840 q 913 956 913 892 l 1147 956 q 1103 738 1147 813 q 954 636 1060 663 q 979 447 979 557 q 922 178 979 279 q 758 31 865 76 q 500 -14 651 -14 m 500 271 q 605 310 574 271 q 636 447 636 350 q 605 584 636 544 q 500 624 574 624 q 395 584 426 624 q 364 447 364 544 q 395 310 364 350 q 500 271 426 271 z "},"Ỡ":{"ha":1140,"x_min":21,"x_max":1147,"o":"m 650 956 q 552 971 600 956 q 459 1001 504 986 q 371 1017 414 1017 q 287 1001 324 1017 q 225 960 250 985 l 225 1156 q 285 1190 246 1175 q 367 1204 324 1204 q 463 1189 418 1204 q 553 1158 508 1174 q 646 1143 599 1143 q 730 1160 694 1143 q 782 1200 765 1178 l 782 1004 q 731 971 768 986 q 650 956 694 956 m 500 -14 q 242 31 349 -14 q 78 178 135 76 q 21 447 21 279 q 78 717 21 617 q 242 863 135 818 q 500 908 349 908 q 674 891 596 908 q 813 835 753 874 q 893 866 874 840 q 913 956 913 892 l 1147 956 q 1103 738 1147 813 q 954 636 1060 663 q 979 447 979 557 q 922 178 979 279 q 758 31 865 76 q 500 -14 651 -14 m 500 271 q 605 310 574 271 q 636 447 636 350 q 605 584 636 544 q 500 624 574 624 q 395 584 426 624 q 364 447 364 544 q 395 310 364 350 q 500 271 426 271 z "},"Ő":{"ha":1000,"x_min":21,"x_max":979,"o":"m 125 956 l 257 1238 l 543 1238 l 385 956 l 125 956 m 500 956 l 632 1238 l 918 1238 l 760 956 l 500 956 m 500 -14 q 242 31 349 -14 q 78 178 135 76 q 21 447 21 279 q 78 717 21 617 q 242 863 135 818 q 500 908 349 908 q 758 863 651 908 q 922 717 865 818 q 979 447 979 617 q 922 178 979 279 q 758 31 865 76 q 500 -14 651 -14 m 500 271 q 605 310 574 271 q 636 447 636 350 q 605 584 636 544 q 500 624 574 624 q 395 584 426 624 q 364 447 364 544 q 395 310 364 350 q 500 271 426 271 z "},"Ō":{"ha":1000,"x_min":21,"x_max":979,"o":"m 249 1013 l 249 1207 l 733 1207 l 733 1013 l 249 1013 m 500 -14 q 242 31 349 -14 q 78 178 135 76 q 21 447 21 279 q 78 717 21 617 q 242 863 135 818 q 500 908 349 908 q 758 863 651 908 q 922 717 865 818 q 979 447 979 617 q 922 178 979 279 q 758 31 865 76 q 500 -14 651 -14 m 500 271 q 605 310 574 271 q 636 447 636 350 q 605 584 636 544 q 500 624 574 624 q 395 584 426 624 q 364 447 364 544 q 395 310 364 350 q 500 271 426 271 z "},"Ø":{"ha":1000,"x_min":21,"x_max":979,"o":"m 233 -74 l 271 19 q 85 164 150 61 q 21 447 21 267 q 78 717 21 617 q 242 863 135 818 q 500 908 349 908 q 567 906 535 908 q 629 899 599 904 l 656 963 l 763 963 l 726 875 q 914 731 849 833 q 979 447 979 628 q 922 178 979 279 q 758 31 865 76 q 500 -14 651 -14 q 432 -12 465 -14 q 368 -4 399 -10 l 340 -74 l 233 -74 m 388 306 l 519 631 q 510 632 515 632 q 500 632 506 632 q 390 591 422 632 q 357 447 357 550 q 364 363 357 397 q 388 306 371 328 m 476 263 l 500 263 q 610 304 578 263 q 643 447 643 346 q 610 590 643 547 l 476 263 z "},"Ǿ":{"ha":1000,"x_min":21,"x_max":979,"o":"m 303 956 l 436 1269 l 694 1269 l 549 956 l 303 956 m 233 -74 l 271 19 q 85 164 150 61 q 21 447 21 267 q 78 717 21 617 q 242 863 135 818 q 500 908 349 908 q 567 906 535 908 q 629 899 599 904 l 656 963 l 763 963 l 726 875 q 914 731 849 833 q 979 447 979 628 q 922 178 979 279 q 758 31 865 76 q 500 -14 651 -14 q 432 -12 465 -14 q 368 -4 399 -10 l 340 -74 l 233 -74 m 388 306 l 519 631 q 510 632 515 632 q 500 632 506 632 q 390 591 422 632 q 357 447 357 550 q 364 363 357 397 q 388 306 371 328 m 476 263 l 500 263 q 610 304 578 263 q 643 447 643 346 q 610 590 643 547 l 476 263 z "},"Õ":{"ha":1000,"x_min":21,"x_max":979,"o":"m 647 990 q 549 1006 597 990 q 456 1036 501 1021 q 368 1051 411 1051 q 284 1035 321 1051 q 222 994 247 1019 l 222 1190 q 282 1224 243 1210 q 364 1239 321 1239 q 460 1224 415 1239 q 551 1193 506 1208 q 643 1178 596 1178 q 727 1195 692 1178 q 779 1235 763 1213 l 779 1039 q 728 1006 765 1021 q 647 990 692 990 m 500 -14 q 242 31 349 -14 q 78 178 135 76 q 21 447 21 279 q 78 717 21 617 q 242 863 135 818 q 500 908 349 908 q 758 863 651 908 q 922 717 865 818 q 979 447 979 617 q 922 178 979 279 q 758 31 865 76 q 500 -14 651 -14 m 500 271 q 605 310 574 271 q 636 447 636 350 q 605 584 636 544 q 500 624 574 624 q 395 584 426 624 q 364 447 364 544 q 395 310 364 350 q 500 271 426 271 z "},"Œ":{"ha":1376,"x_min":21,"x_max":1356,"o":"m 500 -14 q 242 31 349 -14 q 78 178 135 76 q 21 447 21 279 q 78 717 21 617 q 242 863 135 818 q 500 908 349 908 q 658 894 588 908 l 1356 894 l 1356 653 l 976 653 l 976 572 l 1303 572 l 1303 322 l 976 322 l 976 242 l 1356 242 l 1356 0 l 658 0 q 500 -14 588 -14 m 500 271 q 605 310 574 271 q 636 447 636 350 q 605 584 636 544 q 500 624 574 624 q 395 584 426 624 q 364 447 364 544 q 395 310 364 350 q 500 271 426 271 z "},"P":{"ha":883,"x_min":49,"x_max":890,"o":"m 49 0 l 49 894 l 551 894 q 742 847 667 894 q 853 721 817 800 q 890 546 890 642 q 848 370 890 449 q 728 246 806 292 q 546 200 651 200 l 385 200 l 385 0 l 49 0 m 385 463 l 467 463 q 528 485 507 463 q 549 546 549 507 q 472 632 549 632 l 385 632 l 385 463 z "},"Þ":{"ha":883,"x_min":49,"x_max":890,"o":"m 49 0 l 49 894 l 385 894 l 385 794 l 551 794 q 742 747 667 794 q 853 621 817 700 q 890 446 890 542 q 848 270 890 349 q 728 146 806 192 q 546 100 651 100 l 385 100 l 385 0 l 49 0 m 385 363 l 467 363 q 528 385 507 363 q 549 446 549 407 q 472 532 549 532 l 385 532 l 385 363 z "},"Q":{"ha":1000,"x_min":21,"x_max":979,"o":"m 618 -239 q 422 -174 483 -239 q 356 -3 361 -108 q 108 131 196 25 q 21 447 21 238 q 78 717 21 617 q 242 863 135 818 q 500 908 349 908 q 758 863 651 908 q 922 717 865 818 q 979 447 979 617 q 888 125 979 232 q 626 -6 796 18 q 703 -47 636 -47 q 803 -31 756 -47 l 803 -217 q 725 -232 775 -225 q 618 -239 675 -239 m 500 271 q 605 310 574 271 q 636 447 636 350 q 605 584 636 544 q 500 624 574 624 q 395 584 426 624 q 364 447 364 544 q 395 310 364 350 q 500 271 426 271 z "},"R":{"ha":911,"x_min":49,"x_max":890,"o":"m 49 0 l 49 894 l 551 894 q 742 851 667 894 q 853 731 817 807 q 890 560 890 656 q 844 401 890 469 q 732 289 797 333 q 756 267 747 279 q 769 243 764 256 l 875 0 l 525 0 l 438 199 q 422 222 431 215 q 399 228 414 228 l 385 228 l 385 0 l 49 0 m 385 490 l 467 490 q 549 560 549 490 q 530 615 549 599 q 472 632 511 632 l 385 632 l 385 490 z "},"Ŕ":{"ha":911,"x_min":49,"x_max":890,"o":"m 276 956 l 410 1269 l 668 1269 l 522 956 l 276 956 m 49 0 l 49 894 l 551 894 q 742 851 667 894 q 853 731 817 807 q 890 560 890 656 q 844 401 890 469 q 732 289 797 333 q 756 267 747 279 q 769 243 764 256 l 875 0 l 525 0 l 438 199 q 422 222 431 215 q 399 228 414 228 l 385 228 l 385 0 l 49 0 m 385 490 l 467 490 q 549 560 549 490 q 530 615 549 599 q 472 632 511 632 l 385 632 l 385 490 z "},"Ř":{"ha":911,"x_min":49,"x_max":890,"o":"m 325 956 l 82 1256 l 322 1256 l 424 1107 l 531 1256 l 764 1256 l 521 956 l 325 956 m 49 0 l 49 894 l 551 894 q 742 851 667 894 q 853 731 817 807 q 890 560 890 656 q 844 401 890 469 q 732 289 797 333 q 756 267 747 279 q 769 243 764 256 l 875 0 l 525 0 l 438 199 q 422 222 431 215 q 399 228 414 228 l 385 228 l 385 0 l 49 0 m 385 490 l 467 490 q 549 560 549 490 q 530 615 549 599 q 472 632 511 632 l 385 632 l 385 490 z "},"Ŗ":{"ha":911,"x_min":49,"x_max":890,"o":"m 49 0 l 49 894 l 551 894 q 742 851 667 894 q 853 731 817 807 q 890 560 890 656 q 844 401 890 469 q 732 289 797 333 q 756 267 747 279 q 769 243 764 256 l 875 0 l 525 0 l 438 199 q 422 222 431 215 q 399 228 414 228 l 385 228 l 385 0 l 49 0 m 385 490 l 467 490 q 549 560 549 490 q 530 615 549 599 q 472 632 511 632 l 385 632 l 385 490 m 282 -397 l 333 -51 l 582 -51 l 492 -397 l 282 -397 z "},"Ṛ":{"ha":911,"x_min":49,"x_max":890,"o":"m 49 0 l 49 894 l 551 894 q 742 851 667 894 q 853 731 817 807 q 890 560 890 656 q 844 401 890 469 q 732 289 797 333 q 756 267 747 279 q 769 243 764 256 l 875 0 l 525 0 l 438 199 q 422 222 431 215 q 399 228 414 228 l 385 228 l 385 0 l 49 0 m 385 490 l 467 490 q 549 560 549 490 q 530 615 549 599 q 472 632 511 632 l 385 632 l 385 490 m 326 -296 l 326 -100 l 543 -100 l 543 -296 l 326 -296 z "},"Ṝ":{"ha":911,"x_min":49,"x_max":890,"o":"m 174 997 l 174 1192 l 658 1192 l 658 997 l 174 997 m 49 0 l 49 894 l 551 894 q 742 851 667 894 q 853 731 817 807 q 890 560 890 656 q 844 401 890 469 q 732 289 797 333 q 756 267 747 279 q 769 243 764 256 l 875 0 l 525 0 l 438 199 q 422 222 431 215 q 399 228 414 228 l 385 228 l 385 0 l 49 0 m 385 490 l 467 490 q 549 560 549 490 q 530 615 549 599 q 472 632 511 632 l 385 632 l 385 490 m 326 -296 l 326 -100 l 543 -100 l 543 -296 l 326 -296 z "},"Ṟ":{"ha":911,"x_min":49,"x_max":890,"o":"m 49 0 l 49 894 l 551 894 q 742 851 667 894 q 853 731 817 807 q 890 560 890 656 q 844 401 890 469 q 732 289 797 333 q 756 267 747 279 q 769 243 764 256 l 875 0 l 525 0 l 438 199 q 422 222 431 215 q 399 228 414 228 l 385 228 l 385 0 l 49 0 m 385 490 l 467 490 q 549 560 549 490 q 530 615 549 599 q 472 632 511 632 l 385 632 l 385 490 m 192 -289 l 192 -94 l 676 -94 l 676 -289 l 192 -289 z "},"S":{"ha":778,"x_min":21,"x_max":757,"o":"m 358 -14 q 176 2 264 -14 q 29 49 89 18 l 29 300 q 176 247 94 268 q 322 226 258 226 q 388 237 364 226 q 411 267 411 247 q 367 306 411 292 q 250 346 322 319 q 114 415 164 379 q 42 502 64 451 q 21 629 21 553 q 414 908 21 908 q 513 902 458 908 q 620 886 568 896 q 708 865 672 876 l 708 613 q 574 656 632 644 q 471 667 515 667 q 400 660 436 667 q 364 632 364 654 q 396 603 364 614 q 497 574 428 593 q 664 501 608 543 q 738 401 719 458 q 757 268 757 343 q 657 63 757 140 q 358 -14 557 -14 z "},"Ś":{"ha":778,"x_min":21,"x_max":757,"o":"m 249 956 l 382 1269 l 640 1269 l 494 956 l 249 956 m 358 -14 q 176 2 264 -14 q 29 49 89 18 l 29 300 q 176 247 94 268 q 322 226 258 226 q 388 237 364 226 q 411 267 411 247 q 367 306 411 292 q 250 346 322 319 q 114 415 164 379 q 42 502 64 451 q 21 629 21 553 q 414 908 21 908 q 513 902 458 908 q 620 886 568 896 q 708 865 672 876 l 708 613 q 574 656 632 644 q 471 667 515 667 q 400 660 436 667 q 364 632 364 654 q 396 603 364 614 q 497 574 428 593 q 664 501 608 543 q 738 401 719 458 q 757 268 757 343 q 657 63 757 140 q 358 -14 557 -14 z "},"Š":{"ha":778,"x_min":21,"x_max":757,"o":"m 296 956 l 53 1256 l 293 1256 l 394 1107 l 501 1256 l 735 1256 l 492 956 l 296 956 m 358 -14 q 176 2 264 -14 q 29 49 89 18 l 29 300 q 176 247 94 268 q 322 226 258 226 q 388 237 364 226 q 411 267 411 247 q 367 306 411 292 q 250 346 322 319 q 114 415 164 379 q 42 502 64 451 q 21 629 21 553 q 414 908 21 908 q 513 902 458 908 q 620 886 568 896 q 708 865 672 876 l 708 613 q 574 656 632 644 q 471 667 515 667 q 400 660 436 667 q 364 632 364 654 q 396 603 364 614 q 497 574 428 593 q 664 501 608 543 q 738 401 719 458 q 757 268 757 343 q 657 63 757 140 q 358 -14 557 -14 z "},"Ş":{"ha":778,"x_min":21,"x_max":757,"o":"m 333 -333 q 292 -332 317 -333 q 244 -328 267 -331 q 211 -322 222 -325 l 211 -215 q 292 -226 251 -226 q 385 -178 385 -226 q 371 -147 385 -156 q 333 -139 357 -139 l 231 -139 l 267 -10 q 135 11 197 -4 q 29 49 74 26 l 29 300 q 176 247 94 268 q 322 226 258 226 q 388 237 364 226 q 411 267 411 247 q 367 306 411 292 q 250 346 322 319 q 114 415 164 379 q 42 502 64 451 q 21 629 21 553 q 414 908 21 908 q 513 902 458 908 q 620 886 568 896 q 708 865 672 876 l 708 613 q 574 656 632 644 q 471 667 515 667 q 400 660 436 667 q 364 632 364 654 q 396 603 364 614 q 497 574 428 593 q 664 501 608 543 q 738 401 719 458 q 757 268 757 343 q 676 78 757 153 q 433 -11 594 4 l 419 -51 q 529 -90 489 -51 q 569 -185 569 -128 q 510 -293 569 -253 q 333 -333 451 -333 z "},"Ŝ":{"ha":778,"x_min":21,"x_max":772,"o":"m 90 956 l 333 1256 l 529 1256 l 772 956 l 539 956 l 432 1104 l 331 956 l 90 956 m 358 -14 q 176 2 264 -14 q 29 49 89 18 l 29 300 q 176 247 94 268 q 322 226 258 226 q 388 237 364 226 q 411 267 411 247 q 367 306 411 292 q 250 346 322 319 q 114 415 164 379 q 42 502 64 451 q 21 629 21 553 q 414 908 21 908 q 513 902 458 908 q 620 886 568 896 q 708 865 672 876 l 708 613 q 574 656 632 644 q 471 667 515 667 q 400 660 436 667 q 364 632 364 654 q 396 603 364 614 q 497 574 428 593 q 664 501 608 543 q 738 401 719 458 q 757 268 757 343 q 657 63 757 140 q 358 -14 557 -14 z "},"Ș":{"ha":778,"x_min":21,"x_max":757,"o":"m 358 -14 q 176 2 264 -14 q 29 49 89 18 l 29 300 q 176 247 94 268 q 322 226 258 226 q 388 237 364 226 q 411 267 411 247 q 367 306 411 292 q 250 346 322 319 q 114 415 164 379 q 42 502 64 451 q 21 629 21 553 q 414 908 21 908 q 513 902 458 908 q 620 886 568 896 q 708 865 672 876 l 708 613 q 574 656 632 644 q 471 667 515 667 q 400 660 436 667 q 364 632 364 654 q 396 603 364 614 q 497 574 428 593 q 664 501 608 543 q 738 401 719 458 q 757 268 757 343 q 657 63 757 140 q 358 -14 557 -14 m 214 -335 l 261 -51 l 540 -51 l 469 -335 l 214 -335 z "},"Ṡ":{"ha":778,"x_min":21,"x_max":757,"o":"m 272 997 l 272 1193 l 489 1193 l 489 997 l 272 997 m 358 -14 q 176 2 264 -14 q 29 49 89 18 l 29 300 q 176 247 94 268 q 322 226 258 226 q 388 237 364 226 q 411 267 411 247 q 367 306 411 292 q 250 346 322 319 q 114 415 164 379 q 42 502 64 451 q 21 629 21 553 q 414 908 21 908 q 513 902 458 908 q 620 886 568 896 q 708 865 672 876 l 708 613 q 574 656 632 644 q 471 667 515 667 q 400 660 436 667 q 364 632 364 654 q 396 603 364 614 q 497 574 428 593 q 664 501 608 543 q 738 401 719 458 q 757 268 757 343 q 657 63 757 140 q 358 -14 557 -14 z "},"Ṣ":{"ha":778,"x_min":21,"x_max":757,"o":"m 358 -14 q 176 2 264 -14 q 29 49 89 18 l 29 300 q 176 247 94 268 q 322 226 258 226 q 388 237 364 226 q 411 267 411 247 q 367 306 411 292 q 250 346 322 319 q 114 415 164 379 q 42 502 64 451 q 21 629 21 553 q 414 908 21 908 q 513 902 458 908 q 620 886 568 896 q 708 865 672 876 l 708 613 q 574 656 632 644 q 471 667 515 667 q 400 660 436 667 q 364 632 364 654 q 396 603 364 614 q 497 574 428 593 q 664 501 608 543 q 738 401 719 458 q 757 268 757 343 q 657 63 757 140 q 358 -14 557 -14 m 276 -296 l 276 -100 l 493 -100 l 493 -296 l 276 -296 z "},"ẞ":{"ha":913,"x_min":42,"x_max":892,"o":"m 578 -14 q 476 -6 525 -14 q 399 17 426 3 l 399 226 q 440 217 414 221 q 483 214 465 214 q 535 228 521 214 q 549 269 549 243 q 532 300 549 289 q 475 311 515 311 l 400 311 l 400 460 l 549 596 q 526 627 549 615 q 454 639 503 639 q 378 614 399 639 q 357 553 357 589 l 357 0 l 42 0 l 42 557 q 92 742 42 663 q 236 865 143 821 q 454 908 329 908 q 687 863 597 908 q 819 741 776 818 q 861 568 861 664 l 707 425 l 722 425 q 844 374 797 425 q 892 229 892 324 q 809 44 892 103 q 578 -14 726 -14 z "},"Ə":{"ha":978,"x_min":21,"x_max":957,"o":"m 485 -14 q 144 94 267 -14 q 21 401 21 201 l 21 558 l 650 558 q 576 665 636 632 q 383 697 517 697 q 274 688 338 697 q 153 664 211 678 q 64 636 96 650 l 64 840 q 237 888 133 868 q 456 908 340 908 q 719 849 607 908 q 894 683 832 790 q 957 433 957 576 q 906 198 957 299 q 751 42 856 97 q 485 -14 646 -14 m 485 183 q 613 229 576 183 q 650 349 650 275 l 308 349 l 308 322 q 327 257 308 289 q 385 204 346 225 q 485 183 424 183 z "},"T":{"ha":792,"x_min":0,"x_max":792,"o":"m 228 0 l 228 653 l 0 653 l 0 894 l 792 894 l 792 653 l 564 653 l 564 0 l 228 0 z "},"Ŧ":{"ha":778,"x_min":-7,"x_max":785,"o":"m 221 0 l 221 332 l 114 332 l 114 546 l 221 546 l 221 653 l -7 653 l -7 894 l 785 894 l 785 653 l 557 653 l 557 546 l 650 546 l 650 332 l 557 332 l 557 0 l 221 0 z "},"Ť":{"ha":778,"x_min":-7,"x_max":785,"o":"m 292 956 l 49 1256 l 289 1256 l 390 1107 l 497 1256 l 731 1256 l 488 956 l 292 956 m 221 0 l 221 653 l -7 653 l -7 894 l 785 894 l 785 653 l 557 653 l 557 0 l 221 0 z "},"Ţ":{"ha":778,"x_min":-7,"x_max":785,"o":"m 221 0 l 221 653 l -7 653 l -7 894 l 785 894 l 785 653 l 557 653 l 557 0 l 469 0 l 451 -51 q 561 -90 521 -51 q 601 -185 601 -128 q 542 -293 601 -253 q 365 -333 483 -333 q 324 -332 349 -333 q 276 -328 299 -331 q 243 -322 254 -325 l 243 -215 q 324 -226 283 -226 q 417 -178 417 -226 q 403 -147 417 -156 q 365 -139 389 -139 l 263 -139 l 301 0 l 221 0 z "},"Ț":{"ha":778,"x_min":-7,"x_max":785,"o":"m 221 0 l 221 653 l -7 653 l -7 894 l 785 894 l 785 653 l 557 653 l 557 0 l 221 0 m 228 -397 l 279 -51 l 528 -51 l 438 -397 l 228 -397 z "},"Ṭ":{"ha":778,"x_min":-7,"x_max":785,"o":"m 221 0 l 221 653 l -7 653 l -7 894 l 785 894 l 785 653 l 557 653 l 557 0 l 221 0 m 275 -268 l 275 -72 l 492 -72 l 492 -268 l 275 -268 z "},"Ṯ":{"ha":778,"x_min":-7,"x_max":785,"o":"m 221 0 l 221 653 l -7 653 l -7 894 l 785 894 l 785 653 l 557 653 l 557 0 l 221 0 m 147 -261 l 147 -67 l 632 -67 l 632 -261 l 147 -261 z "},"U":{"ha":978,"x_min":42,"x_max":936,"o":"m 489 -14 q 261 28 363 -14 q 101 151 160 69 q 42 353 42 233 l 42 894 l 378 894 l 378 396 q 489 271 378 271 q 600 396 600 271 l 600 894 l 936 894 l 936 353 q 877 151 936 233 q 717 28 818 69 q 489 -14 615 -14 z "},"Ú":{"ha":978,"x_min":42,"x_max":936,"o":"m 367 956 l 500 1269 l 758 1269 l 613 956 l 367 956 m 489 -14 q 261 28 363 -14 q 101 151 160 69 q 42 353 42 233 l 42 894 l 378 894 l 378 396 q 489 271 378 271 q 600 396 600 271 l 600 894 l 936 894 l 936 353 q 877 151 936 233 q 717 28 818 69 q 489 -14 615 -14 z "},"Ŭ":{"ha":978,"x_min":42,"x_max":936,"o":"m 489 956 q 267 1034 350 956 q 183 1261 183 1113 l 399 1261 q 418 1176 399 1214 q 489 1139 438 1139 q 561 1176 542 1139 q 581 1261 581 1214 l 796 1261 q 713 1034 796 1113 q 489 956 629 956 m 489 -14 q 261 28 363 -14 q 101 151 160 69 q 42 353 42 233 l 42 894 l 378 894 l 378 396 q 489 271 378 271 q 600 396 600 271 l 600 894 l 936 894 l 936 353 q 877 151 936 233 q 717 28 818 69 q 489 -14 615 -14 z "},"Ǔ":{"ha":978,"x_min":42,"x_max":936,"o":"m 392 956 l 149 1256 l 389 1256 l 490 1107 l 597 1256 l 831 1256 l 588 956 l 392 956 m 489 -14 q 261 28 363 -14 q 101 151 160 69 q 42 353 42 233 l 42 894 l 378 894 l 378 396 q 489 271 378 271 q 600 396 600 271 l 600 894 l 936 894 l 936 353 q 877 151 936 233 q 717 28 818 69 q 489 -14 615 -14 z "},"Û":{"ha":978,"x_min":42,"x_max":936,"o":"m 149 956 l 392 1256 l 588 1256 l 831 956 l 597 956 l 490 1104 l 389 956 l 149 956 m 489 -14 q 261 28 363 -14 q 101 151 160 69 q 42 353 42 233 l 42 894 l 378 894 l 378 396 q 489 271 378 271 q 600 396 600 271 l 600 894 l 936 894 l 936 353 q 877 151 936 233 q 717 28 818 69 q 489 -14 615 -14 z "},"Ü":{"ha":978,"x_min":42,"x_max":936,"o":"m 218 997 l 218 1193 l 435 1193 l 435 997 l 218 997 m 544 997 l 544 1193 l 761 1193 l 761 997 l 544 997 m 489 -14 q 261 28 363 -14 q 101 151 160 69 q 42 353 42 233 l 42 894 l 378 894 l 378 396 q 489 271 378 271 q 600 396 600 271 l 600 894 l 936 894 l 936 353 q 877 151 936 233 q 717 28 818 69 q 489 -14 615 -14 z "},"Ǘ":{"ha":978,"x_min":42,"x_max":936,"o":"m 372 1197 l 450 1399 l 697 1399 l 594 1197 l 372 1197 m 225 969 l 225 1154 l 436 1154 l 436 969 l 225 969 m 543 969 l 543 1154 l 754 1154 l 754 969 l 543 969 m 489 -14 q 261 28 363 -14 q 101 151 160 69 q 42 353 42 233 l 42 894 l 378 894 l 378 396 q 489 271 378 271 q 600 396 600 271 l 600 894 l 936 894 l 936 353 q 877 151 936 233 q 717 28 818 69 q 489 -14 615 -14 z "},"Ǚ":{"ha":978,"x_min":42,"x_max":936,"o":"m 375 1197 l 168 1399 l 413 1399 l 490 1297 l 571 1399 l 811 1399 l 604 1197 l 375 1197 m 218 969 l 218 1154 l 429 1154 l 429 969 l 218 969 m 536 969 l 536 1154 l 747 1154 l 747 969 l 536 969 m 489 -14 q 261 28 363 -14 q 101 151 160 69 q 42 353 42 233 l 42 894 l 378 894 l 378 396 q 489 271 378 271 q 600 396 600 271 l 600 894 l 936 894 l 936 353 q 877 151 936 233 q 717 28 818 69 q 489 -14 615 -14 z "},"Ǜ":{"ha":978,"x_min":42,"x_max":936,"o":"m 385 1246 l 282 1447 l 529 1447 l 607 1246 l 385 1246 m 225 1018 l 225 1203 l 436 1203 l 436 1018 l 225 1018 m 543 1018 l 543 1203 l 754 1203 l 754 1018 l 543 1018 m 489 -14 q 261 28 363 -14 q 101 151 160 69 q 42 353 42 233 l 42 894 l 378 894 l 378 396 q 489 271 378 271 q 600 396 600 271 l 600 894 l 936 894 l 936 353 q 877 151 936 233 q 717 28 818 69 q 489 -14 615 -14 z "},"Ǖ":{"ha":978,"x_min":42,"x_max":936,"o":"m 247 1233 l 247 1428 l 732 1428 l 732 1233 l 247 1233 m 218 968 l 218 1164 l 435 1164 l 435 968 l 218 968 m 544 968 l 544 1164 l 761 1164 l 761 968 l 544 968 m 489 -14 q 261 28 363 -14 q 101 151 160 69 q 42 353 42 233 l 42 894 l 378 894 l 378 396 q 489 271 378 271 q 600 396 600 271 l 600 894 l 936 894 l 936 353 q 877 151 936 233 q 717 28 818 69 q 489 -14 615 -14 z "},"Ụ":{"ha":978,"x_min":42,"x_max":936,"o":"m 489 -14 q 261 28 363 -14 q 101 151 160 69 q 42 353 42 233 l 42 894 l 378 894 l 378 396 q 489 271 378 271 q 600 396 600 271 l 600 894 l 936 894 l 936 353 q 877 151 936 233 q 717 28 818 69 q 489 -14 615 -14 m 381 -296 l 381 -100 l 597 -100 l 597 -296 l 381 -296 z "},"Ù":{"ha":978,"x_min":42,"x_max":936,"o":"m 367 956 l 221 1269 l 479 1269 l 613 956 l 367 956 m 489 -14 q 261 28 363 -14 q 101 151 160 69 q 42 353 42 233 l 42 894 l 378 894 l 378 396 q 489 271 378 271 q 600 396 600 271 l 600 894 l 936 894 l 936 353 q 877 151 936 233 q 717 28 818 69 q 489 -14 615 -14 z "},"Ủ":{"ha":978,"x_min":42,"x_max":936,"o":"m 365 954 l 365 1067 q 458 1085 433 1071 q 483 1121 483 1100 q 414 1160 483 1160 q 336 1146 371 1160 l 336 1276 q 413 1292 369 1286 q 517 1297 457 1297 q 672 1254 618 1297 q 726 1149 726 1211 q 700 1055 726 1086 q 613 1004 674 1024 l 613 954 l 365 954 m 489 -14 q 261 28 363 -14 q 101 151 160 69 q 42 353 42 233 l 42 894 l 378 894 l 378 396 q 489 271 378 271 q 600 396 600 271 l 600 894 l 936 894 l 936 353 q 877 151 936 233 q 717 28 818 69 q 489 -14 615 -14 z "},"Ư":{"ha":1236,"x_min":42,"x_max":1271,"o":"m 489 -14 q 261 28 363 -14 q 101 151 160 69 q 42 353 42 233 l 42 894 l 378 894 l 378 396 q 489 271 378 271 q 600 396 600 271 l 600 894 l 936 894 l 936 835 q 1017 865 997 839 q 1036 956 1036 892 l 1271 956 q 1236 761 1271 833 q 1128 656 1201 689 q 936 621 1054 624 l 936 353 q 877 151 936 233 q 717 28 818 69 q 489 -14 615 -14 z "},"Ứ":{"ha":1236,"x_min":42,"x_max":1271,"o":"m 369 956 l 503 1269 l 761 1269 l 615 956 l 369 956 m 489 -14 q 261 28 363 -14 q 101 151 160 69 q 42 353 42 233 l 42 894 l 378 894 l 378 396 q 489 271 378 271 q 600 396 600 271 l 600 894 l 936 894 l 936 835 q 1017 865 997 839 q 1036 956 1036 892 l 1271 956 q 1236 761 1271 833 q 1128 656 1201 689 q 936 621 1054 624 l 936 353 q 877 151 936 233 q 717 28 818 69 q 489 -14 615 -14 z "},"Ự":{"ha":1236,"x_min":42,"x_max":1271,"o":"m 489 -14 q 261 28 363 -14 q 101 151 160 69 q 42 353 42 233 l 42 894 l 378 894 l 378 396 q 489 271 378 271 q 600 396 600 271 l 600 894 l 936 894 l 936 835 q 1017 865 997 839 q 1036 956 1036 892 l 1271 956 q 1236 761 1271 833 q 1128 656 1201 689 q 936 621 1054 624 l 936 353 q 877 151 936 233 q 717 28 818 69 q 489 -14 615 -14 m 383 -296 l 383 -100 l 600 -100 l 600 -296 l 383 -296 z "},"Ừ":{"ha":1236,"x_min":42,"x_max":1271,"o":"m 378 956 l 232 1269 l 490 1269 l 624 956 l 378 956 m 489 -14 q 261 28 363 -14 q 101 151 160 69 q 42 353 42 233 l 42 894 l 378 894 l 378 396 q 489 271 378 271 q 600 396 600 271 l 600 894 l 936 894 l 936 835 q 1017 865 997 839 q 1036 956 1036 892 l 1271 956 q 1236 761 1271 833 q 1128 656 1201 689 q 936 621 1054 624 l 936 353 q 877 151 936 233 q 717 28 818 69 q 489 -14 615 -14 z "},"Ử":{"ha":1236,"x_min":42,"x_max":1271,"o":"m 368 956 l 368 1068 q 461 1087 436 1072 q 486 1122 486 1101 q 417 1161 486 1161 q 339 1147 374 1161 l 339 1278 q 416 1293 372 1288 q 519 1299 460 1299 q 675 1256 621 1299 q 729 1150 729 1213 q 703 1056 729 1088 q 615 1006 676 1025 l 615 956 l 368 956 m 489 -14 q 261 28 363 -14 q 101 151 160 69 q 42 353 42 233 l 42 894 l 378 894 l 378 396 q 489 271 378 271 q 600 396 600 271 l 600 894 l 936 894 l 936 835 q 1017 865 997 839 q 1036 956 1036 892 l 1271 956 q 1236 761 1271 833 q 1128 656 1201 689 q 936 621 1054 624 l 936 353 q 877 151 936 233 q 717 28 818 69 q 489 -14 615 -14 z "},"Ữ":{"ha":1236,"x_min":42,"x_max":1271,"o":"m 643 956 q 545 971 593 956 q 452 1001 497 986 q 364 1017 407 1017 q 280 1001 317 1017 q 218 960 243 985 l 218 1156 q 278 1190 239 1175 q 360 1204 317 1204 q 456 1189 411 1204 q 547 1158 501 1174 q 639 1143 592 1143 q 723 1160 688 1143 q 775 1200 758 1178 l 775 1004 q 724 971 761 986 q 643 956 688 956 m 489 -14 q 261 28 363 -14 q 101 151 160 69 q 42 353 42 233 l 42 894 l 378 894 l 378 396 q 489 271 378 271 q 600 396 600 271 l 600 894 l 936 894 l 936 835 q 1017 865 997 839 q 1036 956 1036 892 l 1271 956 q 1236 761 1271 833 q 1128 656 1201 689 q 936 621 1054 624 l 936 353 q 877 151 936 233 q 717 28 818 69 q 489 -14 615 -14 z "},"Ű":{"ha":978,"x_min":42,"x_max":946,"o":"m 153 956 l 285 1238 l 571 1238 l 413 956 l 153 956 m 528 956 l 660 1238 l 946 1238 l 788 956 l 528 956 m 489 -14 q 261 28 363 -14 q 101 151 160 69 q 42 353 42 233 l 42 894 l 378 894 l 378 396 q 489 271 378 271 q 600 396 600 271 l 600 894 l 936 894 l 936 353 q 877 151 936 233 q 717 28 818 69 q 489 -14 615 -14 z "},"Ū":{"ha":978,"x_min":42,"x_max":936,"o":"m 247 1011 l 247 1206 l 732 1206 l 732 1011 l 247 1011 m 489 -14 q 261 28 363 -14 q 101 151 160 69 q 42 353 42 233 l 42 894 l 378 894 l 378 396 q 489 271 378 271 q 600 396 600 271 l 600 894 l 936 894 l 936 353 q 877 151 936 233 q 717 28 818 69 q 489 -14 615 -14 z "},"Ų":{"ha":978,"x_min":42,"x_max":936,"o":"m 504 -306 q 354 -271 410 -306 q 299 -161 299 -236 q 326 -72 299 -111 q 392 -7 353 -32 q 210 53 289 7 q 87 174 132 99 q 42 353 42 249 l 42 894 l 378 894 l 378 396 q 489 271 378 271 q 600 396 600 271 l 600 894 l 936 894 l 936 353 q 892 176 936 251 q 772 56 849 101 q 596 -6 694 10 q 552 -52 569 -26 q 535 -106 535 -78 q 552 -140 535 -132 q 600 -149 569 -149 q 638 -144 618 -149 q 671 -133 658 -140 l 671 -281 q 602 -297 647 -289 q 504 -306 557 -306 z "},"Ů":{"ha":978,"x_min":42,"x_max":936,"o":"m 489 956 q 331 1013 385 956 q 276 1154 276 1071 q 331 1297 276 1239 q 489 1354 385 1354 q 649 1297 594 1354 q 703 1154 703 1239 q 649 1013 703 1071 q 489 956 594 956 m 489 1083 q 546 1105 528 1083 q 564 1154 564 1126 q 546 1203 564 1182 q 489 1225 528 1225 q 432 1203 450 1225 q 414 1154 414 1182 q 432 1105 414 1126 q 489 1083 450 1083 m 489 -14 q 261 28 363 -14 q 101 151 160 69 q 42 353 42 233 l 42 894 l 378 894 l 378 396 q 489 271 378 271 q 600 396 600 271 l 600 894 l 936 894 l 936 353 q 877 151 936 233 q 717 28 818 69 q 489 -14 615 -14 z "},"Ũ":{"ha":978,"x_min":42,"x_max":936,"o":"m 636 963 q 538 978 586 963 q 445 1008 490 993 q 357 1024 400 1024 q 273 1008 310 1024 q 211 967 236 992 l 211 1163 q 271 1197 232 1182 q 353 1211 310 1211 q 449 1196 404 1211 q 540 1165 494 1181 q 632 1150 585 1150 q 716 1167 681 1150 q 768 1207 751 1185 l 768 1011 q 717 978 754 993 q 636 963 681 963 m 489 -14 q 261 28 363 -14 q 101 151 160 69 q 42 353 42 233 l 42 894 l 378 894 l 378 396 q 489 271 378 271 q 600 396 600 271 l 600 894 l 936 894 l 936 353 q 877 151 936 233 q 717 28 818 69 q 489 -14 615 -14 z "},"V":{"ha":1079,"x_min":21,"x_max":1058,"o":"m 365 0 l 21 894 l 371 894 l 539 397 l 708 894 l 1058 894 l 714 0 l 365 0 z "},"W":{"ha":1268,"x_min":21,"x_max":1244,"o":"m 229 0 l 21 894 l 349 894 l 417 553 l 468 743 l 468 894 l 742 894 l 842 551 l 918 894 l 1244 894 l 1038 0 l 744 0 l 638 353 l 522 0 l 229 0 z "},"Ẃ":{"ha":1265,"x_min":21,"x_max":1244,"o":"m 475 956 l 608 1269 l 867 1269 l 721 956 l 475 956 m 229 0 l 21 894 l 349 894 l 417 553 l 468 743 l 468 894 l 742 894 l 842 551 l 918 894 l 1244 894 l 1038 0 l 744 0 l 638 353 l 522 0 l 229 0 z "},"Ŵ":{"ha":1265,"x_min":21,"x_max":1244,"o":"m 297 956 l 540 1256 l 736 1256 l 979 956 l 746 956 l 639 1104 l 538 956 l 297 956 m 229 0 l 21 894 l 349 894 l 417 553 l 468 743 l 468 894 l 742 894 l 842 551 l 918 894 l 1244 894 l 1038 0 l 744 0 l 638 353 l 522 0 l 229 0 z "},"Ẅ":{"ha":1265,"x_min":21,"x_max":1244,"o":"m 367 997 l 367 1193 l 583 1193 l 583 997 l 367 997 m 693 997 l 693 1193 l 910 1193 l 910 997 l 693 997 m 229 0 l 21 894 l 349 894 l 417 553 l 468 743 l 468 894 l 742 894 l 842 551 l 918 894 l 1244 894 l 1038 0 l 744 0 l 638 353 l 522 0 l 229 0 z "},"Ẁ":{"ha":1265,"x_min":21,"x_max":1244,"o":"m 493 956 l 347 1269 l 606 1269 l 739 956 l 493 956 m 229 0 l 21 894 l 349 894 l 417 553 l 468 743 l 468 894 l 742 894 l 842 551 l 918 894 l 1244 894 l 1038 0 l 744 0 l 638 353 l 522 0 l 229 0 z "},"X":{"ha":1124,"x_min":21,"x_max":1103,"o":"m 21 0 l 360 457 l 38 894 l 439 894 l 561 729 l 685 894 l 1086 894 l 764 457 l 1103 0 l 696 0 l 561 182 l 428 0 l 21 0 z "},"Y":{"ha":1011,"x_min":14,"x_max":997,"o":"m 338 0 l 338 325 l 14 894 l 364 894 l 506 610 l 647 894 l 997 894 l 674 325 l 674 0 l 338 0 z "},"Ý":{"ha":1025,"x_min":21,"x_max":1004,"o":"m 389 956 l 522 1269 l 781 1269 l 635 956 l 389 956 m 344 0 l 344 325 l 21 894 l 371 894 l 513 610 l 654 894 l 1004 894 l 681 325 l 681 0 l 344 0 z "},"Ŷ":{"ha":1025,"x_min":21,"x_max":1004,"o":"m 172 956 l 415 1256 l 611 1256 l 854 956 l 621 956 l 514 1104 l 413 956 l 172 956 m 344 0 l 344 325 l 21 894 l 371 894 l 513 610 l 654 894 l 1004 894 l 681 325 l 681 0 l 344 0 z "},"Ÿ":{"ha":1025,"x_min":21,"x_max":1004,"o":"m 242 997 l 242 1193 l 458 1193 l 458 997 l 242 997 m 568 997 l 568 1193 l 785 1193 l 785 997 l 568 997 m 344 0 l 344 325 l 21 894 l 371 894 l 513 610 l 654 894 l 1004 894 l 681 325 l 681 0 l 344 0 z "},"Ẏ":{"ha":1025,"x_min":21,"x_max":1004,"o":"m 404 997 l 404 1193 l 621 1193 l 621 997 l 404 997 m 344 0 l 344 325 l 21 894 l 371 894 l 513 610 l 654 894 l 1004 894 l 681 325 l 681 0 l 344 0 z "},"Ỵ":{"ha":1025,"x_min":21,"x_max":1004,"o":"m 344 0 l 344 325 l 21 894 l 371 894 l 513 610 l 654 894 l 1004 894 l 681 325 l 681 0 l 344 0 m 404 -296 l 404 -100 l 621 -100 l 621 -296 l 404 -296 z "},"Ỳ":{"ha":1025,"x_min":21,"x_max":1004,"o":"m 394 956 l 249 1269 l 507 1269 l 640 956 l 394 956 m 344 0 l 344 325 l 21 894 l 371 894 l 513 610 l 654 894 l 1004 894 l 681 325 l 681 0 l 344 0 z "},"Ỷ":{"ha":1025,"x_min":21,"x_max":1004,"o":"m 392 954 l 392 1067 q 485 1085 460 1071 q 510 1121 510 1100 q 440 1160 510 1160 q 363 1146 397 1160 l 363 1276 q 440 1292 396 1286 q 543 1297 483 1297 q 699 1254 644 1297 q 753 1149 753 1211 q 726 1055 753 1086 q 639 1004 700 1024 l 639 954 l 392 954 m 344 0 l 344 325 l 21 894 l 371 894 l 513 610 l 654 894 l 1004 894 l 681 325 l 681 0 l 344 0 z "},"Ỹ":{"ha":1025,"x_min":21,"x_max":1004,"o":"m 660 963 q 562 978 610 963 q 469 1008 514 993 q 381 1024 424 1024 q 297 1008 333 1024 q 235 967 260 992 l 235 1163 q 294 1197 256 1182 q 376 1211 333 1211 q 473 1196 428 1211 q 563 1165 518 1181 q 656 1150 608 1150 q 740 1167 704 1150 q 792 1207 775 1185 l 792 1011 q 741 978 778 993 q 660 963 704 963 m 344 0 l 344 325 l 21 894 l 371 894 l 513 610 l 654 894 l 1004 894 l 681 325 l 681 0 l 344 0 z "},"Z":{"ha":814,"x_min":21,"x_max":800,"o":"m 21 0 l 21 165 l 349 619 l 40 619 l 40 894 l 792 894 l 792 704 l 468 256 l 800 256 l 800 0 l 21 0 z "},"Ź":{"ha":814,"x_min":21,"x_max":800,"o":"m 267 956 l 400 1269 l 658 1269 l 513 956 l 267 956 m 21 0 l 21 165 l 349 619 l 40 619 l 40 894 l 792 894 l 792 704 l 468 256 l 800 256 l 800 0 l 21 0 z "},"Ž":{"ha":814,"x_min":21,"x_max":800,"o":"m 338 956 l 94 1256 l 335 1256 l 436 1107 l 543 1256 l 776 1256 l 533 956 l 338 956 m 21 0 l 21 165 l 349 619 l 40 619 l 40 894 l 792 894 l 792 704 l 468 256 l 800 256 l 800 0 l 21 0 z "},"Ż":{"ha":814,"x_min":21,"x_max":800,"o":"m 314 997 l 314 1193 l 531 1193 l 531 997 l 314 997 m 21 0 l 21 165 l 349 619 l 40 619 l 40 894 l 792 894 l 792 704 l 468 256 l 800 256 l 800 0 l 21 0 z "},"Ẓ":{"ha":814,"x_min":21,"x_max":800,"o":"m 21 0 l 21 165 l 349 619 l 40 619 l 40 894 l 792 894 l 792 704 l 468 256 l 800 256 l 800 0 l 21 0 m 328 -296 l 328 -100 l 544 -100 l 544 -296 l 328 -296 z "},"a":{"ha":815,"x_min":21,"x_max":774,"o":"m 253 -14 q 138 8 190 -14 q 53 79 85 31 q 21 206 21 128 q 91 374 21 317 q 307 431 161 431 l 454 431 l 454 438 q 425 465 454 453 q 336 476 396 476 q 222 467 283 476 q 104 442 160 458 l 104 622 q 242 659 158 646 q 403 672 326 672 q 596 642 513 672 q 726 551 679 613 q 774 393 774 489 l 774 0 l 479 0 l 465 47 q 380 3 432 21 q 253 -14 328 -14 m 379 169 q 423 178 406 169 q 454 200 440 186 l 454 261 l 393 261 q 331 215 331 261 q 379 169 331 169 z "},"á":{"ha":815,"x_min":21,"x_max":774,"o":"m 288 725 l 421 1039 l 679 1039 l 533 725 l 288 725 m 253 -14 q 138 8 190 -14 q 53 79 85 31 q 21 206 21 128 q 91 374 21 317 q 307 431 161 431 l 454 431 l 454 438 q 425 465 454 453 q 336 476 396 476 q 222 467 283 476 q 104 442 160 458 l 104 622 q 242 659 158 646 q 403 672 326 672 q 596 642 513 672 q 726 551 679 613 q 774 393 774 489 l 774 0 l 479 0 l 465 47 q 380 3 432 21 q 253 -14 328 -14 m 379 169 q 423 178 406 169 q 454 200 440 186 l 454 261 l 393 261 q 331 215 331 261 q 379 169 331 169 z "},"ă":{"ha":815,"x_min":21,"x_max":774,"o":"m 435 725 q 213 803 296 725 q 129 1031 129 882 l 344 1031 q 364 946 344 983 q 435 908 383 908 q 507 946 488 908 q 526 1031 526 983 l 742 1031 q 658 803 742 882 q 435 725 575 725 m 253 -14 q 138 8 190 -14 q 53 79 85 31 q 21 206 21 128 q 91 374 21 317 q 307 431 161 431 l 454 431 l 454 438 q 425 465 454 453 q 336 476 396 476 q 222 467 283 476 q 104 442 160 458 l 104 622 q 242 659 158 646 q 403 672 326 672 q 596 642 513 672 q 726 551 679 613 q 774 393 774 489 l 774 0 l 479 0 l 465 47 q 380 3 432 21 q 253 -14 328 -14 m 379 169 q 423 178 406 169 q 454 200 440 186 l 454 261 l 393 261 q 331 215 331 261 q 379 169 331 169 z "},"ắ":{"ha":815,"x_min":21,"x_max":774,"o":"m 338 1013 l 442 1251 l 658 1251 l 543 1013 l 338 1013 m 432 725 q 232 788 307 725 q 157 986 157 851 l 343 986 q 364 916 343 944 q 432 888 385 888 q 501 916 481 888 q 522 986 522 944 l 708 986 q 633 788 708 851 q 432 725 558 725 m 253 -14 q 138 8 190 -14 q 53 79 85 31 q 21 206 21 128 q 91 374 21 317 q 307 431 161 431 l 454 431 l 454 438 q 425 465 454 453 q 336 476 396 476 q 222 467 283 476 q 104 442 160 458 l 104 622 q 242 659 158 646 q 403 672 326 672 q 596 642 513 672 q 726 551 679 613 q 774 393 774 489 l 774 0 l 479 0 l 465 47 q 380 3 432 21 q 253 -14 328 -14 m 379 169 q 423 178 406 169 q 454 200 440 186 l 454 261 l 393 261 q 331 215 331 261 q 379 169 331 169 z "},"ặ":{"ha":815,"x_min":21,"x_max":774,"o":"m 446 725 q 224 803 307 725 q 140 1031 140 882 l 356 1031 q 375 946 356 983 q 446 908 394 908 q 518 946 499 908 q 538 1031 538 983 l 753 1031 q 669 803 753 882 q 446 725 586 725 m 253 -14 q 138 8 190 -14 q 53 79 85 31 q 21 206 21 128 q 91 374 21 317 q 307 431 161 431 l 454 431 l 454 438 q 425 465 454 453 q 336 476 396 476 q 222 467 283 476 q 104 442 160 458 l 104 622 q 242 659 158 646 q 403 672 326 672 q 596 642 513 672 q 726 551 679 613 q 774 393 774 489 l 774 0 l 479 0 l 465 47 q 380 3 432 21 q 253 -14 328 -14 m 379 169 q 423 178 406 169 q 454 200 440 186 l 454 261 l 393 261 q 331 215 331 261 q 379 169 331 169 m 340 -296 l 340 -100 l 557 -100 l 557 -296 l 340 -296 z "},"ằ":{"ha":815,"x_min":21,"x_max":774,"o":"m 318 1013 l 203 1251 l 419 1251 l 524 1013 l 318 1013 m 429 725 q 228 788 303 725 q 153 986 153 851 l 339 986 q 360 916 339 944 q 429 888 381 888 q 498 916 478 888 q 518 986 518 944 l 704 986 q 629 788 704 851 q 429 725 554 725 m 253 -14 q 138 8 190 -14 q 53 79 85 31 q 21 206 21 128 q 91 374 21 317 q 307 431 161 431 l 454 431 l 454 438 q 425 465 454 453 q 336 476 396 476 q 222 467 283 476 q 104 442 160 458 l 104 622 q 242 659 158 646 q 403 672 326 672 q 596 642 513 672 q 726 551 679 613 q 774 393 774 489 l 774 0 l 479 0 l 465 47 q 380 3 432 21 q 253 -14 328 -14 m 379 169 q 423 178 406 169 q 454 200 440 186 l 454 261 l 393 261 q 331 215 331 261 q 379 169 331 169 z "},"ẳ":{"ha":815,"x_min":21,"x_max":774,"o":"m 304 1014 l 304 1101 q 382 1117 357 1104 q 407 1147 407 1129 q 392 1175 407 1168 q 346 1182 376 1182 q 310 1177 328 1182 q 279 1167 293 1172 l 279 1281 q 352 1293 307 1288 q 440 1299 397 1299 q 573 1261 526 1299 q 619 1171 619 1224 q 597 1096 619 1124 q 522 1051 575 1068 l 522 1014 l 304 1014 m 415 725 q 214 788 289 725 q 139 986 139 851 l 325 986 q 346 916 325 944 q 415 888 367 888 q 484 916 464 888 q 504 986 504 944 l 690 986 q 615 788 690 851 q 415 725 540 725 m 253 -14 q 138 8 190 -14 q 53 79 85 31 q 21 206 21 128 q 91 374 21 317 q 307 431 161 431 l 454 431 l 454 438 q 425 465 454 453 q 336 476 396 476 q 222 467 283 476 q 104 442 160 458 l 104 622 q 242 659 158 646 q 403 672 326 672 q 596 642 513 672 q 726 551 679 613 q 774 393 774 489 l 774 0 l 479 0 l 465 47 q 380 3 432 21 q 253 -14 328 -14 m 379 169 q 423 178 406 169 q 454 200 440 186 l 454 261 l 393 261 q 331 215 331 261 q 379 169 331 169 z "},"ẵ":{"ha":815,"x_min":21,"x_max":774,"o":"m 554 1021 q 461 1035 507 1021 q 372 1065 415 1050 q 288 1079 329 1079 q 207 1064 242 1079 q 149 1025 172 1049 l 149 1199 q 205 1231 168 1217 q 283 1244 242 1244 q 376 1230 332 1244 q 463 1201 419 1215 q 550 1186 506 1186 q 631 1202 596 1186 q 681 1240 665 1218 l 681 1067 q 632 1035 668 1049 q 554 1021 596 1021 m 413 725 q 211 788 286 725 q 136 986 136 851 l 322 986 q 343 916 322 944 q 413 888 364 888 q 481 916 461 888 q 501 986 501 944 l 688 986 q 613 788 688 851 q 413 725 538 725 m 253 -14 q 138 8 190 -14 q 53 79 85 31 q 21 206 21 128 q 91 374 21 317 q 307 431 161 431 l 454 431 l 454 438 q 425 465 454 453 q 336 476 396 476 q 222 467 283 476 q 104 442 160 458 l 104 622 q 242 659 158 646 q 403 672 326 672 q 596 642 513 672 q 726 551 679 613 q 774 393 774 489 l 774 0 l 479 0 l 465 47 q 380 3 432 21 q 253 -14 328 -14 m 379 169 q 423 178 406 169 q 454 200 440 186 l 454 261 l 393 261 q 331 215 331 261 q 379 169 331 169 z "},"ǎ":{"ha":815,"x_min":21,"x_max":774,"o":"m 321 725 l 78 1025 l 318 1025 l 419 876 l 526 1025 l 760 1025 l 517 725 l 321 725 m 253 -14 q 138 8 190 -14 q 53 79 85 31 q 21 206 21 128 q 91 374 21 317 q 307 431 161 431 l 454 431 l 454 438 q 425 465 454 453 q 336 476 396 476 q 222 467 283 476 q 104 442 160 458 l 104 622 q 242 659 158 646 q 403 672 326 672 q 596 642 513 672 q 726 551 679 613 q 774 393 774 489 l 774 0 l 479 0 l 465 47 q 380 3 432 21 q 253 -14 328 -14 m 379 169 q 423 178 406 169 q 454 200 440 186 l 454 261 l 393 261 q 331 215 331 261 q 379 169 331 169 z "},"â":{"ha":815,"x_min":21,"x_max":774,"o":"m 81 725 l 324 1025 l 519 1025 l 763 725 l 529 725 l 422 874 l 321 725 l 81 725 m 253 -14 q 138 8 190 -14 q 53 79 85 31 q 21 206 21 128 q 91 374 21 317 q 307 431 161 431 l 454 431 l 454 438 q 425 465 454 453 q 336 476 396 476 q 222 467 283 476 q 104 442 160 458 l 104 622 q 242 659 158 646 q 403 672 326 672 q 596 642 513 672 q 726 551 679 613 q 774 393 774 489 l 774 0 l 479 0 l 465 47 q 380 3 432 21 q 253 -14 328 -14 m 379 169 q 423 178 406 169 q 454 200 440 186 l 454 261 l 393 261 q 331 215 331 261 q 379 169 331 169 z "},"ấ":{"ha":815,"x_min":21,"x_max":976,"o":"m 628 908 l 732 1147 l 976 1147 l 861 908 l 628 908 m 88 725 l 307 958 l 550 958 l 769 725 l 507 725 l 429 831 l 356 725 l 88 725 m 253 -14 q 138 8 190 -14 q 53 79 85 31 q 21 206 21 128 q 91 374 21 317 q 307 431 161 431 l 454 431 l 454 438 q 425 465 454 453 q 336 476 396 476 q 222 467 283 476 q 104 442 160 458 l 104 622 q 242 659 158 646 q 403 672 326 672 q 596 642 513 672 q 726 551 679 613 q 774 393 774 489 l 774 0 l 479 0 l 465 47 q 380 3 432 21 q 253 -14 328 -14 m 379 169 q 423 178 406 169 q 454 200 440 186 l 454 261 l 393 261 q 331 215 331 261 q 379 169 331 169 z "},"ậ":{"ha":815,"x_min":21,"x_max":774,"o":"m 85 725 l 328 1025 l 524 1025 l 767 725 l 533 725 l 426 874 l 325 725 l 85 725 m 253 -14 q 138 8 190 -14 q 53 79 85 31 q 21 206 21 128 q 91 374 21 317 q 307 431 161 431 l 454 431 l 454 438 q 425 465 454 453 q 336 476 396 476 q 222 467 283 476 q 104 442 160 458 l 104 622 q 242 659 158 646 q 403 672 326 672 q 596 642 513 672 q 726 551 679 613 q 774 393 774 489 l 774 0 l 479 0 l 465 47 q 380 3 432 21 q 253 -14 328 -14 m 379 169 q 423 178 406 169 q 454 200 440 186 l 454 261 l 393 261 q 331 215 331 261 q 379 169 331 169 m 317 -296 l 317 -100 l 533 -100 l 533 -296 l 317 -296 z "},"ầ":{"ha":815,"x_min":-125,"x_max":774,"o":"m -10 908 l -125 1147 l 119 1147 l 224 908 l -10 908 m 82 725 l 301 958 l 544 958 l 764 725 l 496 725 l 422 831 l 344 725 l 82 725 m 253 -14 q 138 8 190 -14 q 53 79 85 31 q 21 206 21 128 q 91 374 21 317 q 307 431 161 431 l 454 431 l 454 438 q 425 465 454 453 q 336 476 396 476 q 222 467 283 476 q 104 442 160 458 l 104 622 q 242 659 158 646 q 403 672 326 672 q 596 642 513 672 q 726 551 679 613 q 774 393 774 489 l 774 0 l 479 0 l 465 47 q 380 3 432 21 q 253 -14 328 -14 m 379 169 q 423 178 406 169 q 454 200 440 186 l 454 261 l 393 261 q 331 215 331 261 q 379 169 331 169 z "},"ẩ":{"ha":815,"x_min":21,"x_max":947,"o":"m 632 876 l 632 988 q 703 999 685 990 q 721 1019 721 1007 q 674 1040 721 1040 q 638 1036 656 1040 q 607 1026 621 1032 l 607 1154 q 676 1166 635 1161 q 768 1171 717 1171 q 901 1133 854 1171 q 947 1043 947 1096 q 924 963 947 996 q 850 919 900 929 l 850 876 l 632 876 m 76 725 l 296 958 l 539 958 l 758 725 l 496 725 l 418 831 l 344 725 l 76 725 m 253 -14 q 138 8 190 -14 q 53 79 85 31 q 21 206 21 128 q 91 374 21 317 q 307 431 161 431 l 454 431 l 454 438 q 425 465 454 453 q 336 476 396 476 q 222 467 283 476 q 104 442 160 458 l 104 622 q 242 659 158 646 q 403 672 326 672 q 596 642 513 672 q 726 551 679 613 q 774 393 774 489 l 774 0 l 479 0 l 465 47 q 380 3 432 21 q 253 -14 328 -14 m 379 169 q 423 178 406 169 q 454 200 440 186 l 454 261 l 393 261 q 331 215 331 261 q 379 169 331 169 z "},"ẫ":{"ha":815,"x_min":21,"x_max":774,"o":"m 567 979 q 474 994 519 979 q 385 1023 428 1008 q 300 1038 342 1038 q 219 1022 254 1038 q 161 983 185 1007 l 161 1171 q 217 1203 181 1189 q 296 1217 254 1217 q 388 1202 344 1217 q 475 1173 432 1188 q 563 1158 518 1158 q 643 1174 608 1158 q 693 1213 678 1190 l 693 1025 q 644 993 681 1007 q 567 979 608 979 m 76 725 l 296 958 l 539 958 l 758 725 l 496 725 l 418 831 l 344 725 l 76 725 m 253 -14 q 138 8 190 -14 q 53 79 85 31 q 21 206 21 128 q 91 374 21 317 q 307 431 161 431 l 454 431 l 454 438 q 425 465 454 453 q 336 476 396 476 q 222 467 283 476 q 104 442 160 458 l 104 622 q 242 659 158 646 q 403 672 326 672 q 596 642 513 672 q 726 551 679 613 q 774 393 774 489 l 774 0 l 479 0 l 465 47 q 380 3 432 21 q 253 -14 328 -14 m 379 169 q 423 178 406 169 q 454 200 440 186 l 454 261 l 393 261 q 331 215 331 261 q 379 169 331 169 z "},"ä":{"ha":815,"x_min":21,"x_max":774,"o":"m 168 767 l 168 963 l 385 963 l 385 767 l 168 767 m 494 767 l 494 963 l 711 963 l 711 767 l 494 767 m 253 -14 q 138 8 190 -14 q 53 79 85 31 q 21 206 21 128 q 91 374 21 317 q 307 431 161 431 l 454 431 l 454 438 q 425 465 454 453 q 336 476 396 476 q 222 467 283 476 q 104 442 160 458 l 104 622 q 242 659 158 646 q 403 672 326 672 q 596 642 513 672 q 726 551 679 613 q 774 393 774 489 l 774 0 l 479 0 l 465 47 q 380 3 432 21 q 253 -14 328 -14 m 379 169 q 423 178 406 169 q 454 200 440 186 l 454 261 l 393 261 q 331 215 331 261 q 379 169 331 169 z "},"ạ":{"ha":815,"x_min":21,"x_max":774,"o":"m 253 -14 q 138 8 190 -14 q 53 79 85 31 q 21 206 21 128 q 91 374 21 317 q 307 431 161 431 l 454 431 l 454 438 q 425 465 454 453 q 336 476 396 476 q 222 467 283 476 q 104 442 160 458 l 104 622 q 242 659 158 646 q 403 672 326 672 q 596 642 513 672 q 726 551 679 613 q 774 393 774 489 l 774 0 l 479 0 l 465 47 q 380 3 432 21 q 253 -14 328 -14 m 379 169 q 423 178 406 169 q 454 200 440 186 l 454 261 l 393 261 q 331 215 331 261 q 379 169 331 169 m 333 -296 l 333 -100 l 550 -100 l 550 -296 l 333 -296 z "},"à":{"ha":815,"x_min":21,"x_max":774,"o":"m 301 725 l 156 1039 l 414 1039 l 547 725 l 301 725 m 253 -14 q 138 8 190 -14 q 53 79 85 31 q 21 206 21 128 q 91 374 21 317 q 307 431 161 431 l 454 431 l 454 438 q 425 465 454 453 q 336 476 396 476 q 222 467 283 476 q 104 442 160 458 l 104 622 q 242 659 158 646 q 403 672 326 672 q 596 642 513 672 q 726 551 679 613 q 774 393 774 489 l 774 0 l 479 0 l 465 47 q 380 3 432 21 q 253 -14 328 -14 m 379 169 q 423 178 406 169 q 454 200 440 186 l 454 261 l 393 261 q 331 215 331 261 q 379 169 331 169 z "},"ả":{"ha":815,"x_min":21,"x_max":774,"o":"m 290 725 l 290 838 q 383 856 358 842 q 408 892 408 871 q 339 931 408 931 q 261 917 296 931 l 261 1047 q 338 1063 294 1057 q 442 1068 382 1068 q 597 1025 543 1068 q 651 919 651 982 q 625 826 651 857 q 538 775 599 794 l 538 725 l 290 725 m 253 -14 q 138 8 190 -14 q 53 79 85 31 q 21 206 21 128 q 91 374 21 317 q 307 431 161 431 l 454 431 l 454 438 q 425 465 454 453 q 336 476 396 476 q 222 467 283 476 q 104 442 160 458 l 104 622 q 242 659 158 646 q 403 672 326 672 q 596 642 513 672 q 726 551 679 613 q 774 393 774 489 l 774 0 l 479 0 l 465 47 q 380 3 432 21 q 253 -14 328 -14 m 379 169 q 423 178 406 169 q 454 200 440 186 l 454 261 l 393 261 q 331 215 331 261 q 379 169 331 169 z "},"ɑ":{"ha":872,"x_min":21,"x_max":824,"o":"m 315 -14 q 97 63 174 -14 q 21 300 21 139 q 106 573 21 474 q 338 672 190 672 q 428 658 389 672 q 493 624 468 644 l 493 658 l 824 658 l 824 0 l 532 0 l 517 43 q 428 1 481 17 q 315 -14 376 -14 m 429 226 q 488 247 464 226 l 488 411 q 429 432 463 432 q 364 311 364 432 q 382 242 364 257 q 429 226 400 226 z "},"ā":{"ha":815,"x_min":21,"x_max":774,"o":"m 207 739 l 207 933 l 692 933 l 692 739 l 207 739 m 253 -14 q 138 8 190 -14 q 53 79 85 31 q 21 206 21 128 q 91 374 21 317 q 307 431 161 431 l 454 431 l 454 438 q 425 465 454 453 q 336 476 396 476 q 222 467 283 476 q 104 442 160 458 l 104 622 q 242 659 158 646 q 403 672 326 672 q 596 642 513 672 q 726 551 679 613 q 774 393 774 489 l 774 0 l 479 0 l 465 47 q 380 3 432 21 q 253 -14 328 -14 m 379 169 q 423 178 406 169 q 454 200 440 186 l 454 261 l 393 261 q 331 215 331 261 q 379 169 331 169 z "},"ą":{"ha":815,"x_min":21,"x_max":774,"o":"m 253 -14 q 138 8 190 -14 q 53 79 85 31 q 21 206 21 128 q 91 374 21 317 q 307 431 161 431 l 454 431 l 454 438 q 425 465 454 453 q 336 476 396 476 q 222 467 283 476 q 104 442 160 458 l 104 622 q 242 659 158 646 q 403 672 326 672 q 596 642 513 672 q 726 551 679 613 q 774 393 774 489 l 774 0 l 679 0 q 631 -49 650 -22 q 611 -106 611 -75 q 628 -140 611 -132 q 676 -149 646 -149 q 715 -144 694 -149 q 747 -133 735 -140 l 747 -281 q 678 -297 724 -289 q 581 -306 633 -306 q 431 -271 486 -306 q 375 -161 375 -236 q 406 -65 375 -107 q 479 0 436 -24 l 465 47 q 380 3 432 21 q 253 -14 328 -14 m 379 169 q 423 178 406 169 q 454 200 440 186 l 454 261 l 393 261 q 331 215 331 261 q 379 169 331 169 z "},"å":{"ha":815,"x_min":21,"x_max":774,"o":"m 443 725 q 285 783 339 725 q 231 924 231 840 q 285 1066 231 1008 q 443 1124 339 1124 q 603 1066 549 1124 q 657 924 657 1008 q 603 783 657 840 q 443 725 549 725 m 443 853 q 500 874 482 853 q 518 924 518 896 q 500 973 518 951 q 443 994 482 994 q 386 973 404 994 q 368 924 368 951 q 386 874 368 896 q 443 853 404 853 m 253 -14 q 138 8 190 -14 q 53 79 85 31 q 21 206 21 128 q 91 374 21 317 q 307 431 161 431 l 454 431 l 454 438 q 425 465 454 453 q 336 476 396 476 q 222 467 283 476 q 104 442 160 458 l 104 622 q 242 659 158 646 q 403 672 326 672 q 596 642 513 672 q 726 551 679 613 q 774 393 774 489 l 774 0 l 479 0 l 465 47 q 380 3 432 21 q 253 -14 328 -14 m 379 169 q 423 178 406 169 q 454 200 440 186 l 454 261 l 393 261 q 331 215 331 261 q 379 169 331 169 z "},"ǻ":{"ha":815,"x_min":21,"x_max":774,"o":"m 288 1171 l 421 1421 l 679 1421 l 533 1171 l 288 1171 m 443 725 q 285 783 339 725 q 231 924 231 840 q 285 1066 231 1008 q 443 1124 339 1124 q 603 1066 549 1124 q 657 924 657 1008 q 603 783 657 840 q 443 725 549 725 m 443 853 q 500 874 482 853 q 518 924 518 896 q 500 973 518 951 q 443 994 482 994 q 386 973 404 994 q 368 924 368 951 q 386 874 368 896 q 443 853 404 853 m 253 -14 q 138 8 190 -14 q 53 79 85 31 q 21 206 21 128 q 91 374 21 317 q 307 431 161 431 l 454 431 l 454 438 q 425 465 454 453 q 336 476 396 476 q 222 467 283 476 q 104 442 160 458 l 104 622 q 242 659 158 646 q 403 672 326 672 q 596 642 513 672 q 726 551 679 613 q 774 393 774 489 l 774 0 l 479 0 l 465 47 q 380 3 432 21 q 253 -14 328 -14 m 379 169 q 423 178 406 169 q 454 200 440 186 l 454 261 l 393 261 q 331 215 331 261 q 379 169 331 169 z "},"ã":{"ha":815,"x_min":21,"x_max":774,"o":"m 588 732 q 490 747 538 732 q 397 778 442 763 q 308 793 351 793 q 224 777 261 793 q 163 736 188 761 l 163 932 q 222 966 183 951 q 304 981 261 981 q 401 965 356 981 q 491 935 446 950 q 583 919 536 919 q 667 937 632 919 q 719 976 703 954 l 719 781 q 669 747 706 763 q 588 732 632 732 m 253 -14 q 138 8 190 -14 q 53 79 85 31 q 21 206 21 128 q 91 374 21 317 q 307 431 161 431 l 454 431 l 454 438 q 425 465 454 453 q 336 476 396 476 q 222 467 283 476 q 104 442 160 458 l 104 622 q 242 659 158 646 q 403 672 326 672 q 596 642 513 672 q 726 551 679 613 q 774 393 774 489 l 774 0 l 479 0 l 465 47 q 380 3 432 21 q 253 -14 328 -14 m 379 169 q 423 178 406 169 q 454 200 440 186 l 454 261 l 393 261 q 331 215 331 261 q 379 169 331 169 z "},"æ":{"ha":1235,"x_min":21,"x_max":1214,"o":"m 307 -14 q 165 8 231 -14 q 60 79 100 31 q 21 206 21 128 q 91 374 21 317 q 307 431 161 431 l 454 431 l 454 438 q 425 465 454 453 q 336 476 396 476 q 222 467 283 476 q 104 442 160 458 l 104 622 q 242 659 158 646 q 403 672 326 672 q 524 656 465 672 q 621 607 582 639 q 719 654 661 636 q 842 672 778 672 q 1113 589 1011 672 q 1214 351 1214 506 l 1214 239 l 775 239 q 844 198 796 213 q 968 183 892 183 q 1089 194 1031 183 q 1181 217 1147 204 l 1181 36 q 1058 -1 1129 11 q 886 -14 986 -14 q 788 -2 839 -14 q 693 32 738 10 q 621 86 649 54 q 500 15 569 43 q 307 -14 431 -14 m 775 407 l 926 407 l 926 419 q 911 456 926 439 q 853 474 896 474 q 793 454 811 474 q 775 407 775 435 m 379 169 q 454 200 429 169 l 454 261 l 393 261 q 331 215 331 261 q 379 169 331 169 z "},"ǽ":{"ha":1235,"x_min":21,"x_max":1214,"o":"m 464 725 l 597 1039 l 856 1039 l 710 725 l 464 725 m 307 -14 q 165 8 231 -14 q 60 79 100 31 q 21 206 21 128 q 91 374 21 317 q 307 431 161 431 l 454 431 l 454 438 q 425 465 454 453 q 336 476 396 476 q 222 467 283 476 q 104 442 160 458 l 104 622 q 242 659 158 646 q 403 672 326 672 q 524 656 465 672 q 621 607 582 639 q 719 654 661 636 q 842 672 778 672 q 1113 589 1011 672 q 1214 351 1214 506 l 1214 239 l 775 239 q 844 198 796 213 q 968 183 892 183 q 1089 194 1031 183 q 1181 217 1147 204 l 1181 36 q 1058 -1 1129 11 q 886 -14 986 -14 q 788 -2 839 -14 q 693 32 738 10 q 621 86 649 54 q 500 15 569 43 q 307 -14 431 -14 m 775 407 l 926 407 l 926 419 q 911 456 926 439 q 853 474 896 474 q 793 454 811 474 q 775 407 775 435 m 379 169 q 454 200 429 169 l 454 261 l 393 261 q 331 215 331 261 q 379 169 331 169 z "},"b":{"ha":872,"x_min":49,"x_max":851,"o":"m 540 -14 q 436 1 481 -14 q 356 43 392 17 l 340 0 l 49 0 l 49 936 l 385 936 l 385 647 q 451 665 411 658 q 528 672 492 672 q 766 596 681 672 q 851 335 851 519 q 766 72 851 158 q 540 -14 681 -14 m 443 226 q 491 248 474 226 q 508 329 508 269 q 491 410 508 389 q 443 432 474 432 q 385 411 410 432 l 385 247 q 412 232 399 238 q 443 226 425 226 z "},"c":{"ha":722,"x_min":21,"x_max":701,"o":"m 433 -14 q 219 23 313 -14 q 74 136 126 60 q 21 329 21 213 q 73 523 21 447 q 217 635 125 599 q 431 672 310 672 q 574 662 508 672 q 699 624 639 651 l 699 390 q 606 422 654 413 q 506 432 557 432 q 399 409 433 432 q 364 329 364 386 q 400 250 364 274 q 508 226 436 226 q 608 241 560 226 q 701 279 657 256 l 701 35 q 576 -3 642 8 q 433 -14 511 -14 z "},"ć":{"ha":722,"x_min":21,"x_max":701,"o":"m 282 725 l 415 1039 l 674 1039 l 528 725 l 282 725 m 433 -14 q 219 23 313 -14 q 74 136 126 60 q 21 329 21 213 q 73 523 21 447 q 217 635 125 599 q 431 672 310 672 q 574 662 508 672 q 699 624 639 651 l 699 390 q 606 422 654 413 q 506 432 557 432 q 399 409 433 432 q 364 329 364 386 q 400 250 364 274 q 508 226 436 226 q 608 241 560 226 q 701 279 657 256 l 701 35 q 576 -3 642 8 q 433 -14 511 -14 z "},"č":{"ha":722,"x_min":21,"x_max":744,"o":"m 306 725 l 63 1025 l 303 1025 l 404 876 l 511 1025 l 744 1025 l 501 725 l 306 725 m 433 -14 q 219 23 313 -14 q 74 136 126 60 q 21 329 21 213 q 73 523 21 447 q 217 635 125 599 q 431 672 310 672 q 574 662 508 672 q 699 624 639 651 l 699 390 q 606 422 654 413 q 506 432 557 432 q 399 409 433 432 q 364 329 364 386 q 400 250 364 274 q 508 226 436 226 q 608 241 560 226 q 701 279 657 256 l 701 35 q 576 -3 642 8 q 433 -14 511 -14 z "},"ç":{"ha":722,"x_min":21,"x_max":701,"o":"m 403 -333 q 361 -332 386 -333 q 314 -328 336 -331 q 281 -322 292 -325 l 281 -215 q 361 -226 321 -226 q 454 -178 454 -226 q 440 -147 454 -156 q 403 -139 426 -139 l 300 -139 l 336 -7 q 108 95 194 13 q 21 329 21 178 q 73 523 21 447 q 217 635 125 599 q 431 672 310 672 q 574 662 508 672 q 699 624 639 651 l 699 390 q 606 422 654 413 q 506 432 557 432 q 399 409 433 432 q 364 329 364 386 q 400 250 364 274 q 508 226 436 226 q 608 241 560 226 q 701 279 657 256 l 701 35 q 607 3 656 14 q 503 -11 558 -8 l 489 -51 q 599 -90 558 -51 q 639 -185 639 -128 q 580 -293 639 -253 q 403 -333 521 -333 z "},"ĉ":{"ha":722,"x_min":21,"x_max":725,"o":"m 43 725 l 286 1025 l 482 1025 l 725 725 l 492 725 l 385 874 l 283 725 l 43 725 m 433 -14 q 219 23 313 -14 q 74 136 126 60 q 21 329 21 213 q 73 523 21 447 q 217 635 125 599 q 431 672 310 672 q 574 662 508 672 q 699 624 639 651 l 699 390 q 606 422 654 413 q 506 432 557 432 q 399 409 433 432 q 364 329 364 386 q 400 250 364 274 q 508 226 436 226 q 608 241 560 226 q 701 279 657 256 l 701 35 q 576 -3 642 8 q 433 -14 511 -14 z "},"ċ":{"ha":722,"x_min":21,"x_max":701,"o":"m 278 767 l 278 963 l 494 963 l 494 767 l 278 767 m 433 -14 q 219 23 313 -14 q 74 136 126 60 q 21 329 21 213 q 73 523 21 447 q 217 635 125 599 q 431 672 310 672 q 574 662 508 672 q 699 624 639 651 l 699 390 q 606 422 654 413 q 506 432 557 432 q 399 409 433 432 q 364 329 364 386 q 400 250 364 274 q 508 226 436 226 q 608 241 560 226 q 701 279 657 256 l 701 35 q 576 -3 642 8 q 433 -14 511 -14 z "},"d":{"ha":872,"x_min":21,"x_max":824,"o":"m 332 -14 q 169 18 239 -14 q 60 121 99 50 q 21 308 21 192 q 63 513 21 432 q 177 633 104 593 q 344 672 250 672 q 421 665 381 672 q 488 647 461 658 l 488 936 l 824 936 l 824 0 l 532 0 l 517 43 q 437 1 481 17 q 332 -14 393 -14 m 429 226 q 461 232 449 226 q 488 247 474 238 l 488 411 q 429 432 463 432 q 381 401 399 432 q 364 311 364 371 q 381 239 364 251 q 429 226 399 226 z "},"ð":{"ha":860,"x_min":21,"x_max":818,"o":"m 417 -14 q 185 22 272 -14 q 59 125 97 58 q 21 285 21 192 q 107 501 21 432 q 344 569 193 569 q 433 560 386 569 q 506 535 479 550 l 506 553 q 503 599 506 576 q 489 642 500 622 l 367 589 l 367 665 l 426 690 q 390 699 410 696 q 344 701 369 701 q 240 690 289 701 q 139 654 192 678 l 139 865 q 264 899 196 889 q 403 908 332 908 q 573 881 500 908 q 697 807 646 854 l 813 857 l 813 781 l 746 751 q 800 634 782 700 q 818 497 818 568 l 818 360 q 719 82 818 178 q 417 -14 619 -14 m 414 203 q 483 224 460 203 q 506 299 506 246 l 506 343 q 458 361 482 354 q 411 368 435 368 q 340 347 360 368 q 319 285 319 325 q 414 203 319 203 z "},"ď":{"ha":1197,"x_min":21,"x_max":1197,"o":"m 332 -14 q 169 18 239 -14 q 60 121 99 50 q 21 308 21 192 q 63 513 21 432 q 177 633 104 593 q 344 672 250 672 q 421 665 381 672 q 488 647 461 658 l 488 936 l 824 936 l 824 0 l 532 0 l 517 43 q 437 1 481 17 q 332 -14 393 -14 m 897 590 l 949 936 l 1197 936 l 1107 590 l 897 590 m 429 226 q 461 232 449 226 q 488 247 474 238 l 488 411 q 429 432 463 432 q 381 401 399 432 q 364 311 364 371 q 381 239 364 251 q 429 226 399 226 z "},"đ":{"ha":876,"x_min":21,"x_max":869,"o":"m 332 -14 q 169 18 239 -14 q 60 121 99 50 q 21 308 21 192 q 63 513 21 432 q 177 633 104 593 q 344 672 250 672 q 421 665 381 672 q 488 647 461 658 l 488 703 l 332 703 l 332 890 l 488 890 l 488 936 l 824 936 l 824 890 l 869 890 l 869 703 l 824 703 l 824 0 l 532 0 l 517 43 q 437 1 481 17 q 332 -14 393 -14 m 429 226 q 461 232 449 226 q 488 247 474 238 l 488 411 q 429 432 463 432 q 381 401 399 432 q 364 311 364 371 q 381 239 364 251 q 429 226 399 226 z "},"ḍ":{"ha":872,"x_min":21,"x_max":824,"o":"m 332 -14 q 169 18 239 -14 q 60 121 99 50 q 21 308 21 192 q 63 513 21 432 q 177 633 104 593 q 344 672 250 672 q 421 665 381 672 q 488 647 461 658 l 488 936 l 824 936 l 824 0 l 532 0 l 517 43 q 437 1 481 17 q 332 -14 393 -14 m 429 226 q 461 232 449 226 q 488 247 474 238 l 488 411 q 429 432 463 432 q 381 401 399 432 q 364 311 364 371 q 381 239 364 251 q 429 226 399 226 m 283 -296 l 283 -100 l 500 -100 l 500 -296 l 283 -296 z "},"ḏ":{"ha":872,"x_min":21,"x_max":824,"o":"m 332 -14 q 169 18 239 -14 q 60 121 99 50 q 21 308 21 192 q 63 513 21 432 q 177 633 104 593 q 344 672 250 672 q 421 665 381 672 q 488 647 461 658 l 488 936 l 824 936 l 824 0 l 532 0 l 517 43 q 437 1 481 17 q 332 -14 393 -14 m 429 226 q 461 232 449 226 q 488 247 474 238 l 488 411 q 429 432 463 432 q 381 401 399 432 q 364 311 364 371 q 381 239 364 251 q 429 226 399 226 m 239 -267 l 239 -72 l 724 -72 l 724 -267 l 239 -267 z "},"e":{"ha":788,"x_min":21,"x_max":767,"o":"m 431 -14 q 222 25 314 -14 q 75 140 129 64 q 21 326 21 215 q 115 578 21 483 q 394 672 208 672 q 665 589 564 672 q 767 351 767 506 l 767 239 l 328 239 q 397 198 349 213 q 521 183 444 183 q 642 194 583 183 q 733 217 700 204 l 733 36 q 431 -14 629 -14 m 328 407 l 479 407 l 479 419 q 464 456 479 439 q 406 474 449 474 q 346 454 364 474 q 328 407 328 435 z "},"é":{"ha":788,"x_min":21,"x_max":767,"o":"m 286 725 l 419 1039 l 678 1039 l 532 725 l 286 725 m 431 -14 q 222 25 314 -14 q 75 140 129 64 q 21 326 21 215 q 115 578 21 483 q 394 672 208 672 q 665 589 564 672 q 767 351 767 506 l 767 239 l 328 239 q 397 198 349 213 q 521 183 444 183 q 642 194 583 183 q 733 217 700 204 l 733 36 q 431 -14 629 -14 m 328 407 l 479 407 l 479 419 q 464 456 479 439 q 406 474 449 474 q 346 454 364 474 q 328 407 328 435 z "},"ĕ":{"ha":788,"x_min":21,"x_max":767,"o":"m 404 725 q 182 803 265 725 q 99 1031 99 882 l 314 1031 q 333 946 314 983 q 404 908 353 908 q 476 946 457 908 q 496 1031 496 983 l 711 1031 q 628 803 711 882 q 404 725 544 725 m 431 -14 q 222 25 314 -14 q 75 140 129 64 q 21 326 21 215 q 115 578 21 483 q 394 672 208 672 q 665 589 564 672 q 767 351 767 506 l 767 239 l 328 239 q 397 198 349 213 q 521 183 444 183 q 642 194 583 183 q 733 217 700 204 l 733 36 q 431 -14 629 -14 m 328 407 l 479 407 l 479 419 q 464 456 479 439 q 406 474 449 474 q 346 454 364 474 q 328 407 328 435 z "},"ě":{"ha":788,"x_min":21,"x_max":767,"o":"m 311 725 l 68 1025 l 308 1025 l 410 876 l 517 1025 l 750 1025 l 507 725 l 311 725 m 431 -14 q 222 25 314 -14 q 75 140 129 64 q 21 326 21 215 q 115 578 21 483 q 394 672 208 672 q 665 589 564 672 q 767 351 767 506 l 767 239 l 328 239 q 397 198 349 213 q 521 183 444 183 q 642 194 583 183 q 733 217 700 204 l 733 36 q 431 -14 629 -14 m 328 407 l 479 407 l 479 419 q 464 456 479 439 q 406 474 449 474 q 346 454 364 474 q 328 407 328 435 z "},"ê":{"ha":788,"x_min":21,"x_max":767,"o":"m 60 725 l 303 1025 l 499 1025 l 742 725 l 508 725 l 401 874 l 300 725 l 60 725 m 431 -14 q 222 25 314 -14 q 75 140 129 64 q 21 326 21 215 q 115 578 21 483 q 394 672 208 672 q 665 589 564 672 q 767 351 767 506 l 767 239 l 328 239 q 397 198 349 213 q 521 183 444 183 q 642 194 583 183 q 733 217 700 204 l 733 36 q 431 -14 629 -14 m 328 407 l 479 407 l 479 419 q 464 456 479 439 q 406 474 449 474 q 346 454 364 474 q 328 407 328 435 z "},"ế":{"ha":788,"x_min":21,"x_max":964,"o":"m 615 908 l 719 1147 l 964 1147 l 849 908 l 615 908 m 75 725 l 294 958 l 538 958 l 757 725 l 494 725 l 417 831 l 343 725 l 75 725 m 431 -14 q 222 25 314 -14 q 75 140 129 64 q 21 326 21 215 q 115 578 21 483 q 394 672 208 672 q 665 589 564 672 q 767 351 767 506 l 767 239 l 328 239 q 397 198 349 213 q 521 183 444 183 q 642 194 583 183 q 733 217 700 204 l 733 36 q 431 -14 629 -14 m 328 407 l 479 407 l 479 419 q 464 456 479 439 q 406 474 449 474 q 346 454 364 474 q 328 407 328 435 z "},"ệ":{"ha":788,"x_min":21,"x_max":767,"o":"m 49 725 l 292 1025 l 488 1025 l 731 725 l 497 725 l 390 874 l 289 725 l 49 725 m 431 -14 q 222 25 314 -14 q 75 140 129 64 q 21 326 21 215 q 115 578 21 483 q 394 672 208 672 q 665 589 564 672 q 767 351 767 506 l 767 239 l 328 239 q 397 198 349 213 q 521 183 444 183 q 642 194 583 183 q 733 217 700 204 l 733 36 q 431 -14 629 -14 m 328 407 l 479 407 l 479 419 q 464 456 479 439 q 406 474 449 474 q 346 454 364 474 q 328 407 328 435 m 282 -296 l 282 -100 l 499 -100 l 499 -296 l 282 -296 z "},"ề":{"ha":788,"x_min":-135,"x_max":767,"o":"m -19 908 l -135 1147 l 110 1147 l 214 908 l -19 908 m 72 725 l 292 958 l 535 958 l 754 725 l 486 725 l 413 831 l 335 725 l 72 725 m 431 -14 q 222 25 314 -14 q 75 140 129 64 q 21 326 21 215 q 115 578 21 483 q 394 672 208 672 q 665 589 564 672 q 767 351 767 506 l 767 239 l 328 239 q 397 198 349 213 q 521 183 444 183 q 642 194 583 183 q 733 217 700 204 l 733 36 q 431 -14 629 -14 m 328 407 l 479 407 l 479 419 q 464 456 479 439 q 406 474 449 474 q 346 454 364 474 q 328 407 328 435 z "},"ể":{"ha":788,"x_min":21,"x_max":933,"o":"m 618 876 l 618 988 q 689 999 671 990 q 707 1019 707 1007 q 660 1040 707 1040 q 624 1036 642 1040 q 593 1026 607 1032 l 593 1154 q 662 1166 621 1161 q 754 1171 703 1171 q 887 1133 840 1171 q 933 1043 933 1096 q 910 963 933 996 q 836 919 886 929 l 836 876 l 618 876 m 63 725 l 282 958 l 525 958 l 744 725 l 482 725 l 404 831 l 331 725 l 63 725 m 431 -14 q 222 25 314 -14 q 75 140 129 64 q 21 326 21 215 q 115 578 21 483 q 394 672 208 672 q 665 589 564 672 q 767 351 767 506 l 767 239 l 328 239 q 397 198 349 213 q 521 183 444 183 q 642 194 583 183 q 733 217 700 204 l 733 36 q 431 -14 629 -14 m 328 407 l 479 407 l 479 419 q 464 456 479 439 q 406 474 449 474 q 346 454 364 474 q 328 407 328 435 z "},"ễ":{"ha":788,"x_min":21,"x_max":767,"o":"m 553 979 q 460 994 506 979 q 371 1023 414 1008 q 286 1038 328 1038 q 206 1022 240 1038 q 147 983 171 1007 l 147 1171 q 203 1203 167 1189 q 282 1217 240 1217 q 374 1202 331 1217 q 461 1173 418 1188 q 549 1158 504 1158 q 629 1174 594 1158 q 679 1213 664 1190 l 679 1025 q 631 993 667 1007 q 553 979 594 979 m 63 725 l 282 958 l 525 958 l 744 725 l 482 725 l 404 831 l 331 725 l 63 725 m 431 -14 q 222 25 314 -14 q 75 140 129 64 q 21 326 21 215 q 115 578 21 483 q 394 672 208 672 q 665 589 564 672 q 767 351 767 506 l 767 239 l 328 239 q 397 198 349 213 q 521 183 444 183 q 642 194 583 183 q 733 217 700 204 l 733 36 q 431 -14 629 -14 m 328 407 l 479 407 l 479 419 q 464 456 479 439 q 406 474 449 474 q 346 454 364 474 q 328 407 328 435 z "},"ë":{"ha":788,"x_min":21,"x_max":767,"o":"m 129 767 l 129 963 l 346 963 l 346 767 l 129 767 m 456 767 l 456 963 l 672 963 l 672 767 l 456 767 m 431 -14 q 222 25 314 -14 q 75 140 129 64 q 21 326 21 215 q 115 578 21 483 q 394 672 208 672 q 665 589 564 672 q 767 351 767 506 l 767 239 l 328 239 q 397 198 349 213 q 521 183 444 183 q 642 194 583 183 q 733 217 700 204 l 733 36 q 431 -14 629 -14 m 328 407 l 479 407 l 479 419 q 464 456 479 439 q 406 474 449 474 q 346 454 364 474 q 328 407 328 435 z "},"ė":{"ha":788,"x_min":21,"x_max":767,"o":"m 294 767 l 294 963 l 511 963 l 511 767 l 294 767 m 431 -14 q 222 25 314 -14 q 75 140 129 64 q 21 326 21 215 q 115 578 21 483 q 394 672 208 672 q 665 589 564 672 q 767 351 767 506 l 767 239 l 328 239 q 397 198 349 213 q 521 183 444 183 q 642 194 583 183 q 733 217 700 204 l 733 36 q 431 -14 629 -14 m 328 407 l 479 407 l 479 419 q 464 456 479 439 q 406 474 449 474 q 346 454 364 474 q 328 407 328 435 z "},"ẹ":{"ha":788,"x_min":21,"x_max":767,"o":"m 431 -14 q 222 25 314 -14 q 75 140 129 64 q 21 326 21 215 q 115 578 21 483 q 394 672 208 672 q 665 589 564 672 q 767 351 767 506 l 767 239 l 328 239 q 397 198 349 213 q 521 183 444 183 q 642 194 583 183 q 733 217 700 204 l 733 36 q 431 -14 629 -14 m 328 407 l 479 407 l 479 419 q 464 456 479 439 q 406 474 449 474 q 346 454 364 474 q 328 407 328 435 m 307 -296 l 307 -100 l 524 -100 l 524 -296 l 307 -296 z "},"è":{"ha":788,"x_min":21,"x_max":767,"o":"m 278 725 l 132 1039 l 390 1039 l 524 725 l 278 725 m 431 -14 q 222 25 314 -14 q 75 140 129 64 q 21 326 21 215 q 115 578 21 483 q 394 672 208 672 q 665 589 564 672 q 767 351 767 506 l 767 239 l 328 239 q 397 198 349 213 q 521 183 444 183 q 642 194 583 183 q 733 217 700 204 l 733 36 q 431 -14 629 -14 m 328 407 l 479 407 l 479 419 q 464 456 479 439 q 406 474 449 474 q 346 454 364 474 q 328 407 328 435 z "},"ẻ":{"ha":788,"x_min":21,"x_max":767,"o":"m 281 725 l 281 838 q 374 856 349 842 q 399 892 399 871 q 329 931 399 931 q 251 917 286 931 l 251 1047 q 328 1063 285 1057 q 432 1068 372 1068 q 588 1025 533 1068 q 642 919 642 982 q 615 826 642 857 q 528 775 589 794 l 528 725 l 281 725 m 431 -14 q 222 25 314 -14 q 75 140 129 64 q 21 326 21 215 q 115 578 21 483 q 394 672 208 672 q 665 589 564 672 q 767 351 767 506 l 767 239 l 328 239 q 397 198 349 213 q 521 183 444 183 q 642 194 583 183 q 733 217 700 204 l 733 36 q 431 -14 629 -14 m 328 407 l 479 407 l 479 419 q 464 456 479 439 q 406 474 449 474 q 346 454 364 474 q 328 407 328 435 z "},"ē":{"ha":788,"x_min":21,"x_max":767,"o":"m 153 781 l 153 975 l 638 975 l 638 781 l 153 781 m 431 -14 q 222 25 314 -14 q 75 140 129 64 q 21 326 21 215 q 115 578 21 483 q 394 672 208 672 q 665 589 564 672 q 767 351 767 506 l 767 239 l 328 239 q 397 198 349 213 q 521 183 444 183 q 642 194 583 183 q 733 217 700 204 l 733 36 q 431 -14 629 -14 m 328 407 l 479 407 l 479 419 q 464 456 479 439 q 406 474 449 474 q 346 454 364 474 q 328 407 328 435 z "},"ę":{"ha":788,"x_min":21,"x_max":767,"o":"m 481 -306 q 331 -271 386 -306 q 275 -161 275 -236 q 300 -74 275 -112 q 363 -10 325 -35 q 185 42 263 0 q 65 155 108 83 q 21 326 21 226 q 115 578 21 483 q 394 672 208 672 q 665 589 564 672 q 767 351 767 506 l 767 239 l 328 239 q 397 198 349 213 q 521 183 444 183 q 642 194 583 183 q 733 217 700 204 l 733 36 q 571 -7 669 6 q 528 -53 544 -28 q 511 -106 511 -78 q 528 -140 511 -132 q 576 -149 546 -149 q 615 -144 594 -149 q 647 -133 635 -140 l 647 -281 q 578 -297 624 -289 q 481 -306 533 -306 m 328 407 l 479 407 l 479 419 q 464 456 479 439 q 406 474 449 474 q 346 454 364 474 q 328 407 328 435 z "},"ẽ":{"ha":788,"x_min":21,"x_max":767,"o":"m 557 732 q 459 747 507 732 q 366 778 411 763 q 278 793 321 793 q 194 777 231 793 q 132 736 157 761 l 132 932 q 192 966 153 951 q 274 981 231 981 q 370 965 325 981 q 460 935 415 950 q 553 919 506 919 q 637 937 601 919 q 689 976 672 954 l 689 781 q 638 747 675 763 q 557 732 601 732 m 431 -14 q 222 25 314 -14 q 75 140 129 64 q 21 326 21 215 q 115 578 21 483 q 394 672 208 672 q 665 589 564 672 q 767 351 767 506 l 767 239 l 328 239 q 397 198 349 213 q 521 183 444 183 q 642 194 583 183 q 733 217 700 204 l 733 36 q 431 -14 629 -14 m 328 407 l 479 407 l 479 419 q 464 456 479 439 q 406 474 449 474 q 346 454 364 474 q 328 407 328 435 z "},"ə":{"ha":788,"x_min":21,"x_max":767,"o":"m 382 -14 q 117 67 214 -14 q 21 307 21 147 l 21 419 l 460 419 q 403 461 442 447 q 274 475 365 475 q 149 465 211 475 q 54 442 88 454 l 54 622 q 192 659 107 646 q 371 672 278 672 q 577 638 488 672 q 717 528 667 603 q 767 332 767 453 q 722 153 767 232 q 592 31 678 75 q 382 -14 507 -14 m 382 185 q 442 204 424 185 q 460 251 460 224 l 308 251 l 308 239 q 324 202 308 219 q 382 185 339 185 z "},"f":{"ha":590,"x_min":14,"x_max":576,"o":"m 92 0 l 92 417 l 14 417 l 14 658 l 92 658 l 92 679 q 123 822 92 760 q 217 922 154 885 q 372 958 279 958 q 485 949 436 958 q 576 921 533 940 l 576 713 q 493 726 536 726 q 428 671 428 726 l 428 658 l 571 658 l 557 417 l 428 417 l 428 0 l 92 0 z "},"g":{"ha":821,"x_min":21,"x_max":807,"o":"m 358 -244 q 249 -241 310 -244 q 132 -230 188 -237 q 44 -211 76 -222 l 44 -19 q 133 -40 82 -32 q 239 -51 185 -47 q 338 -54 293 -54 q 431 -50 390 -54 q 471 -32 471 -46 q 455 -19 471 -21 q 413 -17 439 -17 l 254 -17 q 80 14 139 -17 q 21 113 21 44 q 50 194 21 161 q 131 242 79 226 q 50 313 75 271 q 25 422 25 354 q 119 612 25 551 q 385 672 214 672 q 441 670 410 672 q 499 665 472 668 q 539 658 526 661 l 807 658 l 801 460 l 729 460 q 735 440 732 451 q 738 418 738 428 q 683 259 738 317 q 500 201 628 201 q 465 202 486 201 q 429 204 444 203 q 394 198 410 203 q 378 179 378 193 q 388 165 378 168 q 414 161 397 161 l 531 161 q 696 116 633 161 q 758 -26 758 71 q 665 -183 758 -122 q 358 -244 571 -244 m 388 382 q 441 394 426 382 q 456 436 456 407 q 440 480 456 467 q 388 493 424 493 q 319 436 319 493 q 335 395 319 408 q 388 382 350 382 z "},"ğ":{"ha":814,"x_min":21,"x_max":807,"o":"m 418 725 q 196 803 279 725 q 113 1031 113 882 l 328 1031 q 347 946 328 983 q 418 908 367 908 q 490 946 471 908 q 510 1031 510 983 l 725 1031 q 642 803 725 882 q 418 725 558 725 m 358 -244 q 249 -241 310 -244 q 132 -230 188 -237 q 44 -211 76 -222 l 44 -19 q 133 -40 82 -32 q 239 -51 185 -47 q 338 -54 293 -54 q 431 -50 390 -54 q 471 -32 471 -46 q 455 -19 471 -21 q 413 -17 439 -17 l 254 -17 q 80 14 139 -17 q 21 113 21 44 q 50 194 21 161 q 131 242 79 226 q 50 313 75 271 q 25 422 25 354 q 119 612 25 551 q 385 672 214 672 q 441 670 410 672 q 499 665 472 668 q 539 658 526 661 l 807 658 l 801 460 l 729 460 q 735 440 732 451 q 738 418 738 428 q 683 259 738 317 q 500 201 628 201 q 465 202 486 201 q 429 204 444 203 q 394 198 410 203 q 378 179 378 193 q 388 165 378 168 q 414 161 397 161 l 531 161 q 696 116 633 161 q 758 -26 758 71 q 665 -183 758 -122 q 358 -244 571 -244 m 388 382 q 441 394 426 382 q 456 436 456 407 q 440 480 456 467 q 388 493 424 493 q 319 436 319 493 q 335 395 319 408 q 388 382 350 382 z "},"ǧ":{"ha":814,"x_min":21,"x_max":807,"o":"m 313 725 l 69 1025 l 310 1025 l 411 876 l 518 1025 l 751 1025 l 508 725 l 313 725 m 358 -244 q 249 -241 310 -244 q 132 -230 188 -237 q 44 -211 76 -222 l 44 -19 q 133 -40 82 -32 q 239 -51 185 -47 q 338 -54 293 -54 q 431 -50 390 -54 q 471 -32 471 -46 q 455 -19 471 -21 q 413 -17 439 -17 l 254 -17 q 80 14 139 -17 q 21 113 21 44 q 50 194 21 161 q 131 242 79 226 q 50 313 75 271 q 25 422 25 354 q 119 612 25 551 q 385 672 214 672 q 441 670 410 672 q 499 665 472 668 q 539 658 526 661 l 807 658 l 801 460 l 729 460 q 735 440 732 451 q 738 418 738 428 q 683 259 738 317 q 500 201 628 201 q 465 202 486 201 q 429 204 444 203 q 394 198 410 203 q 378 179 378 193 q 388 165 378 168 q 414 161 397 161 l 531 161 q 696 116 633 161 q 758 -26 758 71 q 665 -183 758 -122 q 358 -244 571 -244 m 388 382 q 441 394 426 382 q 456 436 456 407 q 440 480 456 467 q 388 493 424 493 q 319 436 319 493 q 335 395 319 408 q 388 382 350 382 z "},"ĝ":{"ha":814,"x_min":21,"x_max":807,"o":"m 78 725 l 321 1025 l 517 1025 l 760 725 l 526 725 l 419 874 l 318 725 l 78 725 m 358 -244 q 249 -241 310 -244 q 132 -230 188 -237 q 44 -211 76 -222 l 44 -19 q 133 -40 82 -32 q 239 -51 185 -47 q 338 -54 293 -54 q 431 -50 390 -54 q 471 -32 471 -46 q 455 -19 471 -21 q 413 -17 439 -17 l 254 -17 q 80 14 139 -17 q 21 113 21 44 q 50 194 21 161 q 131 242 79 226 q 50 313 75 271 q 25 422 25 354 q 119 612 25 551 q 385 672 214 672 q 441 670 410 672 q 499 665 472 668 q 539 658 526 661 l 807 658 l 801 460 l 729 460 q 735 440 732 451 q 738 418 738 428 q 683 259 738 317 q 500 201 628 201 q 465 202 486 201 q 429 204 444 203 q 394 198 410 203 q 378 179 378 193 q 388 165 378 168 q 414 161 397 161 l 531 161 q 696 116 633 161 q 758 -26 758 71 q 665 -183 758 -122 q 358 -244 571 -244 m 388 382 q 441 394 426 382 q 456 436 456 407 q 440 480 456 467 q 388 493 424 493 q 319 436 319 493 q 335 395 319 408 q 388 382 350 382 z "},"ģ":{"ha":814,"x_min":21,"x_max":807,"o":"m 272 725 l 363 1071 l 572 1071 l 521 725 l 272 725 m 358 -244 q 249 -241 310 -244 q 132 -230 188 -237 q 44 -211 76 -222 l 44 -19 q 133 -40 82 -32 q 239 -51 185 -47 q 338 -54 293 -54 q 431 -50 390 -54 q 471 -32 471 -46 q 455 -19 471 -21 q 413 -17 439 -17 l 254 -17 q 80 14 139 -17 q 21 113 21 44 q 50 194 21 161 q 131 242 79 226 q 50 313 75 271 q 25 422 25 354 q 119 612 25 551 q 385 672 214 672 q 441 670 410 672 q 499 665 472 668 q 539 658 526 661 l 807 658 l 801 460 l 729 460 q 735 440 732 451 q 738 418 738 428 q 683 259 738 317 q 500 201 628 201 q 465 202 486 201 q 429 204 444 203 q 394 198 410 203 q 378 179 378 193 q 388 165 378 168 q 414 161 397 161 l 531 161 q 696 116 633 161 q 758 -26 758 71 q 665 -183 758 -122 q 358 -244 571 -244 m 388 382 q 441 394 426 382 q 456 436 456 407 q 440 480 456 467 q 388 493 424 493 q 319 436 319 493 q 335 395 319 408 q 388 382 350 382 z "},"ġ":{"ha":814,"x_min":21,"x_max":807,"o":"m 296 739 l 296 935 l 513 935 l 513 739 l 296 739 m 358 -244 q 249 -241 310 -244 q 132 -230 188 -237 q 44 -211 76 -222 l 44 -19 q 133 -40 82 -32 q 239 -51 185 -47 q 338 -54 293 -54 q 431 -50 390 -54 q 471 -32 471 -46 q 455 -19 471 -21 q 413 -17 439 -17 l 254 -17 q 80 14 139 -17 q 21 113 21 44 q 50 194 21 161 q 131 242 79 226 q 50 313 75 271 q 25 422 25 354 q 119 612 25 551 q 385 672 214 672 q 441 670 410 672 q 499 665 472 668 q 539 658 526 661 l 807 658 l 801 460 l 729 460 q 735 440 732 451 q 738 418 738 428 q 683 259 738 317 q 500 201 628 201 q 465 202 486 201 q 429 204 444 203 q 394 198 410 203 q 378 179 378 193 q 388 165 378 168 q 414 161 397 161 l 531 161 q 696 116 633 161 q 758 -26 758 71 q 665 -183 758 -122 q 358 -244 571 -244 m 388 382 q 441 394 426 382 q 456 436 456 407 q 440 480 456 467 q 388 493 424 493 q 319 436 319 493 q 335 395 319 408 q 388 382 350 382 z "},"ḡ":{"ha":814,"x_min":21,"x_max":807,"o":"m 151 767 l 151 961 l 636 961 l 636 767 l 151 767 m 358 -244 q 249 -241 310 -244 q 132 -230 188 -237 q 44 -211 76 -222 l 44 -19 q 133 -40 82 -32 q 239 -51 185 -47 q 338 -54 293 -54 q 431 -50 390 -54 q 471 -32 471 -46 q 455 -19 471 -21 q 413 -17 439 -17 l 254 -17 q 80 14 139 -17 q 21 113 21 44 q 50 194 21 161 q 131 242 79 226 q 50 313 75 271 q 25 422 25 354 q 119 612 25 551 q 385 672 214 672 q 441 670 410 672 q 499 665 472 668 q 539 658 526 661 l 807 658 l 801 460 l 729 460 q 735 440 732 451 q 738 418 738 428 q 683 259 738 317 q 500 201 628 201 q 465 202 486 201 q 429 204 444 203 q 394 198 410 203 q 378 179 378 193 q 388 165 378 168 q 414 161 397 161 l 531 161 q 696 116 633 161 q 758 -26 758 71 q 665 -183 758 -122 q 358 -244 571 -244 m 388 382 q 441 394 426 382 q 456 436 456 407 q 440 480 456 467 q 388 493 424 493 q 319 436 319 493 q 335 395 319 408 q 388 382 350 382 z "},"h":{"ha":869,"x_min":49,"x_max":828,"o":"m 49 0 l 49 936 l 385 936 l 385 633 q 459 660 413 649 q 557 672 506 672 q 763 607 697 672 q 828 406 828 542 l 828 0 l 492 0 l 492 378 q 446 425 492 425 q 413 417 432 425 q 385 397 394 408 l 385 0 l 49 0 z "},"ħ":{"ha":883,"x_min":14,"x_max":842,"o":"m 63 0 l 63 722 l 14 722 l 14 858 l 63 858 l 63 936 l 399 936 l 399 858 l 519 858 l 519 722 l 399 722 l 399 633 q 473 660 426 649 q 571 672 519 672 q 776 607 711 672 q 842 406 842 542 l 842 0 l 506 0 l 506 378 q 460 425 506 425 q 427 417 446 425 q 399 397 408 408 l 399 0 l 63 0 z "},"ḫ":{"ha":869,"x_min":49,"x_max":828,"o":"m 49 0 l 49 936 l 385 936 l 385 633 q 459 660 413 649 q 557 672 506 672 q 763 607 697 672 q 828 406 828 542 l 828 0 l 492 0 l 492 378 q 446 425 492 425 q 413 417 432 425 q 385 397 394 408 l 385 0 l 49 0 m 446 -361 q 224 -283 307 -361 q 140 -56 140 -204 l 356 -56 q 375 -140 356 -103 q 446 -178 394 -178 q 518 -140 499 -178 q 538 -56 538 -103 l 753 -56 q 669 -283 753 -204 q 446 -361 586 -361 z "},"ĥ":{"ha":869,"x_min":49,"x_max":828,"o":"m 60 989 l 303 1289 l 499 1289 l 742 989 l 508 989 l 401 1138 l 300 989 l 60 989 m 49 0 l 49 936 l 385 936 l 385 633 q 459 660 413 649 q 557 672 506 672 q 763 607 697 672 q 828 406 828 542 l 828 0 l 492 0 l 492 378 q 446 425 492 425 q 413 417 432 425 q 385 397 394 408 l 385 0 l 49 0 z "},"ḥ":{"ha":869,"x_min":49,"x_max":828,"o":"m 49 0 l 49 936 l 385 936 l 385 633 q 459 660 413 649 q 557 672 506 672 q 763 607 697 672 q 828 406 828 542 l 828 0 l 492 0 l 492 378 q 446 425 492 425 q 413 417 432 425 q 385 397 394 408 l 385 0 l 49 0 m 322 -296 l 322 -100 l 539 -100 l 539 -296 l 322 -296 z "},"i":{"ha":504,"x_min":28,"x_max":456,"o":"m 96 713 l 96 944 l 456 944 l 456 713 l 96 713 m 119 0 l 119 417 l 28 417 l 56 658 l 456 658 l 456 0 l 119 0 z "},"ı":{"ha":504,"x_min":28,"x_max":456,"o":"m 119 0 l 119 417 l 28 417 l 56 658 l 456 658 l 456 0 l 119 0 z "},"í":{"ha":525,"x_min":49,"x_max":554,"o":"m 163 725 l 296 1039 l 554 1039 l 408 725 l 163 725 m 140 0 l 140 417 l 49 417 l 76 658 l 476 658 l 476 0 l 140 0 z "},"ĭ":{"ha":525,"x_min":-28,"x_max":585,"o":"m 278 725 q 56 803 139 725 q -28 1031 -28 882 l 188 1031 q 207 946 188 983 q 278 908 226 908 q 350 946 331 908 q 369 1031 369 983 l 585 1031 q 501 803 585 882 q 278 725 418 725 m 140 0 l 140 417 l 49 417 l 76 658 l 476 658 l 476 0 l 140 0 z "},"ǐ":{"ha":525,"x_min":-53,"x_max":629,"o":"m 190 725 l -53 1025 l 188 1025 l 289 876 l 396 1025 l 629 1025 l 386 725 l 190 725 m 140 0 l 140 417 l 49 417 l 76 658 l 476 658 l 476 0 l 140 0 z "},"î":{"ha":525,"x_min":-57,"x_max":625,"o":"m -57 725 l 186 1025 l 382 1025 l 625 725 l 392 725 l 285 874 l 183 725 l -57 725 m 140 0 l 140 417 l 49 417 l 76 658 l 476 658 l 476 0 l 140 0 z "},"ï":{"ha":525,"x_min":3,"x_max":546,"o":"m 3 767 l 3 963 l 219 963 l 219 767 l 3 767 m 329 767 l 329 963 l 546 963 l 546 767 l 329 767 m 140 0 l 140 417 l 49 417 l 76 658 l 476 658 l 476 0 l 140 0 z "},"ị":{"ha":525,"x_min":49,"x_max":476,"o":"m 117 713 l 117 944 l 476 944 l 476 713 l 117 713 m 140 0 l 140 417 l 49 417 l 76 658 l 476 658 l 476 0 l 140 0 m 201 -296 l 201 -100 l 418 -100 l 418 -296 l 201 -296 z "},"ì":{"ha":525,"x_min":32,"x_max":476,"o":"m 178 725 l 32 1039 l 290 1039 l 424 725 l 178 725 m 140 0 l 140 417 l 49 417 l 76 658 l 476 658 l 476 0 l 140 0 z "},"ỉ":{"ha":525,"x_min":49,"x_max":521,"o":"m 160 725 l 160 838 q 253 856 228 842 q 278 892 278 871 q 208 931 278 931 q 131 917 165 931 l 131 1047 q 208 1063 164 1057 q 311 1068 251 1068 q 467 1025 413 1068 q 521 919 521 982 q 494 826 521 857 q 407 775 468 794 l 407 725 l 160 725 m 140 0 l 140 417 l 49 417 l 76 658 l 476 658 l 476 0 l 140 0 z "},"ĳ":{"ha":971,"x_min":28,"x_max":922,"o":"m 96 713 l 96 944 l 456 944 l 456 713 l 96 713 m 563 713 l 563 944 l 922 944 l 922 713 l 563 713 m 642 -325 q 530 -315 578 -325 q 438 -287 482 -306 l 438 -79 q 521 -93 478 -93 q 586 -37 586 -93 l 586 417 l 494 417 l 522 658 l 922 658 l 922 -60 q 894 -196 922 -136 q 803 -290 865 -256 q 642 -325 742 -325 m 119 0 l 119 417 l 28 417 l 56 658 l 456 658 l 456 0 l 119 0 z "},"ī":{"ha":525,"x_min":29,"x_max":514,"o":"m 29 819 l 29 1014 l 514 1014 l 514 819 l 29 819 m 140 0 l 140 417 l 49 417 l 76 658 l 476 658 l 476 0 l 140 0 z "},"į":{"ha":504,"x_min":28,"x_max":460,"o":"m 96 713 l 96 944 l 456 944 l 456 713 l 96 713 m 119 0 l 119 417 l 28 417 l 56 658 l 456 658 l 456 0 l 392 0 q 343 -49 363 -22 q 324 -106 324 -75 q 341 -140 324 -132 q 389 -149 358 -149 q 427 -144 407 -149 q 460 -133 447 -140 l 460 -281 q 391 -297 436 -289 q 293 -306 346 -306 q 143 -271 199 -306 q 88 -161 88 -236 q 118 -65 88 -107 q 192 0 149 -24 l 119 0 z "},"ĩ":{"ha":525,"x_min":-11,"x_max":546,"o":"m 414 771 q 316 786 364 771 q 223 817 268 801 q 135 832 178 832 q 51 816 88 832 q -11 775 14 800 l -11 971 q 49 1005 10 990 q 131 1019 88 1019 q 227 1004 182 1019 q 317 974 272 989 q 410 958 363 958 q 494 976 458 958 q 546 1015 529 993 l 546 819 q 495 786 532 801 q 414 771 458 771 m 140 0 l 140 417 l 49 417 l 76 658 l 476 658 l 476 0 l 140 0 z "},"j":{"ha":533,"x_min":0,"x_max":485,"o":"m 125 713 l 125 944 l 485 944 l 485 713 l 125 713 m 204 -325 q 92 -315 140 -325 q 0 -287 44 -306 l 0 -79 q 83 -93 40 -93 q 149 -37 149 -93 l 149 417 l 57 417 l 85 658 l 485 658 l 485 -60 q 456 -196 485 -136 q 366 -290 428 -256 q 204 -325 304 -325 z "},"ȷ":{"ha":525,"x_min":-8,"x_max":476,"o":"m 196 -325 q 84 -315 132 -325 q -8 -287 36 -306 l -8 -79 q 75 -93 32 -93 q 140 -37 140 -93 l 140 417 l 49 417 l 76 658 l 476 658 l 476 -60 q 448 -196 476 -136 q 358 -290 419 -256 q 196 -325 296 -325 z "},"ĵ":{"ha":525,"x_min":-65,"x_max":617,"o":"m -65 725 l 178 1025 l 374 1025 l 617 725 l 383 725 l 276 874 l 175 725 l -65 725 m 197 -325 q 85 -315 133 -325 q -7 -287 38 -306 l -7 -79 q 76 -93 33 -93 q 142 -37 142 -93 l 142 417 l 50 417 l 78 658 l 478 658 l 478 -60 q 449 -196 478 -136 q 359 -290 421 -256 q 197 -325 297 -325 z "},"k":{"ha":911,"x_min":49,"x_max":897,"o":"m 49 0 l 49 936 l 385 936 l 385 526 l 506 658 l 883 658 l 624 374 l 897 0 l 542 0 l 415 199 l 385 164 l 385 0 l 49 0 z "},"ķ":{"ha":918,"x_min":49,"x_max":897,"o":"m 49 0 l 49 936 l 385 936 l 385 526 l 506 658 l 883 658 l 624 374 l 897 0 l 542 0 l 415 199 l 385 164 l 385 0 l 49 0 m 265 -397 l 317 -51 l 565 -51 l 475 -397 l 265 -397 z "},"ĸ":{"ha":918,"x_min":49,"x_max":897,"o":"m 49 0 l 49 658 l 385 658 l 385 513 l 506 658 l 883 658 l 624 360 l 897 0 l 542 0 l 415 185 l 385 150 l 385 0 l 49 0 z "},"l":{"ha":510,"x_min":49,"x_max":503,"o":"m 313 -14 q 108 44 167 -14 q 49 225 49 103 l 49 936 l 385 936 l 385 269 q 395 231 385 243 q 433 218 406 218 q 503 231 472 218 l 503 22 q 421 -5 460 4 q 313 -14 382 -14 z "},"ĺ":{"ha":510,"x_min":49,"x_max":503,"o":"m 97 1050 l 231 1364 l 489 1364 l 343 1050 l 97 1050 m 313 -14 q 108 44 167 -14 q 49 225 49 103 l 49 936 l 385 936 l 385 269 q 395 231 385 243 q 433 218 406 218 q 503 231 472 218 l 503 22 q 421 -5 460 4 q 313 -14 382 -14 z "},"ľ":{"ha":760,"x_min":49,"x_max":760,"o":"m 313 -14 q 108 44 167 -14 q 49 225 49 103 l 49 936 l 385 936 l 385 269 q 395 231 385 243 q 433 218 406 218 q 503 231 472 218 l 503 22 q 421 -5 460 4 q 313 -14 382 -14 m 460 590 l 511 936 l 760 936 l 669 590 l 460 590 z "},"ļ":{"ha":510,"x_min":49,"x_max":503,"o":"m 313 -14 q 108 44 167 -14 q 49 225 49 103 l 49 936 l 385 936 l 385 269 q 395 231 385 243 q 433 218 406 218 q 503 231 472 218 l 503 22 q 421 -5 460 4 q 313 -14 382 -14 m 132 -397 l 183 -51 l 432 -51 l 342 -397 l 132 -397 z "},"ŀ":{"ha":664,"x_min":49,"x_max":657,"o":"m 313 -14 q 108 44 167 -14 q 49 225 49 103 l 49 936 l 385 936 l 385 269 q 395 231 385 243 q 433 218 406 218 q 503 231 472 218 l 503 22 q 421 -5 460 4 q 313 -14 382 -14 m 440 431 l 440 626 l 657 626 l 657 431 l 440 431 z "},"ḷ":{"ha":510,"x_min":49,"x_max":503,"o":"m 313 -14 q 108 44 167 -14 q 49 225 49 103 l 49 936 l 385 936 l 385 269 q 395 231 385 243 q 433 218 406 218 q 503 231 472 218 l 503 22 q 421 -5 460 4 q 313 -14 382 -14 m 167 -296 l 167 -100 l 383 -100 l 383 -296 l 167 -296 z "},"ḹ":{"ha":510,"x_min":-24,"x_max":503,"o":"m -24 1014 l -24 1208 l 461 1208 l 461 1014 l -24 1014 m 313 -14 q 108 44 167 -14 q 49 225 49 103 l 49 936 l 385 936 l 385 269 q 395 231 385 243 q 433 218 406 218 q 503 231 472 218 l 503 22 q 421 -5 460 4 q 313 -14 382 -14 m 167 -296 l 167 -100 l 383 -100 l 383 -296 l 167 -296 z "},"ḻ":{"ha":510,"x_min":29,"x_max":514,"o":"m 313 -14 q 108 44 167 -14 q 49 225 49 103 l 49 936 l 385 936 l 385 269 q 395 231 385 243 q 433 218 406 218 q 503 231 472 218 l 503 22 q 421 -5 460 4 q 313 -14 382 -14 m 29 -297 l 29 -103 l 514 -103 l 514 -297 l 29 -297 z "},"ł":{"ha":510,"x_min":-40,"x_max":503,"o":"m -40 275 l -40 510 l 49 549 l 49 936 l 385 936 l 385 696 l 476 736 l 476 501 l 385 461 l 385 269 q 395 231 385 243 q 433 218 406 218 q 503 231 472 218 l 503 22 q 421 -5 460 4 q 313 -14 382 -14 q 108 44 167 -14 q 49 225 49 103 l 49 314 l -40 275 z "},"m":{"ha":1207,"x_min":49,"x_max":1165,"o":"m 49 0 l 49 658 l 360 658 l 367 618 q 456 656 406 640 q 569 672 506 672 q 662 657 628 672 q 718 611 696 642 q 816 656 763 639 q 942 672 869 672 q 1113 610 1060 672 q 1165 424 1165 549 l 1165 0 l 836 0 l 836 383 q 828 415 836 406 q 797 425 821 425 q 758 407 775 425 l 758 0 l 449 0 l 449 392 q 418 425 449 425 q 371 400 392 425 l 371 0 l 49 0 z "},"ṃ":{"ha":1207,"x_min":49,"x_max":1165,"o":"m 49 0 l 49 658 l 360 658 l 367 618 q 456 656 406 640 q 569 672 506 672 q 662 657 628 672 q 718 611 696 642 q 816 656 763 639 q 942 672 869 672 q 1113 610 1060 672 q 1165 424 1165 549 l 1165 0 l 836 0 l 836 383 q 828 415 836 406 q 797 425 821 425 q 758 407 775 425 l 758 0 l 449 0 l 449 392 q 418 425 449 425 q 371 400 392 425 l 371 0 l 49 0 m 511 -296 l 511 -100 l 728 -100 l 728 -296 l 511 -296 z "},"n":{"ha":869,"x_min":49,"x_max":828,"o":"m 49 0 l 49 658 l 364 658 l 371 621 q 469 656 407 640 q 603 672 531 672 q 774 610 721 672 q 828 424 828 549 l 828 0 l 492 0 l 492 381 q 446 425 492 425 q 413 417 432 425 q 385 397 394 408 l 385 0 l 49 0 z "},"ń":{"ha":869,"x_min":49,"x_max":828,"o":"m 254 725 l 388 1039 l 646 1039 l 500 725 l 254 725 m 49 0 l 49 658 l 364 658 l 371 621 q 469 656 407 640 q 603 672 531 672 q 774 610 721 672 q 828 424 828 549 l 828 0 l 492 0 l 492 381 q 446 425 492 425 q 413 417 432 425 q 385 397 394 408 l 385 0 l 49 0 z "},"ŉ":{"ha":876,"x_min":-228,"x_max":835,"o":"m -228 543 l -176 889 l 72 889 l -18 543 l -228 543 m 56 0 l 56 658 l 371 658 l 378 621 q 476 656 414 640 q 610 672 538 672 q 781 610 728 672 q 835 424 835 549 l 835 0 l 499 0 l 499 381 q 453 425 499 425 q 420 417 439 425 q 392 397 401 408 l 392 0 l 56 0 z "},"ň":{"ha":869,"x_min":49,"x_max":828,"o":"m 307 725 l 64 1025 l 304 1025 l 406 876 l 513 1025 l 746 1025 l 503 725 l 307 725 m 49 0 l 49 658 l 364 658 l 371 621 q 469 656 407 640 q 603 672 531 672 q 774 610 721 672 q 828 424 828 549 l 828 0 l 492 0 l 492 381 q 446 425 492 425 q 413 417 432 425 q 385 397 394 408 l 385 0 l 49 0 z "},"ņ":{"ha":869,"x_min":49,"x_max":828,"o":"m 49 0 l 49 658 l 364 658 l 371 621 q 469 656 407 640 q 603 672 531 672 q 774 610 721 672 q 828 424 828 549 l 828 0 l 492 0 l 492 381 q 446 425 492 425 q 413 417 432 425 q 385 397 394 408 l 385 0 l 49 0 m 279 -397 l 331 -51 l 579 -51 l 489 -397 l 279 -397 z "},"ṅ":{"ha":869,"x_min":49,"x_max":828,"o":"m 317 767 l 317 963 l 533 963 l 533 767 l 317 767 m 49 0 l 49 658 l 364 658 l 371 621 q 469 656 407 640 q 603 672 531 672 q 774 610 721 672 q 828 424 828 549 l 828 0 l 492 0 l 492 381 q 446 425 492 425 q 413 417 432 425 q 385 397 394 408 l 385 0 l 49 0 z "},"ṇ":{"ha":869,"x_min":49,"x_max":828,"o":"m 49 0 l 49 658 l 364 658 l 371 621 q 469 656 407 640 q 603 672 531 672 q 774 610 721 672 q 828 424 828 549 l 828 0 l 492 0 l 492 381 q 446 425 492 425 q 413 417 432 425 q 385 397 394 408 l 385 0 l 49 0 m 328 -296 l 328 -100 l 544 -100 l 544 -296 l 328 -296 z "},"ŋ":{"ha":869,"x_min":49,"x_max":828,"o":"m 547 -325 q 435 -315 483 -325 q 343 -287 388 -306 l 343 -79 q 426 -93 383 -93 q 492 -37 492 -93 l 492 381 q 446 425 492 425 q 413 417 432 425 q 385 397 394 408 l 385 0 l 49 0 l 49 658 l 364 658 l 371 621 q 469 656 407 640 q 603 672 531 672 q 774 610 721 672 q 828 424 828 549 l 828 -60 q 799 -196 828 -136 q 709 -290 771 -256 q 547 -325 647 -325 z "},"ṉ":{"ha":869,"x_min":49,"x_max":828,"o":"m 49 0 l 49 658 l 364 658 l 371 621 q 469 656 407 640 q 603 672 531 672 q 774 610 721 672 q 828 424 828 549 l 828 0 l 492 0 l 492 381 q 446 425 492 425 q 413 417 432 425 q 385 397 394 408 l 385 0 l 49 0 m 200 -289 l 200 -94 l 685 -94 l 685 -289 l 200 -289 z "},"ñ":{"ha":869,"x_min":49,"x_max":828,"o":"m 578 732 q 480 747 528 732 q 387 778 432 763 q 299 793 342 793 q 215 777 251 793 q 153 736 178 761 l 153 932 q 213 966 174 951 q 294 981 251 981 q 391 965 346 981 q 481 935 436 950 q 574 919 526 919 q 658 937 622 919 q 710 976 693 954 l 710 781 q 659 747 696 763 q 578 732 622 732 m 49 0 l 49 658 l 364 658 l 371 621 q 469 656 407 640 q 603 672 531 672 q 774 610 721 672 q 828 424 828 549 l 828 0 l 492 0 l 492 381 q 446 425 492 425 q 413 417 432 425 q 385 397 394 408 l 385 0 l 49 0 z "},"o":{"ha":871,"x_min":21,"x_max":850,"o":"m 435 -14 q 123 72 225 -14 q 21 329 21 158 q 123 586 21 500 q 435 672 225 672 q 850 329 850 672 q 435 -14 850 -14 m 435 226 q 489 249 471 226 q 507 329 507 271 q 489 410 507 388 q 435 432 471 432 q 382 410 400 432 q 364 329 364 388 q 382 249 364 271 q 435 226 400 226 z "},"ó":{"ha":871,"x_min":21,"x_max":850,"o":"m 282 725 l 415 1039 l 674 1039 l 528 725 l 282 725 m 435 -14 q 123 72 225 -14 q 21 329 21 158 q 123 586 21 500 q 435 672 225 672 q 850 329 850 672 q 435 -14 850 -14 m 435 226 q 489 249 471 226 q 507 329 507 271 q 489 410 507 388 q 435 432 471 432 q 382 410 400 432 q 364 329 364 388 q 382 249 364 271 q 435 226 400 226 z "},"ŏ":{"ha":871,"x_min":21,"x_max":850,"o":"m 435 725 q 213 803 296 725 q 129 1031 129 882 l 344 1031 q 364 946 344 983 q 435 908 383 908 q 507 946 488 908 q 526 1031 526 983 l 742 1031 q 658 803 742 882 q 435 725 575 725 m 435 -14 q 123 72 225 -14 q 21 329 21 158 q 123 586 21 500 q 435 672 225 672 q 850 329 850 672 q 435 -14 850 -14 m 435 226 q 489 249 471 226 q 507 329 507 271 q 489 410 507 388 q 435 432 471 432 q 382 410 400 432 q 364 329 364 388 q 382 249 364 271 q 435 226 400 226 z "},"ǒ":{"ha":871,"x_min":21,"x_max":850,"o":"m 338 725 l 94 1025 l 335 1025 l 436 876 l 543 1025 l 776 1025 l 533 725 l 338 725 m 435 -14 q 123 72 225 -14 q 21 329 21 158 q 123 586 21 500 q 435 672 225 672 q 850 329 850 672 q 435 -14 850 -14 m 435 226 q 489 249 471 226 q 507 329 507 271 q 489 410 507 388 q 435 432 471 432 q 382 410 400 432 q 364 329 364 388 q 382 249 364 271 q 435 226 400 226 z "},"ô":{"ha":871,"x_min":21,"x_max":850,"o":"m 94 725 l 338 1025 l 533 1025 l 776 725 l 543 725 l 436 874 l 335 725 l 94 725 m 435 -14 q 123 72 225 -14 q 21 329 21 158 q 123 586 21 500 q 435 672 225 672 q 850 329 850 672 q 435 -14 850 -14 m 435 226 q 489 249 471 226 q 507 329 507 271 q 489 410 507 388 q 435 432 471 432 q 382 410 400 432 q 364 329 364 388 q 382 249 364 271 q 435 226 400 226 z "},"ố":{"ha":871,"x_min":21,"x_max":974,"o":"m 625 908 l 729 1147 l 974 1147 l 858 908 l 625 908 m 85 725 l 304 958 l 547 958 l 767 725 l 504 725 l 426 831 l 353 725 l 85 725 m 435 -14 q 123 72 225 -14 q 21 329 21 158 q 123 586 21 500 q 435 672 225 672 q 850 329 850 672 q 435 -14 850 -14 m 435 226 q 489 249 471 226 q 507 329 507 271 q 489 410 507 388 q 435 432 471 432 q 382 410 400 432 q 364 329 364 388 q 382 249 364 271 q 435 226 400 226 z "},"ộ":{"ha":871,"x_min":21,"x_max":850,"o":"m 94 725 l 338 1025 l 533 1025 l 776 725 l 543 725 l 436 874 l 335 725 l 94 725 m 435 -14 q 123 72 225 -14 q 21 329 21 158 q 123 586 21 500 q 435 672 225 672 q 850 329 850 672 q 435 -14 850 -14 m 435 226 q 489 249 471 226 q 507 329 507 271 q 489 410 507 388 q 435 432 471 432 q 382 410 400 432 q 364 329 364 388 q 382 249 364 271 q 435 226 400 226 m 328 -296 l 328 -100 l 544 -100 l 544 -296 l 328 -296 z "},"ồ":{"ha":871,"x_min":-108,"x_max":850,"o":"m 7 908 l -108 1147 l 136 1147 l 240 908 l 7 908 m 99 725 l 318 958 l 561 958 l 781 725 l 513 725 l 439 831 l 361 725 l 99 725 m 435 -14 q 123 72 225 -14 q 21 329 21 158 q 123 586 21 500 q 435 672 225 672 q 850 329 850 672 q 435 -14 850 -14 m 435 226 q 489 249 471 226 q 507 329 507 271 q 489 410 507 388 q 435 432 471 432 q 382 410 400 432 q 364 329 364 388 q 382 249 364 271 q 435 226 400 226 z "},"ổ":{"ha":871,"x_min":21,"x_max":964,"o":"m 649 876 l 649 988 q 719 999 701 990 q 738 1019 738 1007 q 690 1040 738 1040 q 655 1036 672 1040 q 624 1026 638 1032 l 624 1154 q 692 1166 651 1161 q 785 1171 733 1171 q 917 1133 871 1171 q 964 1043 964 1096 q 940 963 964 996 q 867 919 917 929 l 867 876 l 649 876 m 93 725 l 313 958 l 556 958 l 775 725 l 513 725 l 435 831 l 361 725 l 93 725 m 435 -14 q 123 72 225 -14 q 21 329 21 158 q 123 586 21 500 q 435 672 225 672 q 850 329 850 672 q 435 -14 850 -14 m 435 226 q 489 249 471 226 q 507 329 507 271 q 489 410 507 388 q 435 432 471 432 q 382 410 400 432 q 364 329 364 388 q 382 249 364 271 q 435 226 400 226 z "},"ỗ":{"ha":871,"x_min":21,"x_max":850,"o":"m 567 979 q 474 994 519 979 q 385 1023 428 1008 q 300 1038 342 1038 q 219 1022 254 1038 q 161 983 185 1007 l 161 1171 q 217 1203 181 1189 q 296 1217 254 1217 q 388 1202 344 1217 q 475 1173 432 1188 q 563 1158 518 1158 q 643 1174 608 1158 q 693 1213 678 1190 l 693 1025 q 644 993 681 1007 q 567 979 608 979 m 93 725 l 313 958 l 556 958 l 775 725 l 513 725 l 435 831 l 361 725 l 93 725 m 435 -14 q 123 72 225 -14 q 21 329 21 158 q 123 586 21 500 q 435 672 225 672 q 850 329 850 672 q 435 -14 850 -14 m 435 226 q 489 249 471 226 q 507 329 507 271 q 489 410 507 388 q 435 432 471 432 q 382 410 400 432 q 364 329 364 388 q 382 249 364 271 q 435 226 400 226 z "},"ö":{"ha":871,"x_min":21,"x_max":850,"o":"m 164 767 l 164 963 l 381 963 l 381 767 l 164 767 m 490 767 l 490 963 l 707 963 l 707 767 l 490 767 m 435 -14 q 123 72 225 -14 q 21 329 21 158 q 123 586 21 500 q 435 672 225 672 q 850 329 850 672 q 435 -14 850 -14 m 435 226 q 489 249 471 226 q 507 329 507 271 q 489 410 507 388 q 435 432 471 432 q 382 410 400 432 q 364 329 364 388 q 382 249 364 271 q 435 226 400 226 z "},"ọ":{"ha":871,"x_min":21,"x_max":850,"o":"m 435 -14 q 123 72 225 -14 q 21 329 21 158 q 123 586 21 500 q 435 672 225 672 q 850 329 850 672 q 435 -14 850 -14 m 435 226 q 489 249 471 226 q 507 329 507 271 q 489 410 507 388 q 435 432 471 432 q 382 410 400 432 q 364 329 364 388 q 382 249 364 271 q 435 226 400 226 m 326 -296 l 326 -100 l 543 -100 l 543 -296 l 326 -296 z "},"ò":{"ha":871,"x_min":21,"x_max":850,"o":"m 307 725 l 161 1039 l 419 1039 l 553 725 l 307 725 m 435 -14 q 123 72 225 -14 q 21 329 21 158 q 123 586 21 500 q 435 672 225 672 q 850 329 850 672 q 435 -14 850 -14 m 435 226 q 489 249 471 226 q 507 329 507 271 q 489 410 507 388 q 435 432 471 432 q 382 410 400 432 q 364 329 364 388 q 382 249 364 271 q 435 226 400 226 z "},"ỏ":{"ha":871,"x_min":21,"x_max":850,"o":"m 315 725 l 315 838 q 408 856 383 842 q 433 892 433 871 q 364 931 433 931 q 286 917 321 931 l 286 1047 q 363 1063 319 1057 q 467 1068 407 1068 q 622 1025 568 1068 q 676 919 676 982 q 650 826 676 857 q 563 775 624 794 l 563 725 l 315 725 m 435 -14 q 123 72 225 -14 q 21 329 21 158 q 123 586 21 500 q 435 672 225 672 q 850 329 850 672 q 435 -14 850 -14 m 435 226 q 489 249 471 226 q 507 329 507 271 q 489 410 507 388 q 435 432 471 432 q 382 410 400 432 q 364 329 364 388 q 382 249 364 271 q 435 226 400 226 z "},"ơ":{"ha":1065,"x_min":21,"x_max":1072,"o":"m 435 -14 q 123 72 225 -14 q 21 329 21 158 q 123 586 21 500 q 435 672 225 672 q 714 610 613 672 q 815 642 792 610 q 838 744 838 675 l 1072 744 q 1020 510 1072 590 q 844 406 968 429 q 849 368 847 388 q 850 329 850 349 q 435 -14 850 -14 m 435 226 q 489 249 471 226 q 507 329 507 271 q 489 410 507 388 q 435 432 471 432 q 382 410 400 432 q 364 329 364 388 q 382 249 364 271 q 435 226 400 226 z "},"ớ":{"ha":1065,"x_min":21,"x_max":1072,"o":"m 310 725 l 443 1039 l 701 1039 l 556 725 l 310 725 m 435 -14 q 123 72 225 -14 q 21 329 21 158 q 123 586 21 500 q 435 672 225 672 q 714 610 613 672 q 815 642 792 610 q 838 744 838 675 l 1072 744 q 1020 510 1072 590 q 844 406 968 429 q 849 368 847 388 q 850 329 850 349 q 435 -14 850 -14 m 435 226 q 489 249 471 226 q 507 329 507 271 q 489 410 507 388 q 435 432 471 432 q 382 410 400 432 q 364 329 364 388 q 382 249 364 271 q 435 226 400 226 z "},"ợ":{"ha":1065,"x_min":21,"x_max":1072,"o":"m 435 -14 q 123 72 225 -14 q 21 329 21 158 q 123 586 21 500 q 435 672 225 672 q 714 610 613 672 q 815 642 792 610 q 838 744 838 675 l 1072 744 q 1020 510 1072 590 q 844 406 968 429 q 849 368 847 388 q 850 329 850 349 q 435 -14 850 -14 m 435 226 q 489 249 471 226 q 507 329 507 271 q 489 410 507 388 q 435 432 471 432 q 382 410 400 432 q 364 329 364 388 q 382 249 364 271 q 435 226 400 226 m 325 -296 l 325 -100 l 542 -100 l 542 -296 l 325 -296 z "},"ờ":{"ha":1065,"x_min":21,"x_max":1072,"o":"m 324 725 l 178 1039 l 436 1039 l 569 725 l 324 725 m 435 -14 q 123 72 225 -14 q 21 329 21 158 q 123 586 21 500 q 435 672 225 672 q 714 610 613 672 q 815 642 792 610 q 838 744 838 675 l 1072 744 q 1020 510 1072 590 q 844 406 968 429 q 849 368 847 388 q 850 329 850 349 q 435 -14 850 -14 m 435 226 q 489 249 471 226 q 507 329 507 271 q 489 410 507 388 q 435 432 471 432 q 382 410 400 432 q 364 329 364 388 q 382 249 364 271 q 435 226 400 226 z "},"ở":{"ha":1065,"x_min":21,"x_max":1072,"o":"m 307 725 l 307 838 q 400 856 375 842 q 425 892 425 871 q 356 931 425 931 q 278 917 313 931 l 278 1047 q 355 1063 311 1057 q 458 1068 399 1068 q 614 1025 560 1068 q 668 919 668 982 q 642 826 668 857 q 554 775 615 794 l 554 725 l 307 725 m 435 -14 q 123 72 225 -14 q 21 329 21 158 q 123 586 21 500 q 435 672 225 672 q 714 610 613 672 q 815 642 792 610 q 838 744 838 675 l 1072 744 q 1020 510 1072 590 q 844 406 968 429 q 849 368 847 388 q 850 329 850 349 q 435 -14 850 -14 m 435 226 q 489 249 471 226 q 507 329 507 271 q 489 410 507 388 q 435 432 471 432 q 382 410 400 432 q 364 329 364 388 q 382 249 364 271 q 435 226 400 226 z "},"ỡ":{"ha":1065,"x_min":21,"x_max":1072,"o":"m 592 725 q 494 740 542 725 q 401 771 446 756 q 313 786 356 786 q 228 770 265 786 q 167 729 192 754 l 167 925 q 226 959 188 944 q 308 974 265 974 q 405 958 360 974 q 495 928 450 943 q 588 913 540 913 q 672 930 636 913 q 724 969 707 947 l 724 774 q 673 740 710 756 q 592 725 636 725 m 435 -14 q 123 72 225 -14 q 21 329 21 158 q 123 586 21 500 q 435 672 225 672 q 714 610 613 672 q 815 642 792 610 q 838 744 838 675 l 1072 744 q 1020 510 1072 590 q 844 406 968 429 q 849 368 847 388 q 850 329 850 349 q 435 -14 850 -14 m 435 226 q 489 249 471 226 q 507 329 507 271 q 489 410 507 388 q 435 432 471 432 q 382 410 400 432 q 364 329 364 388 q 382 249 364 271 q 435 226 400 226 z "},"ő":{"ha":871,"x_min":21,"x_max":871,"o":"m 78 725 l 210 1007 l 496 1007 l 338 725 l 78 725 m 453 725 l 585 1007 l 871 1007 l 713 725 l 453 725 m 435 -14 q 123 72 225 -14 q 21 329 21 158 q 123 586 21 500 q 435 672 225 672 q 850 329 850 672 q 435 -14 850 -14 m 435 226 q 489 249 471 226 q 507 329 507 271 q 489 410 507 388 q 435 432 471 432 q 382 410 400 432 q 364 329 364 388 q 382 249 364 271 q 435 226 400 226 z "},"ō":{"ha":871,"x_min":21,"x_max":850,"o":"m 179 781 l 179 975 l 664 975 l 664 781 l 179 781 m 435 -14 q 123 72 225 -14 q 21 329 21 158 q 123 586 21 500 q 435 672 225 672 q 850 329 850 672 q 435 -14 850 -14 m 435 226 q 489 249 471 226 q 507 329 507 271 q 489 410 507 388 q 435 432 471 432 q 382 410 400 432 q 364 329 364 388 q 382 249 364 271 q 435 226 400 226 z "},"ø":{"ha":871,"x_min":21,"x_max":850,"o":"m 217 -75 l 250 8 q 21 329 21 72 q 123 586 21 500 q 435 672 225 672 q 519 668 481 672 l 546 733 l 653 733 l 618 650 q 850 329 850 586 q 435 -14 850 -14 q 350 -10 390 -14 l 324 -75 l 217 -75 m 349 249 l 435 460 q 363 431 390 460 q 335 329 335 403 q 349 249 335 276 m 435 199 q 508 227 481 199 q 536 329 536 256 q 521 411 536 378 l 435 199 z "},"ǿ":{"ha":871,"x_min":21,"x_max":850,"o":"m 186 725 l 319 1039 l 578 1039 l 432 725 l 186 725 m 217 -75 l 250 8 q 21 329 21 72 q 123 586 21 500 q 435 672 225 672 q 519 668 481 672 l 546 733 l 653 733 l 618 650 q 850 329 850 586 q 435 -14 850 -14 q 350 -10 390 -14 l 324 -75 l 217 -75 m 349 249 l 435 460 q 363 431 390 460 q 335 329 335 403 q 349 249 335 276 m 435 199 q 508 227 481 199 q 536 329 536 256 q 521 411 536 378 l 435 199 z "},"õ":{"ha":871,"x_min":21,"x_max":850,"o":"m 582 760 q 484 775 532 760 q 391 806 436 790 q 303 821 346 821 q 219 805 256 821 q 157 764 182 789 l 157 960 q 217 994 178 979 q 299 1008 256 1008 q 395 993 350 1008 q 485 963 440 978 q 578 947 531 947 q 662 965 626 947 q 714 1004 697 982 l 714 808 q 663 775 700 790 q 582 760 626 760 m 435 -14 q 123 72 225 -14 q 21 329 21 158 q 123 586 21 500 q 435 672 225 672 q 850 329 850 672 q 435 -14 850 -14 m 435 226 q 489 249 471 226 q 507 329 507 271 q 489 410 507 388 q 435 432 471 432 q 382 410 400 432 q 364 329 364 388 q 382 249 364 271 q 435 226 400 226 z "},"œ":{"ha":1325,"x_min":21,"x_max":1304,"o":"m 435 -14 q 123 72 225 -14 q 21 329 21 158 q 123 586 21 500 q 435 672 225 672 q 703 617 603 672 q 803 658 746 643 q 932 672 861 672 q 1203 589 1101 672 q 1304 351 1304 506 l 1304 239 l 865 239 q 934 198 886 213 q 1058 183 982 183 q 1179 194 1121 183 q 1271 217 1238 204 l 1271 36 q 968 -14 1167 -14 q 713 47 817 -14 q 435 -14 611 -14 m 865 407 l 1017 407 l 1017 419 q 1001 456 1017 439 q 943 474 986 474 q 883 454 901 474 q 865 407 865 435 m 435 226 q 489 249 471 226 q 507 329 507 271 q 489 410 507 388 q 435 432 471 432 q 382 410 400 432 q 364 329 364 388 q 382 249 364 271 q 435 226 400 226 z "},"p":{"ha":872,"x_min":49,"x_max":851,"o":"m 49 -278 l 49 658 l 340 658 l 356 615 q 436 657 392 642 q 540 672 481 672 q 770 593 689 672 q 851 338 851 514 q 766 74 851 161 q 528 -14 681 -14 q 451 -6 492 -14 q 385 11 411 1 l 385 -278 l 49 -278 m 443 226 q 491 250 474 226 q 508 333 508 274 q 491 413 508 393 q 443 432 474 432 q 412 427 425 432 q 385 411 399 422 l 385 247 q 443 226 410 226 z "},"þ":{"ha":872,"x_min":49,"x_max":851,"o":"m 49 -300 l 49 972 l 385 972 l 385 647 q 458 665 411 658 q 540 672 504 672 q 770 588 689 672 q 851 328 851 504 q 766 69 851 151 q 528 -14 681 -14 q 451 -6 492 -14 q 385 11 411 1 l 385 -300 l 49 -300 m 443 226 q 491 250 474 226 q 508 333 508 274 q 491 413 508 393 q 443 432 474 432 q 412 427 425 432 q 385 411 399 422 l 385 247 q 443 226 410 226 z "},"q":{"ha":865,"x_min":21,"x_max":935,"o":"m 744 -336 q 549 -278 610 -336 q 488 -97 488 -219 l 488 11 q 421 -6 461 1 q 344 -14 381 -14 q 107 63 193 -14 q 21 317 21 140 q 107 583 21 493 q 336 672 193 672 q 439 657 397 672 q 517 615 481 642 l 532 658 l 824 658 l 824 -53 q 833 -92 824 -79 q 865 -104 842 -104 q 935 -92 904 -104 l 935 -300 q 853 -327 892 -318 q 744 -336 814 -336 m 429 226 q 488 247 463 226 l 488 411 q 463 427 474 422 q 433 432 453 432 q 383 407 403 432 q 364 322 364 382 q 381 244 364 263 q 429 226 399 226 z "},"r":{"ha":617,"x_min":49,"x_max":603,"o":"m 49 0 l 49 658 l 378 658 l 385 621 q 480 656 421 640 q 603 672 539 672 l 603 425 q 488 418 551 425 q 385 397 424 411 l 385 0 l 49 0 z "},"ŕ":{"ha":596,"x_min":49,"x_max":603,"o":"m 83 725 l 217 1039 l 475 1039 l 329 725 l 83 725 m 49 0 l 49 658 l 378 658 l 385 621 q 480 656 421 640 q 603 672 539 672 l 603 425 q 488 418 551 425 q 385 397 424 411 l 385 0 l 49 0 z "},"ř":{"ha":596,"x_min":-25,"x_max":657,"o":"m 218 725 l -25 1025 l 215 1025 l 317 876 l 424 1025 l 657 1025 l 414 725 l 218 725 m 49 0 l 49 658 l 378 658 l 385 621 q 480 656 421 640 q 603 672 539 672 l 603 425 q 488 418 551 425 q 385 397 424 411 l 385 0 l 49 0 z "},"ŗ":{"ha":596,"x_min":35,"x_max":603,"o":"m 49 0 l 49 658 l 378 658 l 385 621 q 480 656 421 640 q 603 672 539 672 l 603 425 q 488 418 551 425 q 385 397 424 411 l 385 0 l 49 0 m 35 -397 l 86 -51 l 335 -51 l 244 -397 l 35 -397 z "},"ṛ":{"ha":596,"x_min":49,"x_max":603,"o":"m 49 0 l 49 658 l 378 658 l 385 621 q 480 656 421 640 q 603 672 539 672 l 603 425 q 488 418 551 425 q 385 397 424 411 l 385 0 l 49 0 m 107 -296 l 107 -100 l 324 -100 l 324 -296 l 107 -296 z "},"ṝ":{"ha":596,"x_min":49,"x_max":603,"o":"m 49 767 l 49 961 l 533 961 l 533 767 l 49 767 m 49 0 l 49 658 l 378 658 l 385 621 q 480 656 421 640 q 603 672 539 672 l 603 425 q 488 418 551 425 q 385 397 424 411 l 385 0 l 49 0 m 107 -296 l 107 -100 l 324 -100 l 324 -296 l 107 -296 z "},"ṟ":{"ha":596,"x_min":-25,"x_max":603,"o":"m 49 0 l 49 658 l 378 658 l 385 621 q 480 656 421 640 q 603 672 539 672 l 603 425 q 488 418 551 425 q 385 397 424 411 l 385 0 l 49 0 m -25 -289 l -25 -94 l 460 -94 l 460 -289 l -25 -289 z "},"s":{"ha":704,"x_min":21,"x_max":683,"o":"m 332 -14 q 154 0 238 -14 q 26 33 71 14 l 26 246 q 104 217 60 229 q 192 197 149 204 q 265 190 236 190 q 319 192 297 190 q 340 206 340 193 q 318 224 340 217 q 262 239 296 231 q 192 260 228 247 q 61 335 101 293 q 21 457 21 378 q 108 617 21 563 q 376 672 196 672 q 474 667 421 672 q 573 656 526 663 q 647 639 619 649 l 647 428 q 551 458 603 447 q 461 468 500 468 q 419 467 442 468 q 380 463 396 467 q 364 450 364 460 q 406 428 364 436 q 500 406 449 421 q 612 359 572 385 q 667 297 651 333 q 683 206 683 260 q 594 45 683 104 q 332 -14 506 -14 z "},"ś":{"ha":704,"x_min":21,"x_max":683,"o":"m 196 725 l 329 1039 l 588 1039 l 442 725 l 196 725 m 332 -14 q 154 0 238 -14 q 26 33 71 14 l 26 246 q 104 217 60 229 q 192 197 149 204 q 265 190 236 190 q 319 192 297 190 q 340 206 340 193 q 318 224 340 217 q 262 239 296 231 q 192 260 228 247 q 61 335 101 293 q 21 457 21 378 q 108 617 21 563 q 376 672 196 672 q 474 667 421 672 q 573 656 526 663 q 647 639 619 649 l 647 428 q 551 458 603 447 q 461 468 500 468 q 419 467 442 468 q 380 463 396 467 q 364 450 364 460 q 406 428 364 436 q 500 406 449 421 q 612 359 572 385 q 667 297 651 333 q 683 206 683 260 q 594 45 683 104 q 332 -14 506 -14 z "},"š":{"ha":704,"x_min":10,"x_max":692,"o":"m 253 725 l 10 1025 l 250 1025 l 351 876 l 458 1025 l 692 1025 l 449 725 l 253 725 m 332 -14 q 154 0 238 -14 q 26 33 71 14 l 26 246 q 104 217 60 229 q 192 197 149 204 q 265 190 236 190 q 319 192 297 190 q 340 206 340 193 q 318 224 340 217 q 262 239 296 231 q 192 260 228 247 q 61 335 101 293 q 21 457 21 378 q 108 617 21 563 q 376 672 196 672 q 474 667 421 672 q 573 656 526 663 q 647 639 619 649 l 647 428 q 551 458 603 447 q 461 468 500 468 q 419 467 442 468 q 380 463 396 467 q 364 450 364 460 q 406 428 364 436 q 500 406 449 421 q 612 359 572 385 q 667 297 651 333 q 683 206 683 260 q 594 45 683 104 q 332 -14 506 -14 z "},"ş":{"ha":704,"x_min":21,"x_max":683,"o":"m 306 -333 q 264 -332 289 -333 q 217 -328 239 -331 q 183 -322 194 -325 l 183 -215 q 264 -226 224 -226 q 357 -178 357 -226 q 343 -147 357 -156 q 306 -139 329 -139 l 203 -139 l 239 -10 q 26 33 99 1 l 26 246 q 104 217 60 229 q 192 197 149 204 q 265 190 236 190 q 319 192 297 190 q 340 206 340 193 q 318 224 340 217 q 262 239 296 231 q 192 260 228 247 q 61 335 101 293 q 21 457 21 378 q 108 617 21 563 q 376 672 196 672 q 474 667 421 672 q 573 656 526 663 q 647 639 619 649 l 647 428 q 551 458 603 447 q 461 468 500 468 q 419 467 442 468 q 380 463 396 467 q 364 450 364 460 q 406 428 364 436 q 500 406 449 421 q 612 359 572 385 q 667 297 651 333 q 683 206 683 260 q 613 58 683 115 q 406 -11 543 1 l 392 -51 q 501 -90 461 -51 q 542 -185 542 -128 q 483 -293 542 -253 q 306 -333 424 -333 z "},"ŝ":{"ha":704,"x_min":6,"x_max":688,"o":"m 6 725 l 249 1025 l 444 1025 l 688 725 l 454 725 l 347 874 l 246 725 l 6 725 m 332 -14 q 154 0 238 -14 q 26 33 71 14 l 26 246 q 104 217 60 229 q 192 197 149 204 q 265 190 236 190 q 319 192 297 190 q 340 206 340 193 q 318 224 340 217 q 262 239 296 231 q 192 260 228 247 q 61 335 101 293 q 21 457 21 378 q 108 617 21 563 q 376 672 196 672 q 474 667 421 672 q 573 656 526 663 q 647 639 619 649 l 647 428 q 551 458 603 447 q 461 468 500 468 q 419 467 442 468 q 380 463 396 467 q 364 450 364 460 q 406 428 364 436 q 500 406 449 421 q 612 359 572 385 q 667 297 651 333 q 683 206 683 260 q 594 45 683 104 q 332 -14 506 -14 z "},"ș":{"ha":704,"x_min":21,"x_max":683,"o":"m 332 -14 q 154 0 238 -14 q 26 33 71 14 l 26 246 q 104 217 60 229 q 192 197 149 204 q 265 190 236 190 q 319 192 297 190 q 340 206 340 193 q 318 224 340 217 q 262 239 296 231 q 192 260 228 247 q 61 335 101 293 q 21 457 21 378 q 108 617 21 563 q 376 672 196 672 q 474 667 421 672 q 573 656 526 663 q 647 639 619 649 l 647 428 q 551 458 603 447 q 461 468 500 468 q 419 467 442 468 q 380 463 396 467 q 364 450 364 460 q 406 428 364 436 q 500 406 449 421 q 612 359 572 385 q 667 297 651 333 q 683 206 683 260 q 594 45 683 104 q 332 -14 506 -14 m 172 -335 l 219 -51 l 499 -51 l 428 -335 l 172 -335 z "},"ṡ":{"ha":704,"x_min":21,"x_max":683,"o":"m 217 767 l 217 963 l 433 963 l 433 767 l 217 767 m 332 -14 q 154 0 238 -14 q 26 33 71 14 l 26 246 q 104 217 60 229 q 192 197 149 204 q 265 190 236 190 q 319 192 297 190 q 340 206 340 193 q 318 224 340 217 q 262 239 296 231 q 192 260 228 247 q 61 335 101 293 q 21 457 21 378 q 108 617 21 563 q 376 672 196 672 q 474 667 421 672 q 573 656 526 663 q 647 639 619 649 l 647 428 q 551 458 603 447 q 461 468 500 468 q 419 467 442 468 q 380 463 396 467 q 364 450 364 460 q 406 428 364 436 q 500 406 449 421 q 612 359 572 385 q 667 297 651 333 q 683 206 683 260 q 594 45 683 104 q 332 -14 506 -14 z "},"ṣ":{"ha":704,"x_min":21,"x_max":683,"o":"m 332 -14 q 154 0 238 -14 q 26 33 71 14 l 26 246 q 104 217 60 229 q 192 197 149 204 q 265 190 236 190 q 319 192 297 190 q 340 206 340 193 q 318 224 340 217 q 262 239 296 231 q 192 260 228 247 q 61 335 101 293 q 21 457 21 378 q 108 617 21 563 q 376 672 196 672 q 474 667 421 672 q 573 656 526 663 q 647 639 619 649 l 647 428 q 551 458 603 447 q 461 468 500 468 q 419 467 442 468 q 380 463 396 467 q 364 450 364 460 q 406 428 364 436 q 500 406 449 421 q 612 359 572 385 q 667 297 651 333 q 683 206 683 260 q 594 45 683 104 q 332 -14 506 -14 m 250 -296 l 250 -100 l 467 -100 l 467 -296 l 250 -296 z "},"ß":{"ha":913,"x_min":42,"x_max":892,"o":"m 578 -14 q 476 -6 525 -14 q 399 17 426 3 l 399 231 q 440 222 414 225 q 483 218 465 218 q 535 238 521 218 q 549 288 549 257 q 532 328 549 314 q 475 343 515 343 l 400 343 l 400 551 l 458 551 q 549 624 549 551 q 526 671 549 653 q 454 689 503 689 q 378 661 399 689 q 357 597 357 633 l 357 0 l 42 0 l 42 622 q 88 806 42 728 q 224 928 135 885 q 438 972 313 972 q 674 924 581 972 q 815 799 768 875 q 861 642 861 724 q 838 528 861 575 q 778 453 815 481 q 861 388 831 428 q 892 271 892 349 q 809 65 892 144 q 578 -14 726 -14 z "},"t":{"ha":564,"x_min":0,"x_max":564,"o":"m 360 -14 q 144 60 208 -14 q 79 258 79 133 l 79 417 l 0 417 l 0 658 l 79 658 l 79 788 l 415 856 l 415 658 l 550 658 l 543 417 l 415 417 l 415 276 q 481 218 415 218 q 564 232 524 218 l 564 24 q 472 -4 521 6 q 360 -14 424 -14 z "},"ŧ":{"ha":550,"x_min":-7,"x_max":557,"o":"m 353 -14 q 139 58 204 -14 q 72 251 74 129 l -7 251 l -7 421 l 72 421 l 72 450 l -7 450 l -7 658 l 72 658 l 72 788 l 408 856 l 408 658 l 543 658 l 536 450 l 408 450 l 408 421 l 542 421 l 542 251 l 413 251 q 474 218 424 218 q 557 232 517 218 l 557 24 q 465 -4 514 6 q 353 -14 417 -14 z "},"ť":{"ha":583,"x_min":-7,"x_max":801,"o":"m 501 775 l 553 1121 l 801 1121 l 711 775 l 501 775 m 353 -14 q 137 60 201 -14 q 72 258 72 133 l 72 417 l -7 417 l -7 658 l 72 658 l 72 788 l 408 856 l 408 658 l 547 658 l 536 417 l 408 417 l 408 276 q 474 218 408 218 q 557 232 517 218 l 557 24 q 465 -4 514 6 q 353 -14 417 -14 z "},"ţ":{"ha":550,"x_min":-7,"x_max":571,"o":"m 335 -333 q 293 -332 318 -333 q 246 -328 268 -331 q 213 -322 224 -325 l 213 -215 q 293 -226 253 -226 q 386 -178 386 -226 q 372 -147 386 -156 q 335 -139 358 -139 l 232 -139 l 269 -7 q 118 83 164 13 q 72 258 72 153 l 72 417 l -7 417 l -7 658 l 72 658 l 72 788 l 408 856 l 408 658 l 543 658 l 536 417 l 408 417 l 408 276 q 474 218 408 218 q 557 232 517 218 l 557 24 q 436 -10 500 -1 l 421 -51 q 531 -90 490 -51 q 571 -185 571 -128 q 512 -293 571 -253 q 335 -333 453 -333 z "},"ț":{"ha":550,"x_min":-7,"x_max":557,"o":"m 353 -14 q 137 60 201 -14 q 72 258 72 133 l 72 417 l -7 417 l -7 658 l 72 658 l 72 788 l 408 856 l 408 658 l 543 658 l 536 417 l 408 417 l 408 276 q 474 218 408 218 q 557 232 517 218 l 557 24 q 465 -4 514 6 q 353 -14 417 -14 m 174 -397 l 225 -51 l 474 -51 l 383 -397 l 174 -397 z "},"ẗ":{"ha":561,"x_min":-7,"x_max":568,"o":"m -7 897 l -7 1093 l 210 1093 l 210 897 l -7 897 m 319 897 l 319 1093 l 536 1093 l 536 897 l 319 897 m 364 -14 q 148 60 213 -14 q 83 258 83 133 l 83 417 l 4 417 l 4 658 l 83 658 l 83 788 l 419 856 l 419 658 l 554 658 l 547 417 l 419 417 l 419 276 q 485 218 419 218 q 568 232 528 218 l 568 24 q 476 -4 525 6 q 364 -14 428 -14 z "},"ṭ":{"ha":550,"x_min":-7,"x_max":557,"o":"m 353 -14 q 137 60 201 -14 q 72 258 72 133 l 72 417 l -7 417 l -7 658 l 72 658 l 72 788 l 408 856 l 408 658 l 543 658 l 536 417 l 408 417 l 408 276 q 474 218 408 218 q 557 232 517 218 l 557 24 q 465 -4 514 6 q 353 -14 417 -14 m 199 -268 l 199 -72 l 415 -72 l 415 -268 l 199 -268 z "},"ṯ":{"ha":550,"x_min":-7,"x_max":557,"o":"m 353 -14 q 137 60 201 -14 q 72 258 72 133 l 72 417 l -7 417 l -7 658 l 72 658 l 72 788 l 408 856 l 408 658 l 543 658 l 536 417 l 408 417 l 408 276 q 474 218 408 218 q 557 232 517 218 l 557 24 q 465 -4 514 6 q 353 -14 417 -14 m 36 -261 l 36 -67 l 521 -67 l 521 -261 l 36 -261 z "},"u":{"ha":869,"x_min":42,"x_max":821,"o":"m 283 -14 q 107 51 172 -14 q 42 242 42 117 l 42 658 l 378 658 l 378 278 q 424 233 378 233 q 457 242 439 233 q 485 261 475 250 l 485 658 l 821 658 l 821 0 l 506 0 l 499 38 q 406 1 463 15 q 283 -14 350 -14 z "},"ú":{"ha":869,"x_min":42,"x_max":821,"o":"m 276 725 l 410 1039 l 668 1039 l 522 725 l 276 725 m 283 -14 q 107 51 172 -14 q 42 242 42 117 l 42 658 l 378 658 l 378 278 q 424 233 378 233 q 457 242 439 233 q 485 261 475 250 l 485 658 l 821 658 l 821 0 l 506 0 l 499 38 q 406 1 463 15 q 283 -14 350 -14 z "},"ŭ":{"ha":869,"x_min":42,"x_max":821,"o":"m 439 725 q 217 803 300 725 q 133 1031 133 882 l 349 1031 q 368 946 349 983 q 439 908 388 908 q 511 946 492 908 q 531 1031 531 983 l 746 1031 q 663 803 746 882 q 439 725 579 725 m 283 -14 q 107 51 172 -14 q 42 242 42 117 l 42 658 l 378 658 l 378 278 q 424 233 378 233 q 457 242 439 233 q 485 261 475 250 l 485 658 l 821 658 l 821 0 l 506 0 l 499 38 q 406 1 463 15 q 283 -14 350 -14 z "},"ǔ":{"ha":869,"x_min":42,"x_max":821,"o":"m 331 725 l 88 1025 l 328 1025 l 429 876 l 536 1025 l 769 1025 l 526 725 l 331 725 m 283 -14 q 107 51 172 -14 q 42 242 42 117 l 42 658 l 378 658 l 378 278 q 424 233 378 233 q 457 242 439 233 q 485 261 475 250 l 485 658 l 821 658 l 821 0 l 506 0 l 499 38 q 406 1 463 15 q 283 -14 350 -14 z "},"û":{"ha":869,"x_min":42,"x_max":821,"o":"m 89 725 l 332 1025 l 528 1025 l 771 725 l 538 725 l 431 874 l 329 725 l 89 725 m 283 -14 q 107 51 172 -14 q 42 242 42 117 l 42 658 l 378 658 l 378 278 q 424 233 378 233 q 457 242 439 233 q 485 261 475 250 l 485 658 l 821 658 l 821 0 l 506 0 l 499 38 q 406 1 463 15 q 283 -14 350 -14 z "},"ü":{"ha":869,"x_min":42,"x_max":821,"o":"m 163 767 l 163 963 l 379 963 l 379 767 l 163 767 m 489 767 l 489 963 l 706 963 l 706 767 l 489 767 m 283 -14 q 107 51 172 -14 q 42 242 42 117 l 42 658 l 378 658 l 378 278 q 424 233 378 233 q 457 242 439 233 q 485 261 475 250 l 485 658 l 821 658 l 821 0 l 506 0 l 499 38 q 406 1 463 15 q 283 -14 350 -14 z "},"ǘ":{"ha":869,"x_min":42,"x_max":821,"o":"m 311 1006 l 389 1207 l 636 1207 l 533 1006 l 311 1006 m 164 778 l 164 963 l 375 963 l 375 778 l 164 778 m 482 778 l 482 963 l 693 963 l 693 778 l 482 778 m 283 -14 q 107 51 172 -14 q 42 242 42 117 l 42 658 l 378 658 l 378 278 q 424 233 378 233 q 457 242 439 233 q 485 261 475 250 l 485 658 l 821 658 l 821 0 l 506 0 l 499 38 q 406 1 463 15 q 283 -14 350 -14 z "},"ǚ":{"ha":869,"x_min":42,"x_max":821,"o":"m 322 967 l 115 1168 l 360 1168 l 438 1067 l 518 1168 l 758 1168 l 551 967 l 322 967 m 165 739 l 165 924 l 376 924 l 376 739 l 165 739 m 483 739 l 483 924 l 694 924 l 694 739 l 483 739 m 283 -14 q 107 51 172 -14 q 42 242 42 117 l 42 658 l 378 658 l 378 278 q 424 233 378 233 q 457 242 439 233 q 485 261 475 250 l 485 658 l 821 658 l 821 0 l 506 0 l 499 38 q 406 1 463 15 q 283 -14 350 -14 z "},"ǜ":{"ha":869,"x_min":42,"x_max":821,"o":"m 335 1006 l 232 1207 l 479 1207 l 557 1006 l 335 1006 m 175 778 l 175 963 l 386 963 l 386 778 l 175 778 m 493 778 l 493 963 l 704 963 l 704 778 l 493 778 m 283 -14 q 107 51 172 -14 q 42 242 42 117 l 42 658 l 378 658 l 378 278 q 424 233 378 233 q 457 242 439 233 q 485 261 475 250 l 485 658 l 821 658 l 821 0 l 506 0 l 499 38 q 406 1 463 15 q 283 -14 350 -14 z "},"ǖ":{"ha":869,"x_min":42,"x_max":821,"o":"m 193 1000 l 193 1194 l 678 1194 l 678 1000 l 193 1000 m 164 739 l 164 935 l 381 935 l 381 739 l 164 739 m 490 739 l 490 935 l 707 935 l 707 739 l 490 739 m 283 -14 q 107 51 172 -14 q 42 242 42 117 l 42 658 l 378 658 l 378 278 q 424 233 378 233 q 457 242 439 233 q 485 261 475 250 l 485 658 l 821 658 l 821 0 l 506 0 l 499 38 q 406 1 463 15 q 283 -14 350 -14 z "},"ụ":{"ha":869,"x_min":42,"x_max":821,"o":"m 283 -14 q 107 51 172 -14 q 42 242 42 117 l 42 658 l 378 658 l 378 278 q 424 233 378 233 q 457 242 439 233 q 485 261 475 250 l 485 658 l 821 658 l 821 0 l 506 0 l 499 38 q 406 1 463 15 q 283 -14 350 -14 m 321 -296 l 321 -100 l 538 -100 l 538 -296 l 321 -296 z "},"ù":{"ha":869,"x_min":42,"x_max":821,"o":"m 339 725 l 193 1039 l 451 1039 l 585 725 l 339 725 m 283 -14 q 107 51 172 -14 q 42 242 42 117 l 42 658 l 378 658 l 378 278 q 424 233 378 233 q 457 242 439 233 q 485 261 475 250 l 485 658 l 821 658 l 821 0 l 506 0 l 499 38 q 406 1 463 15 q 283 -14 350 -14 z "},"ủ":{"ha":869,"x_min":42,"x_max":821,"o":"m 311 725 l 311 838 q 404 856 379 842 q 429 892 429 871 q 360 931 429 931 q 282 917 317 931 l 282 1047 q 359 1063 315 1057 q 463 1068 403 1068 q 618 1025 564 1068 q 672 919 672 982 q 646 826 672 857 q 558 775 619 794 l 558 725 l 311 725 m 283 -14 q 107 51 172 -14 q 42 242 42 117 l 42 658 l 378 658 l 378 278 q 424 233 378 233 q 457 242 439 233 q 485 261 475 250 l 485 658 l 821 658 l 821 0 l 506 0 l 499 38 q 406 1 463 15 q 283 -14 350 -14 z "},"ư":{"ha":1121,"x_min":42,"x_max":1142,"o":"m 283 -14 q 107 51 172 -14 q 42 242 42 117 l 42 658 l 378 658 l 378 278 q 424 233 378 233 q 457 242 439 233 q 485 261 475 250 l 485 658 l 821 658 l 821 613 q 893 646 879 615 q 907 744 907 676 l 1142 744 q 1110 551 1142 625 q 1009 442 1079 478 q 821 396 939 406 l 821 0 l 506 0 l 499 38 q 406 1 463 15 q 283 -14 350 -14 z "},"ứ":{"ha":1121,"x_min":42,"x_max":1142,"o":"m 301 725 l 435 1039 l 693 1039 l 547 725 l 301 725 m 283 -14 q 107 51 172 -14 q 42 242 42 117 l 42 658 l 378 658 l 378 278 q 424 233 378 233 q 457 242 439 233 q 485 261 475 250 l 485 658 l 821 658 l 821 613 q 893 646 879 615 q 907 744 907 676 l 1142 744 q 1110 551 1142 625 q 1009 442 1079 478 q 821 396 939 406 l 821 0 l 506 0 l 499 38 q 406 1 463 15 q 283 -14 350 -14 z "},"ự":{"ha":1121,"x_min":42,"x_max":1142,"o":"m 283 -14 q 107 51 172 -14 q 42 242 42 117 l 42 658 l 378 658 l 378 278 q 424 233 378 233 q 457 242 439 233 q 485 261 475 250 l 485 658 l 821 658 l 821 613 q 893 646 879 615 q 907 744 907 676 l 1142 744 q 1110 551 1142 625 q 1009 442 1079 478 q 821 396 939 406 l 821 0 l 506 0 l 499 38 q 406 1 463 15 q 283 -14 350 -14 m 325 -296 l 325 -100 l 542 -100 l 542 -296 l 325 -296 z "},"ừ":{"ha":1121,"x_min":42,"x_max":1142,"o":"m 314 725 l 168 1039 l 426 1039 l 560 725 l 314 725 m 283 -14 q 107 51 172 -14 q 42 242 42 117 l 42 658 l 378 658 l 378 278 q 424 233 378 233 q 457 242 439 233 q 485 261 475 250 l 485 658 l 821 658 l 821 613 q 893 646 879 615 q 907 744 907 676 l 1142 744 q 1110 551 1142 625 q 1009 442 1079 478 q 821 396 939 406 l 821 0 l 506 0 l 499 38 q 406 1 463 15 q 283 -14 350 -14 z "},"ử":{"ha":1121,"x_min":42,"x_max":1142,"o":"m 311 725 l 311 838 q 404 856 379 842 q 429 892 429 871 q 360 931 429 931 q 282 917 317 931 l 282 1047 q 359 1063 315 1057 q 463 1068 403 1068 q 618 1025 564 1068 q 672 919 672 982 q 646 826 672 857 q 558 775 619 794 l 558 725 l 311 725 m 283 -14 q 107 51 172 -14 q 42 242 42 117 l 42 658 l 378 658 l 378 278 q 424 233 378 233 q 457 242 439 233 q 485 261 475 250 l 485 658 l 821 658 l 821 613 q 893 646 879 615 q 907 744 907 676 l 1142 744 q 1110 551 1142 625 q 1009 442 1079 478 q 821 396 939 406 l 821 0 l 506 0 l 499 38 q 406 1 463 15 q 283 -14 350 -14 z "},"ữ":{"ha":1121,"x_min":42,"x_max":1142,"o":"m 579 725 q 481 740 529 725 q 388 771 433 756 q 300 786 343 786 q 216 770 253 786 q 154 729 179 754 l 154 925 q 214 959 175 944 q 296 974 253 974 q 392 958 347 974 q 483 928 438 943 q 575 913 528 913 q 659 930 624 913 q 711 969 694 947 l 711 774 q 660 740 697 756 q 579 725 624 725 m 283 -14 q 107 51 172 -14 q 42 242 42 117 l 42 658 l 378 658 l 378 278 q 424 233 378 233 q 457 242 439 233 q 485 261 475 250 l 485 658 l 821 658 l 821 613 q 893 646 879 615 q 907 744 907 676 l 1142 744 q 1110 551 1142 625 q 1009 442 1079 478 q 821 396 939 406 l 821 0 l 506 0 l 499 38 q 406 1 463 15 q 283 -14 350 -14 z "},"ű":{"ha":869,"x_min":42,"x_max":858,"o":"m 65 725 l 197 1007 l 483 1007 l 325 725 l 65 725 m 440 725 l 572 1007 l 858 1007 l 700 725 l 440 725 m 283 -14 q 107 51 172 -14 q 42 242 42 117 l 42 658 l 378 658 l 378 278 q 424 233 378 233 q 457 242 439 233 q 485 261 475 250 l 485 658 l 821 658 l 821 0 l 506 0 l 499 38 q 406 1 463 15 q 283 -14 350 -14 z "},"ū":{"ha":869,"x_min":42,"x_max":821,"o":"m 196 781 l 196 975 l 681 975 l 681 781 l 196 781 m 283 -14 q 107 51 172 -14 q 42 242 42 117 l 42 658 l 378 658 l 378 278 q 424 233 378 233 q 457 242 439 233 q 485 261 475 250 l 485 658 l 821 658 l 821 0 l 506 0 l 499 38 q 406 1 463 15 q 283 -14 350 -14 z "},"ų":{"ha":869,"x_min":42,"x_max":821,"o":"m 283 -14 q 107 51 172 -14 q 42 242 42 117 l 42 658 l 378 658 l 378 278 q 424 233 378 233 q 457 242 439 233 q 485 261 475 250 l 485 658 l 821 658 l 821 0 l 706 0 q 657 -49 676 -22 q 638 -106 638 -75 q 655 -140 638 -132 q 703 -149 672 -149 q 741 -144 721 -149 q 774 -133 761 -140 l 774 -281 q 705 -297 750 -289 q 607 -306 660 -306 q 457 -271 513 -306 q 401 -161 401 -236 q 432 -65 401 -107 q 506 0 463 -24 l 499 38 q 406 1 463 15 q 283 -14 350 -14 z "},"ů":{"ha":869,"x_min":42,"x_max":821,"o":"m 432 725 q 274 783 328 725 q 219 924 219 840 q 274 1066 219 1008 q 432 1124 328 1124 q 592 1066 538 1124 q 646 924 646 1008 q 592 783 646 840 q 432 725 538 725 m 432 853 q 489 874 471 853 q 507 924 507 896 q 489 973 507 951 q 432 994 471 994 q 375 973 393 994 q 357 924 357 951 q 375 874 357 896 q 432 853 393 853 m 283 -14 q 107 51 172 -14 q 42 242 42 117 l 42 658 l 378 658 l 378 278 q 424 233 378 233 q 457 242 439 233 q 485 261 475 250 l 485 658 l 821 658 l 821 0 l 506 0 l 499 38 q 406 1 463 15 q 283 -14 350 -14 z "},"ũ":{"ha":869,"x_min":42,"x_max":821,"o":"m 574 732 q 476 747 524 732 q 383 778 428 763 q 294 793 338 793 q 210 777 247 793 q 149 736 174 761 l 149 932 q 208 966 169 951 q 290 981 247 981 q 387 965 342 981 q 477 935 432 950 q 569 919 522 919 q 653 937 618 919 q 706 976 689 954 l 706 781 q 655 747 692 763 q 574 732 618 732 m 283 -14 q 107 51 172 -14 q 42 242 42 117 l 42 658 l 378 658 l 378 278 q 424 233 378 233 q 457 242 439 233 q 485 261 475 250 l 485 658 l 821 658 l 821 0 l 506 0 l 499 38 q 406 1 463 15 q 283 -14 350 -14 z "},"v":{"ha":913,"x_min":21,"x_max":892,"o":"m 282 0 l 21 658 l 371 658 l 456 356 l 542 658 l 892 658 l 631 0 l 282 0 z "},"w":{"ha":1131,"x_min":21,"x_max":1110,"o":"m 196 0 l 21 658 l 340 658 l 396 433 l 438 556 l 438 658 l 679 658 l 738 433 l 790 658 l 1110 658 l 935 0 l 639 0 l 567 213 l 494 0 l 196 0 z "},"ẃ":{"ha":1131,"x_min":21,"x_max":1110,"o":"m 435 725 l 568 1039 l 826 1039 l 681 725 l 435 725 m 196 0 l 21 658 l 340 658 l 396 433 l 438 556 l 438 658 l 679 658 l 738 433 l 790 658 l 1110 658 l 935 0 l 639 0 l 567 213 l 494 0 l 196 0 z "},"ŵ":{"ha":1131,"x_min":21,"x_max":1110,"o":"m 226 725 l 469 1025 l 665 1025 l 908 725 l 675 725 l 568 874 l 467 725 l 226 725 m 196 0 l 21 658 l 340 658 l 396 433 l 438 556 l 438 658 l 679 658 l 738 433 l 790 658 l 1110 658 l 935 0 l 639 0 l 567 213 l 494 0 l 196 0 z "},"ẅ":{"ha":1131,"x_min":21,"x_max":1110,"o":"m 296 767 l 296 963 l 513 963 l 513 767 l 296 767 m 622 767 l 622 963 l 839 963 l 839 767 l 622 767 m 196 0 l 21 658 l 340 658 l 396 433 l 438 556 l 438 658 l 679 658 l 738 433 l 790 658 l 1110 658 l 935 0 l 639 0 l 567 213 l 494 0 l 196 0 z "},"ẁ":{"ha":1131,"x_min":21,"x_max":1110,"o":"m 436 725 l 290 1039 l 549 1039 l 682 725 l 436 725 m 196 0 l 21 658 l 340 658 l 396 433 l 438 556 l 438 658 l 679 658 l 738 433 l 790 658 l 1110 658 l 935 0 l 639 0 l 567 213 l 494 0 l 196 0 z "},"x":{"ha":906,"x_min":14,"x_max":892,"o":"m 14 0 l 271 335 l 25 658 l 388 658 l 453 572 l 518 658 l 881 658 l 635 335 l 892 0 l 525 0 l 453 94 l 381 0 l 14 0 z "},"y":{"ha":940,"x_min":21,"x_max":947,"o":"m 318 -244 q 208 -237 250 -244 q 122 -212 165 -231 l 122 1 q 206 -12 163 -12 q 275 -6 247 -12 q 322 21 303 0 l 21 658 l 372 658 l 488 331 l 597 658 l 947 658 l 721 79 q 565 -158 661 -72 q 318 -244 469 -244 z "},"ý":{"ha":940,"x_min":21,"x_max":947,"o":"m 361 725 l 494 1039 l 753 1039 l 607 725 l 361 725 m 318 -244 q 208 -237 250 -244 q 122 -212 165 -231 l 122 1 q 206 -12 163 -12 q 275 -6 247 -12 q 322 21 303 0 l 21 658 l 372 658 l 488 331 l 597 658 l 947 658 l 721 79 q 565 -158 661 -72 q 318 -244 469 -244 z "},"ŷ":{"ha":940,"x_min":21,"x_max":947,"o":"m 147 725 l 390 1025 l 586 1025 l 829 725 l 596 725 l 489 874 l 388 725 l 147 725 m 318 -244 q 208 -237 250 -244 q 122 -212 165 -231 l 122 1 q 206 -12 163 -12 q 275 -6 247 -12 q 322 21 303 0 l 21 658 l 372 658 l 488 331 l 597 658 l 947 658 l 721 79 q 565 -158 661 -72 q 318 -244 469 -244 z "},"ÿ":{"ha":940,"x_min":21,"x_max":947,"o":"m 217 806 l 217 1001 l 433 1001 l 433 806 l 217 806 m 543 806 l 543 1001 l 760 1001 l 760 806 l 543 806 m 318 -244 q 208 -237 250 -244 q 122 -212 165 -231 l 122 1 q 206 -12 163 -12 q 275 -6 247 -12 q 322 21 303 0 l 21 658 l 372 658 l 488 331 l 597 658 l 947 658 l 721 79 q 565 -158 661 -72 q 318 -244 469 -244 z "},"ẏ":{"ha":940,"x_min":21,"x_max":947,"o":"m 379 767 l 379 963 l 596 963 l 596 767 l 379 767 m 318 -244 q 208 -237 250 -244 q 122 -212 165 -231 l 122 1 q 206 -12 163 -12 q 275 -6 247 -12 q 322 21 303 0 l 21 658 l 372 658 l 488 331 l 597 658 l 947 658 l 721 79 q 565 -158 661 -72 q 318 -244 469 -244 z "},"ỵ":{"ha":940,"x_min":21,"x_max":947,"o":"m 318 -244 q 208 -237 250 -244 q 122 -212 165 -231 l 122 1 q 206 -12 163 -12 q 275 -6 247 -12 q 322 21 303 0 l 21 658 l 372 658 l 488 331 l 597 658 l 947 658 l 721 79 q 565 -158 661 -72 q 318 -244 469 -244 m 679 -296 l 679 -100 l 896 -100 l 896 -296 l 679 -296 z "},"ỳ":{"ha":940,"x_min":21,"x_max":947,"o":"m 361 725 l 215 1039 l 474 1039 l 607 725 l 361 725 m 318 -244 q 208 -237 250 -244 q 122 -212 165 -231 l 122 1 q 206 -12 163 -12 q 275 -6 247 -12 q 322 21 303 0 l 21 658 l 372 658 l 488 331 l 597 658 l 947 658 l 721 79 q 565 -158 661 -72 q 318 -244 469 -244 z "},"ỷ":{"ha":940,"x_min":21,"x_max":947,"o":"m 369 725 l 369 838 q 463 856 438 842 q 488 892 488 871 q 418 931 488 931 q 340 917 375 931 l 340 1047 q 417 1063 374 1057 q 521 1068 461 1068 q 676 1025 622 1068 q 731 919 731 982 q 704 826 731 857 q 617 775 678 794 l 617 725 l 369 725 m 318 -244 q 208 -237 250 -244 q 122 -212 165 -231 l 122 1 q 206 -12 163 -12 q 275 -6 247 -12 q 322 21 303 0 l 21 658 l 372 658 l 488 331 l 597 658 l 947 658 l 721 79 q 565 -158 661 -72 q 318 -244 469 -244 z "},"ỹ":{"ha":940,"x_min":21,"x_max":947,"o":"m 635 732 q 537 747 585 732 q 444 778 489 763 q 356 793 399 793 q 272 777 308 793 q 210 736 235 761 l 210 932 q 269 966 231 951 q 351 981 308 981 q 448 965 403 981 q 538 935 493 950 q 631 919 583 919 q 715 937 679 919 q 767 976 750 954 l 767 781 q 716 747 753 763 q 635 732 679 732 m 318 -244 q 208 -237 250 -244 q 122 -212 165 -231 l 122 1 q 206 -12 163 -12 q 275 -6 247 -12 q 322 21 303 0 l 21 658 l 372 658 l 488 331 l 597 658 l 947 658 l 721 79 q 565 -158 661 -72 q 318 -244 469 -244 z "},"z":{"ha":703,"x_min":21,"x_max":682,"o":"m 21 0 l 21 176 l 242 401 l 28 401 l 28 658 l 671 658 l 671 464 l 461 242 l 682 242 l 682 0 l 21 0 z "},"ź":{"ha":703,"x_min":21,"x_max":682,"o":"m 215 725 l 349 1039 l 607 1039 l 461 725 l 215 725 m 21 0 l 21 176 l 242 401 l 28 401 l 28 658 l 671 658 l 671 464 l 461 242 l 682 242 l 682 0 l 21 0 z "},"ž":{"ha":703,"x_min":8,"x_max":690,"o":"m 251 725 l 8 1025 l 249 1025 l 350 876 l 457 1025 l 690 1025 l 447 725 l 251 725 m 21 0 l 21 176 l 242 401 l 28 401 l 28 658 l 671 658 l 671 464 l 461 242 l 682 242 l 682 0 l 21 0 z "},"ż":{"ha":703,"x_min":21,"x_max":682,"o":"m 236 767 l 236 963 l 453 963 l 453 767 l 236 767 m 21 0 l 21 176 l 242 401 l 28 401 l 28 658 l 671 658 l 671 464 l 461 242 l 682 242 l 682 0 l 21 0 z "},"ẓ":{"ha":703,"x_min":21,"x_max":682,"o":"m 21 0 l 21 176 l 242 401 l 28 401 l 28 658 l 671 658 l 671 464 l 461 242 l 682 242 l 682 0 l 21 0 m 222 -296 l 222 -100 l 439 -100 l 439 -296 l 222 -296 z "},"ﬁ":{"ha":861,"x_min":-7,"x_max":813,"o":"m 71 0 l 71 417 l -7 417 l -7 658 l 71 658 l 71 672 q 106 811 71 746 q 215 917 142 876 q 399 958 288 958 q 515 951 463 958 q 611 926 568 943 l 611 713 q 528 726 574 726 q 439 708 471 726 q 407 667 407 690 l 407 658 l 813 658 l 813 0 l 476 0 l 476 417 l 407 417 l 407 0 l 71 0 z "},"ﬂ":{"ha":861,"x_min":-7,"x_max":813,"o":"m 71 0 l 71 417 l -7 417 l -7 658 l 71 658 l 71 672 q 109 816 71 751 q 220 919 147 881 q 399 958 293 958 q 506 950 456 958 q 599 928 557 942 l 813 928 l 813 0 l 483 0 l 483 417 l 400 417 l 400 0 l 71 0 m 397 658 l 489 658 l 489 725 q 423 712 449 725 q 397 667 397 699 l 397 658 z "},"ª":{"ha":460,"x_min":21,"x_max":439,"o":"m 150 528 q 59 557 97 528 q 21 650 21 586 q 179 774 21 774 l 261 774 l 261 778 q 196 800 261 800 q 133 795 167 800 q 67 781 99 790 l 67 881 q 144 901 97 893 q 233 908 190 908 q 381 871 324 908 q 439 754 439 833 l 439 536 l 275 536 l 267 561 q 220 538 249 547 q 150 528 192 528 m 219 629 q 244 634 235 629 q 261 646 254 639 l 261 681 l 228 681 q 193 656 193 681 q 219 629 193 629 z "},"º":{"ha":501,"x_min":21,"x_max":481,"o":"m 250 528 q 21 718 21 528 q 250 908 21 908 q 481 718 481 908 q 250 528 481 528 m 250 661 q 280 674 269 661 q 290 718 290 686 q 280 763 290 750 q 250 775 269 775 q 221 763 231 775 q 211 718 211 750 q 221 674 211 686 q 250 661 231 661 z "},"ⁿ":{"ha":479,"x_min":28,"x_max":458,"o":"m 28 536 l 28 900 l 201 900 l 204 881 q 261 900 226 892 q 335 908 296 908 q 429 874 400 908 q 458 771 458 839 l 458 536 l 274 536 l 274 747 q 249 771 274 771 q 230 767 242 771 q 211 757 218 764 l 211 536 l 28 536 z "},"Δ":{"ha":878,"x_min":21,"x_max":857,"o":"m 21 0 l 21 174 l 306 894 l 569 894 l 857 172 l 857 0 l 21 0 m 338 254 l 538 254 l 438 503 l 338 254 z "},"Ω":{"ha":1033,"x_min":21,"x_max":1013,"o":"m 31 0 l 31 243 l 146 243 q 21 515 21 344 q 148 847 21 729 q 517 965 275 965 q 885 847 758 965 q 1013 515 1013 729 q 984 362 1013 432 q 888 243 956 292 l 1003 243 l 1003 0 l 543 0 l 543 254 q 642 358 614 299 q 669 494 669 418 q 633 633 669 585 q 517 681 597 681 q 400 633 436 681 q 364 494 364 585 q 392 358 364 418 q 490 254 419 299 l 490 0 l 31 0 z "},"μ":{"ha":876,"x_min":49,"x_max":828,"o":"m 49 -199 l 49 658 l 385 658 l 385 278 q 431 233 385 233 q 464 242 446 233 q 492 261 482 250 l 492 658 l 828 658 l 828 0 l 513 0 l 506 38 q 454 1 488 17 q 385 -14 421 -14 l 385 -199 l 49 -199 z "},"π":{"ha":979,"x_min":7,"x_max":972,"o":"m 768 -14 q 552 60 617 -14 q 488 258 488 133 l 488 388 l 424 388 l 424 0 l 88 0 l 88 388 l 7 388 l 7 658 l 904 658 l 904 388 l 824 388 l 824 276 q 889 218 824 218 q 972 232 932 218 l 972 24 q 881 -4 929 6 q 768 -14 832 -14 z "},"ก":{"ha":906,"x_min":21,"x_max":857,"o":"m 35 0 l 35 235 q 61 322 35 279 q 133 383 88 365 l 21 424 l 21 639 q 194 724 90 685 q 429 764 299 764 q 681 719 588 764 q 816 603 775 675 q 857 451 857 532 l 857 0 l 507 0 l 507 431 q 487 507 507 483 q 410 531 467 531 q 352 524 379 531 q 304 508 325 518 l 304 506 l 442 456 l 442 324 q 394 290 411 314 q 378 226 378 267 l 378 0 l 35 0 z "},"ข":{"ha":860,"x_min":21,"x_max":811,"o":"m 424 -14 q 145 62 249 -14 q 42 274 42 138 l 42 299 q 61 381 42 347 q 99 441 81 415 q 118 489 118 467 q 81 525 118 525 l 21 525 l 47 750 l 294 750 q 417 712 378 750 q 456 606 456 674 q 440 531 456 565 q 402 466 424 496 q 365 407 381 436 q 349 347 349 378 l 349 321 q 371 272 349 286 q 424 257 393 257 q 484 278 464 257 q 504 331 504 300 l 504 750 l 811 750 l 811 279 q 710 61 811 136 q 424 -14 608 -14 z "},"ฃ":{"ha":893,"x_min":21,"x_max":844,"o":"m 457 -14 q 178 51 282 -14 q 75 239 75 117 l 75 261 q 97 340 75 303 q 148 406 119 376 q 199 460 176 436 q 221 503 221 485 q 199 529 221 529 q 175 515 185 529 l 175 464 l 21 464 l 21 750 l 199 750 l 199 711 q 260 737 218 724 q 342 750 301 750 q 462 712 421 750 q 503 606 503 674 q 485 516 503 554 q 442 447 467 478 q 400 390 418 417 q 382 335 382 363 l 382 321 q 404 272 382 286 q 457 257 426 257 q 517 278 497 257 q 538 331 538 300 l 538 750 l 844 750 l 844 279 q 743 61 844 136 q 457 -14 642 -14 z "},"ค":{"ha":922,"x_min":49,"x_max":874,"o":"m 49 0 l 49 425 q 102 619 49 544 q 249 729 156 694 q 461 764 342 764 q 674 729 581 764 q 820 619 767 694 q 874 425 874 544 l 874 0 l 538 0 l 538 396 q 522 462 538 444 q 461 479 506 479 q 401 462 417 479 q 385 396 385 444 l 385 360 q 444 372 414 372 l 500 372 l 499 142 l 444 142 q 385 131 408 142 l 385 0 l 49 0 z "},"ฅ":{"ha":922,"x_min":49,"x_max":874,"o":"m 49 0 l 49 546 q 110 704 49 644 q 274 764 171 764 q 373 748 322 764 q 460 693 424 732 q 549 748 496 732 q 650 764 601 764 q 817 704 760 764 q 874 546 874 644 l 874 0 l 538 0 l 538 436 q 533 469 538 460 q 514 479 529 479 q 497 472 503 479 q 485 454 490 465 l 438 454 q 427 472 432 465 q 410 479 422 479 q 390 469 394 479 q 385 436 385 460 l 385 360 q 444 372 414 372 l 500 372 l 499 142 l 444 142 q 385 131 408 142 l 385 0 l 49 0 z "},"ฆ":{"ha":914,"x_min":21,"x_max":865,"o":"m 606 -14 q 478 3 535 -14 q 383 44 422 21 l 374 0 l 61 0 l 61 211 q 85 305 61 261 q 141 385 110 349 q 197 452 172 422 q 221 503 221 482 q 199 529 221 529 q 175 515 185 529 l 175 464 l 21 464 l 21 750 l 228 750 l 228 711 q 289 737 247 724 q 371 750 331 750 q 481 708 444 750 q 518 597 518 665 q 500 489 518 532 q 458 415 482 446 q 415 356 433 383 q 397 292 397 328 l 397 261 q 433 242 407 250 q 472 233 458 233 q 536 294 536 233 l 536 750 l 865 750 l 865 242 q 791 51 865 117 q 606 -14 717 -14 z "},"ง":{"ha":846,"x_min":-21,"x_max":825,"o":"m 399 -14 q 288 -6 351 -14 q 179 19 224 3 l -21 532 l 290 532 l 415 211 q 465 274 449 226 q 482 394 482 322 q 454 491 482 461 q 374 521 426 521 l 324 521 l 324 750 l 451 750 q 726 663 626 750 q 825 396 825 576 q 772 161 825 251 q 624 28 719 71 q 399 -14 528 -14 z "},"จ":{"ha":804,"x_min":21,"x_max":783,"o":"m 392 -14 q 278 -5 336 -14 q 193 18 221 4 l 115 226 l 21 226 l 33 457 l 306 457 l 388 239 q 426 291 411 258 q 440 379 440 324 q 401 497 440 461 q 268 533 363 533 q 149 523 214 533 q 22 496 83 513 l 22 711 q 192 751 103 739 q 353 764 281 764 q 610 719 515 764 q 744 589 704 675 q 783 378 783 503 q 750 206 783 279 q 660 83 717 132 q 535 10 604 35 q 392 -14 465 -14 z "},"ฉ":{"ha":872,"x_min":21,"x_max":824,"o":"m 279 -14 q 97 51 168 -14 q 26 242 26 117 l 26 417 l 363 417 l 363 294 q 419 233 363 233 q 460 242 442 233 q 488 261 478 250 l 488 379 q 449 497 488 461 q 307 533 410 533 q 219 528 271 533 q 114 515 167 524 q 21 496 61 507 l 21 711 q 202 751 101 739 q 392 764 303 764 q 646 719 551 764 q 782 589 740 675 q 824 378 824 503 l 824 0 l 511 0 l 501 44 q 406 3 463 21 q 279 -14 350 -14 z "},"ช":{"ha":882,"x_min":21,"x_max":833,"o":"m 435 -14 q 230 18 318 -14 q 92 113 142 50 q 42 264 42 175 l 42 289 q 61 377 42 340 q 99 440 81 414 q 118 489 118 467 q 81 525 118 525 l 21 525 l 47 750 l 281 750 q 403 712 364 750 q 442 606 442 674 q 428 526 442 560 q 395 463 414 492 q 363 406 376 435 q 349 343 349 378 l 349 319 q 372 273 349 289 q 435 257 394 257 q 502 273 478 257 q 526 319 526 289 l 526 344 q 512 388 526 374 q 474 403 497 403 l 447 403 l 460 628 l 472 628 q 514 645 501 628 q 526 710 526 663 l 526 764 l 833 764 l 833 721 q 817 598 833 649 q 751 515 800 547 q 817 441 800 488 q 833 339 833 394 l 833 285 q 785 128 833 196 q 647 24 736 61 q 435 -14 558 -14 z "},"ซ":{"ha":879,"x_min":21,"x_max":831,"o":"m 443 -14 q 165 51 268 -14 q 61 239 61 117 l 61 261 q 83 340 61 303 q 134 406 106 376 q 185 460 163 436 q 207 503 207 485 q 185 529 207 529 q 161 515 171 529 l 161 464 l 21 464 l 21 750 l 199 750 l 199 711 q 256 737 218 724 q 335 750 294 750 q 443 717 404 750 q 488 628 482 685 q 515 647 507 629 q 524 710 524 665 l 524 764 l 831 764 l 831 721 q 814 598 831 649 q 749 515 797 547 q 814 441 797 488 q 831 339 831 394 l 831 279 q 729 61 831 136 q 443 -14 628 -14 m 443 257 q 503 278 483 257 q 524 331 524 300 l 524 363 q 476 421 524 421 l 458 421 l 463 493 q 422 431 444 458 q 384 382 400 404 q 368 335 368 360 l 368 321 q 390 272 368 286 q 443 257 413 257 z "},"ฌ":{"ha":1333,"x_min":21,"x_max":1285,"o":"m 1025 -14 q 901 3 954 -14 q 810 44 849 21 l 800 0 l 494 0 l 494 431 q 478 507 494 483 q 404 531 461 531 q 349 524 374 531 q 304 508 325 518 l 304 506 l 442 456 l 442 324 q 378 242 378 303 l 378 229 q 413 194 378 194 l 444 194 l 444 0 l 183 0 q 74 40 114 0 q 35 144 35 81 l 35 235 q 61 322 35 279 q 133 383 88 365 l 21 424 l 21 639 q 192 724 90 685 q 424 764 293 764 q 620 738 543 764 q 742 668 697 713 q 806 568 788 624 q 824 451 824 513 l 824 261 q 856 242 833 250 q 892 233 878 233 q 949 294 949 233 l 949 750 l 1285 750 l 1285 242 q 1210 51 1285 117 q 1025 -14 1136 -14 z "},"ญ":{"ha":1346,"x_min":21,"x_max":1311,"o":"m 929 -125 q 725 -108 819 -125 q 585 -65 631 -92 l 585 139 q 676 106 619 119 q 797 84 733 92 q 911 76 860 76 q 1020 90 989 76 q 1051 121 1051 103 q 1043 142 1051 132 q 971 130 1008 133 q 893 126 933 126 q 603 200 713 126 q 494 429 494 274 l 494 444 q 478 510 494 489 q 404 531 461 531 q 349 524 374 531 q 304 508 325 518 l 304 506 l 442 456 l 442 324 q 378 242 378 303 l 378 229 q 413 194 378 194 l 444 194 l 444 0 l 183 0 q 74 40 114 0 q 35 144 35 81 l 35 235 q 61 322 35 279 q 133 383 88 365 l 21 424 l 21 639 q 192 724 90 685 q 424 764 293 764 q 620 740 543 764 q 742 676 697 717 q 806 585 788 636 q 824 479 824 533 l 824 450 q 839 387 824 407 q 893 367 854 367 q 948 387 933 367 q 963 450 963 407 l 963 750 l 1299 750 l 1299 435 q 1284 338 1299 382 q 1243 260 1269 294 q 1293 191 1275 233 q 1311 99 1311 149 q 1209 -66 1311 -7 q 929 -125 1107 -125 z "},"ฎ":{"ha":938,"x_min":21,"x_max":889,"o":"m 186 -278 l 186 -46 q 294 -15 240 -25 q 418 -6 347 -6 q 486 -10 449 -6 q 539 -19 524 -14 l 539 431 q 519 507 539 483 q 442 531 499 531 q 384 524 411 531 q 336 508 357 518 l 336 506 l 474 456 l 474 324 q 436 296 446 314 q 426 246 426 278 l 426 144 q 381 40 426 81 q 265 0 335 0 l 21 0 l 21 208 l 49 208 q 83 243 83 208 l 83 258 q 101 334 83 303 q 165 383 119 365 l 53 424 l 53 639 q 226 724 122 685 q 461 764 331 764 q 713 719 619 764 q 848 603 807 675 q 889 451 889 532 l 889 -269 l 597 -269 q 513 -240 557 -250 q 406 -231 468 -231 q 292 -242 350 -231 q 186 -278 235 -254 z "},"ฏ":{"ha":938,"x_min":21,"x_max":889,"o":"m 625 -279 q 484 -260 540 -279 q 393 -218 428 -240 q 328 -256 367 -243 q 229 -268 289 -268 l 119 -268 l 136 -58 l 194 -58 q 240 -48 226 -58 q 260 -17 254 -37 l 456 -17 q 503 -58 465 -58 q 539 -15 539 -58 l 539 431 q 519 507 539 483 q 442 531 499 531 q 384 524 411 531 q 336 508 357 518 l 336 506 l 474 456 l 474 324 q 436 296 446 314 q 426 246 426 278 l 426 144 q 381 40 426 81 q 265 0 335 0 l 21 0 l 21 208 l 49 208 q 83 243 83 208 l 83 258 q 101 334 83 303 q 165 383 119 365 l 53 424 l 53 639 q 226 724 122 685 q 461 764 331 764 q 713 719 619 764 q 848 603 807 675 q 889 451 889 532 l 889 -4 q 860 -144 889 -82 q 772 -243 831 -207 q 625 -279 714 -279 z "},"ฐ":{"ha":861,"x_min":21,"x_max":847,"o":"m 392 -14 q 278 -5 336 -14 q 193 18 221 4 l 115 226 l 21 226 l 33 457 l 306 457 l 388 239 q 426 293 411 258 q 440 379 440 328 q 405 497 440 461 q 275 533 369 533 q 152 523 221 533 q 22 496 83 513 l 22 711 q 192 751 103 739 q 353 764 281 764 q 435 760 397 764 q 507 750 474 757 l 847 750 l 831 519 l 754 519 q 775 453 767 489 q 783 378 783 417 q 750 206 783 279 q 660 83 717 132 q 535 10 604 35 q 392 -14 465 -14 m 497 -311 q 315 -262 382 -311 q 258 -298 293 -286 q 190 -310 224 -310 l 31 -310 l 42 -90 l 153 -90 q 194 -83 182 -90 q 213 -53 207 -75 l 397 -53 q 415 -84 401 -69 q 456 -99 428 -99 q 492 -86 479 -99 q 506 -56 506 -74 l 506 -22 l 763 -22 l 763 -62 q 733 -186 763 -129 q 644 -277 703 -243 q 497 -311 585 -311 z "},"ฑ":{"ha":901,"x_min":21,"x_max":853,"o":"m 78 0 l 78 201 q 99 301 78 256 q 149 383 121 346 q 199 449 178 419 q 221 503 221 479 q 199 529 221 529 q 175 515 185 529 l 175 464 l 21 464 l 21 750 l 199 750 l 199 711 q 253 737 218 724 q 328 750 288 750 q 384 742 356 750 q 435 719 413 735 q 508 751 463 739 q 601 764 553 764 q 788 699 722 764 q 853 508 853 633 l 853 0 l 518 0 l 518 511 q 503 529 518 529 q 494 527 500 529 q 486 522 489 525 q 475 427 486 465 q 450 357 464 389 q 425 290 436 325 q 414 204 414 256 l 414 0 l 78 0 z "},"ฒ":{"ha":1406,"x_min":21,"x_max":1357,"o":"m 358 -14 q 182 23 258 -14 q 63 140 106 60 q 21 354 21 221 q 59 586 21 496 q 164 720 97 676 q 313 764 231 764 q 403 748 364 764 q 478 693 443 732 q 568 748 514 732 q 671 764 622 764 q 833 711 771 764 q 896 569 896 658 l 896 261 q 928 242 906 250 q 964 233 950 233 q 1021 294 1021 233 l 1021 750 l 1357 750 l 1357 242 q 1283 51 1357 117 q 1097 -14 1208 -14 q 974 3 1026 -14 q 882 44 921 21 l 872 0 l 575 0 l 575 429 q 543 479 575 479 q 507 454 519 479 l 443 454 q 430 472 438 465 q 410 479 422 479 q 375 448 389 479 q 361 354 361 417 q 379 251 361 283 q 450 218 397 218 q 519 231 489 218 l 519 17 q 452 -6 493 3 q 358 -14 411 -14 z "},"ณ":{"ha":1340,"x_min":21,"x_max":1292,"o":"m 754 -14 q 569 51 643 -14 q 494 242 494 117 l 494 431 q 478 507 494 483 q 404 531 461 531 q 349 524 374 531 q 304 508 325 518 l 304 506 l 442 456 l 442 324 q 378 242 378 303 l 378 229 q 413 194 378 194 l 444 194 l 444 0 l 183 0 q 74 40 114 0 q 35 144 35 81 l 35 235 q 61 322 35 279 q 133 383 88 365 l 21 424 l 21 639 q 192 724 90 685 q 424 764 293 764 q 622 738 543 764 q 746 668 700 713 q 811 568 792 624 q 831 451 831 513 l 831 294 q 888 233 831 233 q 924 242 903 233 q 956 261 946 250 l 956 750 l 1292 750 l 1292 0 l 979 0 l 969 44 q 878 3 931 21 q 754 -14 825 -14 z "},"ด":{"ha":926,"x_min":21,"x_max":878,"o":"m 358 -14 q 182 19 258 -14 q 63 131 106 53 q 21 342 21 208 q 130 657 21 550 q 474 764 239 764 q 708 722 619 764 q 838 610 797 679 q 878 458 878 540 l 878 0 l 557 0 l 557 393 q 540 454 557 429 q 465 479 524 479 q 388 447 413 479 q 364 342 364 415 q 381 246 364 274 q 450 218 397 218 q 519 231 489 218 l 519 17 q 452 -6 493 3 q 358 -14 411 -14 z "},"ต":{"ha":944,"x_min":21,"x_max":896,"o":"m 358 -14 q 182 23 258 -14 q 63 140 106 60 q 21 354 21 221 q 59 586 21 496 q 164 720 97 676 q 313 764 231 764 q 403 748 364 764 q 478 693 443 732 q 568 748 514 732 q 671 764 622 764 q 833 711 771 764 q 896 569 896 658 l 896 0 l 575 0 l 575 429 q 543 479 575 479 q 507 454 519 479 l 443 454 q 430 472 438 465 q 410 479 422 479 q 375 448 389 479 q 361 354 361 417 q 379 251 361 283 q 450 218 397 218 q 519 231 489 218 l 519 17 q 452 -6 493 3 q 358 -14 411 -14 z "},"ถ":{"ha":906,"x_min":21,"x_max":857,"o":"m 183 0 q 74 40 114 0 q 35 144 35 81 l 35 235 q 61 322 35 279 q 133 383 88 365 l 21 424 l 21 639 q 194 724 90 685 q 429 764 299 764 q 681 719 588 764 q 816 603 775 675 q 857 451 857 532 l 857 0 l 507 0 l 507 431 q 487 507 507 483 q 410 531 467 531 q 352 524 379 531 q 304 508 325 518 l 304 506 l 442 456 l 442 324 q 378 242 378 303 l 378 229 q 413 194 378 194 l 444 194 l 444 0 l 183 0 z "},"ท":{"ha":908,"x_min":49,"x_max":860,"o":"m 49 0 l 49 750 l 361 750 l 371 706 q 469 747 410 729 q 600 764 529 764 q 790 699 721 764 q 860 508 860 633 l 860 0 l 524 0 l 524 456 q 460 517 524 517 q 420 508 446 517 q 385 489 394 500 l 385 0 l 49 0 z "},"ธ":{"ha":788,"x_min":21,"x_max":767,"o":"m 401 -14 q 197 5 296 -14 q 33 54 99 24 l 33 299 l 313 299 l 313 219 q 347 213 324 215 q 383 211 369 211 q 458 247 458 211 q 393 292 458 275 q 229 331 328 308 q 72 401 124 354 q 21 533 21 449 q 58 656 21 604 q 179 735 94 707 q 407 764 264 764 q 596 753 514 764 q 719 731 678 743 l 719 513 q 646 534 690 525 q 556 548 601 543 q 476 553 511 553 q 397 551 429 553 q 364 529 364 549 q 400 506 364 518 q 487 483 436 494 q 581 458 538 471 q 725 382 683 432 q 767 239 767 332 q 671 50 767 114 q 401 -14 575 -14 z "},"น":{"ha":908,"x_min":49,"x_max":860,"o":"m 308 -14 q 123 51 197 -14 q 49 242 49 117 l 49 750 l 385 750 l 385 294 q 449 233 385 233 q 489 242 464 233 q 524 261 514 250 l 524 750 l 860 750 l 860 0 l 547 0 l 538 44 q 439 3 499 21 q 308 -14 379 -14 z "},"บ":{"ha":922,"x_min":49,"x_max":874,"o":"m 461 -14 q 249 24 342 -14 q 102 141 156 63 q 49 339 49 219 l 49 750 l 385 750 l 385 354 q 401 279 385 301 q 461 257 417 257 q 522 279 506 257 q 538 354 538 301 l 538 750 l 874 750 l 874 339 q 820 141 874 219 q 674 24 767 63 q 461 -14 581 -14 z "},"ป":{"ha":922,"x_min":49,"x_max":874,"o":"m 461 -14 q 249 24 342 -14 q 102 141 156 63 q 49 339 49 219 l 49 750 l 385 750 l 385 354 q 401 279 385 301 q 461 257 417 257 q 522 279 506 257 q 538 354 538 301 l 538 972 l 874 972 l 874 339 q 820 141 874 219 q 674 24 767 63 q 461 -14 581 -14 z "},"ผ":{"ha":917,"x_min":49,"x_max":868,"o":"m 49 0 l 49 625 q 75 713 49 675 q 156 750 101 750 l 419 750 l 431 558 l 374 558 q 336 518 336 558 l 336 393 l 408 521 l 508 521 l 581 393 l 581 750 l 868 750 l 868 0 l 588 0 l 458 236 l 329 0 l 49 0 z "},"ฝ":{"ha":917,"x_min":49,"x_max":868,"o":"m 49 0 l 49 625 q 75 713 49 675 q 156 750 101 750 l 419 750 l 431 558 l 374 558 q 336 518 336 558 l 336 393 l 408 521 l 508 521 l 581 393 l 581 972 l 868 972 l 868 0 l 588 0 l 458 236 l 329 0 l 49 0 z "},"พ":{"ha":1051,"x_min":7,"x_max":1044,"o":"m 175 0 l 7 750 l 299 750 l 368 442 l 396 581 l 396 750 l 629 750 l 689 442 l 754 750 l 1044 750 l 876 0 l 604 0 l 528 247 l 446 0 l 175 0 z "},"ฟ":{"ha":1051,"x_min":7,"x_max":1071,"o":"m 175 0 l 7 750 l 299 750 l 368 442 l 396 581 l 396 750 l 629 750 l 689 442 l 781 972 l 1071 972 l 876 0 l 604 0 l 528 247 l 446 0 l 175 0 z "},"ภ":{"ha":938,"x_min":21,"x_max":889,"o":"m 21 0 l 21 208 l 49 208 q 83 243 83 208 l 83 258 q 101 333 83 301 q 165 383 119 365 l 53 424 l 53 639 q 226 724 122 685 q 461 764 331 764 q 713 719 619 764 q 848 603 807 675 q 889 451 889 532 l 889 0 l 539 0 l 539 431 q 519 507 539 483 q 442 531 499 531 q 384 524 411 531 q 336 508 357 518 l 336 506 l 474 456 l 474 324 q 436 296 446 314 q 426 246 426 278 l 426 144 q 387 40 426 81 q 278 0 347 0 l 21 0 z "},"ม":{"ha":908,"x_min":49,"x_max":860,"o":"m 600 -14 q 469 3 529 -14 q 371 44 410 21 l 361 0 l 49 0 l 49 750 l 385 750 l 385 261 q 420 242 394 250 q 460 233 446 233 q 524 294 524 233 l 524 750 l 860 750 l 860 242 q 785 51 860 117 q 600 -14 711 -14 z "},"ย":{"ha":913,"x_min":21,"x_max":864,"o":"m 444 -14 q 125 60 229 -14 q 21 250 21 135 q 38 330 21 294 q 82 388 56 365 q 42 442 60 410 q 25 525 25 475 q 102 703 25 643 q 328 764 179 764 q 424 757 381 764 q 493 739 467 750 l 493 556 q 460 560 479 558 q 426 563 440 563 q 368 525 368 563 q 411 489 368 489 l 472 489 l 472 294 l 410 294 q 365 256 365 294 q 382 224 365 236 q 444 211 399 211 q 528 281 528 211 l 528 750 l 864 750 l 864 283 q 752 61 864 136 q 444 -14 640 -14 z "},"ร":{"ha":704,"x_min":21,"x_max":683,"o":"m 332 -14 q 154 0 238 -14 q 26 33 71 14 l 26 253 q 104 224 60 238 q 192 204 149 211 q 265 197 236 197 q 322 203 303 197 q 340 224 340 208 q 299 265 340 251 q 192 304 257 278 q 61 390 101 340 q 21 524 21 439 q 108 697 21 629 q 376 764 196 764 q 478 759 426 764 q 574 747 529 754 q 647 731 619 739 l 647 513 q 548 542 603 532 q 454 553 493 553 q 389 547 414 553 q 364 524 364 542 q 401 487 364 500 q 501 450 438 474 q 612 395 572 425 q 667 324 651 365 q 683 224 683 283 q 594 53 683 119 q 332 -14 506 -14 z "},"ฤ":{"ha":906,"x_min":21,"x_max":857,"o":"m 507 -222 l 507 431 q 487 507 507 483 q 410 531 467 531 q 352 524 379 531 q 304 508 325 518 l 304 506 l 442 456 l 442 324 q 378 242 378 303 l 378 229 q 413 194 378 194 l 444 194 l 444 0 l 183 0 q 74 40 114 0 q 35 144 35 81 l 35 235 q 61 322 35 279 q 133 383 88 365 l 21 424 l 21 639 q 194 724 90 685 q 429 764 299 764 q 681 719 588 764 q 816 603 775 675 q 857 451 857 532 l 857 -222 l 507 -222 z "},"ล":{"ha":863,"x_min":21,"x_max":814,"o":"m 289 -14 q 156 8 217 -14 q 58 82 94 31 q 21 221 21 133 q 98 415 21 346 q 328 485 175 485 l 493 485 l 493 500 q 462 528 493 518 q 361 538 431 538 q 231 527 301 538 q 97 497 160 517 l 97 711 q 197 740 140 728 q 315 758 253 751 q 435 764 378 764 q 717 683 621 764 q 814 439 814 603 l 814 0 l 493 0 l 493 289 l 424 289 q 378 278 393 289 q 364 236 364 267 q 407 188 364 188 q 454 194 428 188 l 454 11 q 385 -6 428 1 q 289 -14 342 -14 z "},"ฦ":{"ha":938,"x_min":21,"x_max":889,"o":"m 539 -222 l 539 431 q 519 507 539 483 q 442 531 499 531 q 384 524 411 531 q 336 508 357 518 l 336 506 l 474 456 l 474 324 q 436 296 446 314 q 426 246 426 278 l 426 144 q 387 40 426 81 q 278 0 347 0 l 21 0 l 21 208 l 49 208 q 83 243 83 208 l 83 258 q 101 334 83 303 q 165 383 119 365 l 53 424 l 53 639 q 226 724 122 685 q 461 764 331 764 q 713 719 619 764 q 848 603 807 675 q 889 451 889 532 l 889 -222 l 539 -222 z "},"ว":{"ha":767,"x_min":21,"x_max":746,"o":"m 331 -14 q 165 -1 242 -14 q 21 42 88 11 l 21 331 q 133 288 72 304 q 246 271 194 271 q 365 291 326 271 q 403 375 403 311 q 365 459 403 439 q 249 479 326 479 q 135 468 194 479 q 24 432 75 457 l 24 708 q 170 750 90 736 q 333 764 250 764 q 643 674 540 764 q 746 375 746 585 q 642 76 746 165 q 331 -14 538 -14 z "},"ศ":{"ha":961,"x_min":49,"x_max":947,"o":"m 49 0 l 49 425 q 102 619 49 544 q 249 729 156 694 q 461 764 342 764 q 535 760 500 764 q 604 749 571 756 l 604 750 l 947 750 l 931 519 l 854 519 q 868 469 863 500 q 874 406 874 439 l 874 0 l 538 0 l 538 396 q 522 462 538 444 q 461 479 506 479 q 401 462 417 479 q 385 396 385 444 l 385 360 q 444 372 414 372 l 500 372 l 499 142 l 444 142 q 385 131 408 142 l 385 0 l 49 0 z "},"ษ":{"ha":938,"x_min":49,"x_max":938,"o":"m 461 -14 q 249 24 342 -14 q 102 141 156 63 q 49 339 49 219 l 49 750 l 385 750 l 385 354 q 401 279 385 301 q 461 257 417 257 q 522 279 506 257 q 538 354 538 301 l 538 372 l 456 372 l 456 603 l 538 603 l 538 750 l 874 750 l 874 603 l 938 603 l 918 372 l 874 372 l 874 339 q 820 141 874 219 q 674 24 767 63 q 461 -14 581 -14 z "},"ส":{"ha":901,"x_min":21,"x_max":888,"o":"m 289 -14 q 156 8 217 -14 q 58 83 94 31 q 21 222 21 135 q 98 416 21 347 q 328 485 175 485 l 493 485 l 493 500 q 462 528 493 518 q 361 538 431 538 q 231 527 301 538 q 97 497 160 517 l 97 711 q 197 740 140 728 q 315 758 253 751 q 435 764 378 764 q 508 760 474 764 q 574 750 543 757 l 888 750 l 871 519 l 797 519 q 810 472 806 501 q 814 411 814 443 l 814 0 l 493 0 l 493 289 l 424 289 q 378 278 393 289 q 364 236 364 267 q 407 188 364 188 q 454 194 428 188 l 454 11 q 385 -6 428 1 q 289 -14 342 -14 z "},"ห":{"ha":886,"x_min":49,"x_max":838,"o":"m 49 0 l 49 750 l 385 750 l 385 568 l 444 568 q 489 585 476 568 q 501 633 501 603 l 501 750 l 838 750 l 838 597 q 820 506 838 547 q 767 442 803 465 q 820 381 803 419 q 838 290 838 342 l 838 0 l 501 0 l 501 246 q 489 294 501 276 q 444 311 476 311 l 385 311 l 385 0 l 49 0 z "},"ฬ":{"ha":1051,"x_min":7,"x_max":1078,"o":"m 175 0 l 7 750 l 299 750 l 368 442 l 400 581 l 400 663 l 625 663 l 689 442 l 718 599 q 713 678 729 656 q 651 700 696 700 l 624 700 l 653 869 l 700 869 q 762 887 743 869 q 789 940 781 904 l 796 972 l 1078 972 l 1063 906 q 958 772 1039 799 q 999 607 1024 729 l 876 0 l 604 0 l 528 247 l 446 0 l 175 0 z "},"อ":{"ha":854,"x_min":28,"x_max":833,"o":"m 388 -14 q 188 5 282 -14 q 28 54 93 24 l 28 456 l 411 456 l 422 264 l 328 264 l 328 218 q 360 213 343 214 q 393 211 376 211 q 471 251 451 211 q 490 369 490 290 q 446 501 490 468 q 311 533 401 533 q 180 524 256 533 q 36 493 104 514 l 36 711 q 154 741 90 729 q 281 758 218 753 q 392 764 343 764 q 728 669 624 764 q 833 369 833 575 q 728 88 833 189 q 388 -14 622 -14 z "},"ฮ":{"ha":914,"x_min":28,"x_max":900,"o":"m 388 -14 q 188 5 282 -14 q 28 54 93 24 l 28 456 l 411 456 l 422 264 l 328 264 l 328 218 q 360 213 343 214 q 393 211 376 211 q 471 251 451 211 q 490 369 490 290 q 446 501 490 468 q 311 533 401 533 q 180 524 256 533 q 36 493 104 514 l 36 711 q 154 741 90 729 q 281 758 218 753 q 392 764 343 764 q 478 760 438 764 q 556 750 519 757 l 900 750 l 883 519 l 800 519 q 833 369 833 453 q 728 88 833 189 q 388 -14 622 -14 z "},"ะ":{"ha":454,"x_min":21,"x_max":433,"o":"m 21 397 l 21 679 l 258 679 l 258 614 l 433 614 l 424 397 l 21 397 m 21 49 l 21 331 l 258 331 l 258 265 l 433 265 l 426 49 l 21 49 z "},"า":{"ha":646,"x_min":0,"x_max":597,"o":"m 290 0 l 290 392 q 266 467 290 443 q 183 492 242 492 q 84 480 132 492 q 0 453 36 468 l 0 708 q 112 748 43 732 q 250 764 181 764 q 514 683 431 764 q 597 444 597 601 l 597 0 l 290 0 z "},"ำ":{"ha":646,"x_min":-426,"x_max":597,"o":"m -214 793 q -321 818 -272 793 q -398 888 -369 843 q -426 992 -426 933 q -398 1096 -426 1051 q -321 1165 -369 1140 q -214 1190 -272 1190 q -106 1165 -154 1190 q -30 1096 -58 1140 q -1 992 -1 1051 q -30 888 -1 933 q -106 818 -58 843 q -214 793 -154 793 m -214 947 q -183 960 -196 947 q -169 992 -169 974 q -183 1023 -169 1010 q -214 1036 -196 1036 q -245 1023 -232 1036 q -258 992 -258 1010 q -245 960 -258 974 q -214 947 -232 947 m 290 0 l 290 392 q 266 467 290 443 q 183 492 242 492 q 84 480 132 492 q 0 453 36 468 l 0 708 q 112 748 43 732 q 250 764 181 764 q 514 683 431 764 q 597 444 597 601 l 597 0 l 290 0 z "},"เ":{"ha":486,"x_min":49,"x_max":465,"o":"m 197 0 q 88 40 128 0 q 49 144 49 81 l 49 750 l 392 750 l 392 243 q 426 208 392 208 l 465 208 l 465 0 l 197 0 z "},"แ":{"ha":903,"x_min":49,"x_max":882,"o":"m 628 0 q 519 40 558 0 q 479 144 479 81 l 479 750 l 808 750 l 808 243 q 843 208 808 208 l 882 208 l 882 0 l 628 0 m 197 0 q 88 40 128 0 q 49 144 49 81 l 49 750 l 378 750 l 378 243 q 413 208 378 208 l 451 208 l 451 0 l 197 0 z "},"โ":{"ha":497,"x_min":-42,"x_max":497,"o":"m 225 0 q 116 40 156 0 q 76 144 76 81 l 76 768 q -42 921 76 900 l -42 1103 l 497 1103 l 497 894 l 363 894 q 389 845 381 875 q 397 783 397 815 l 397 243 q 432 208 397 208 l 471 208 l 471 0 l 225 0 z "},"ใ":{"ha":461,"x_min":-49,"x_max":482,"o":"m 174 0 q 65 40 104 0 q 25 144 25 81 l 25 597 q 41 678 25 643 q 77 742 57 714 q 113 792 97 769 q 129 836 129 815 q 85 864 129 864 q 14 853 49 864 q -49 826 -21 843 l -49 1044 q 72 1092 6 1076 q 221 1107 138 1107 q 413 1060 343 1107 q 482 918 482 1013 q 461 828 482 867 q 414 758 440 790 q 367 691 388 726 q 346 608 346 656 l 346 243 q 381 208 346 208 l 419 208 l 419 0 l 174 0 z "},"ไ":{"ha":472,"x_min":-42,"x_max":493,"o":"m 207 0 q 98 40 138 0 q 58 144 58 81 l 58 783 q 67 845 58 815 q 93 894 75 875 l -42 894 l -42 1103 l 493 1103 l 493 921 q 406 873 433 911 q 379 768 379 835 l 379 243 q 414 208 379 208 l 453 208 l 453 0 l 207 0 z "},"ๅ":{"ha":646,"x_min":0,"x_max":597,"o":"m 290 -222 l 290 392 q 266 467 290 443 q 183 492 242 492 q 84 480 132 492 q 0 453 36 468 l 0 708 q 112 748 43 732 q 250 764 181 764 q 514 683 431 764 q 597 444 597 601 l 597 -222 l 290 -222 z "},"ℊ":{"ha":872,"x_min":21,"x_max":824,"o":"m 325 -244 q 262 -242 303 -244 q 182 -237 221 -240 q 124 -231 143 -233 l 124 -12 q 195 -25 151 -19 q 274 -31 239 -31 q 431 -19 374 -31 q 488 21 488 -7 l 488 33 q 421 16 461 24 q 344 8 381 8 q 165 36 238 8 q 57 131 93 64 q 21 315 21 199 q 63 513 21 433 q 177 632 106 592 q 336 672 249 672 q 439 657 397 672 q 517 615 481 642 l 532 658 l 824 658 l 824 100 q 799 -35 824 28 q 718 -145 775 -99 q 565 -218 661 -192 q 325 -244 469 -244 m 429 226 q 488 247 463 226 l 488 411 q 463 427 474 422 q 433 432 453 432 q 383 406 403 432 q 364 321 364 381 q 381 244 364 261 q 429 226 399 226 z "}}}
